<?xml version="1.0" standalone="no"?><!DOCTYPE svg PUBLIC "-//W3C//DTD SVG 1.1//EN" "http://www.w3.org/Graphics/SVG/1.1/DTD/svg11.dtd"><svg t="1760694098523" class="icon" viewBox="0 0 1024 1024" version="1.1" xmlns="http://www.w3.org/2000/svg" p-id="107817" xmlns:xlink="http://www.w3.org/1999/xlink" width="200" height="200"><path d="M0 0m307.2 0l409.6 0q307.2 0 307.2 307.2l0 409.6q0 307.2-307.2 307.2l-409.6 0q-307.2 0-307.2-307.2l0-409.6q0-307.2 307.2-307.2Z" fill="#1389FF" p-id="107818"></path><path d="M716.8 215.296H307.2a307.2 307.2 0 0 0-307.2 307.2v201.728a307.2 307.2 0 0 1 307.2-307.2h409.6a307.2 307.2 0 0 1 307.2 307.2v-201.728a307.2 307.2 0 0 0-307.2-307.2z" fill="#2993FF" opacity=".5" p-id="107819"></path><path d="M716.8 417.024H307.2A307.2 307.2 0 0 0 0 720.384a298.752 298.752 0 0 0 18.432 100.864A307.2 307.2 0 0 1 307.2 618.752h409.6a307.2 307.2 0 0 1 288.512 202.496 298.752 298.752 0 0 0 18.688-100.864 307.2 307.2 0 0 0-307.2-303.36z" fill="#42A1FF" opacity=".5" p-id="107820"></path><path d="M1007.104 821.76a307.2 307.2 0 0 0-288.512-202.752h-409.6c-136.448 0-252.16 75.008-292.096 192.768a304.64 304.64 0 0 0 55.04 100.352 304.896 304.896 0 0 1 237.056-112.896h409.6a305.664 305.664 0 0 1 237.312 112.896 311.552 311.552 0 0 0 51.2-90.368z" fill="#5AACFF" opacity=".5" p-id="107821"></path><path d="M716.8 799.232H307.2a304.896 304.896 0 0 0-237.056 112.896A307.2 307.2 0 0 0 307.2 1024h409.6a307.2 307.2 0 0 0 237.056-111.872A304.896 304.896 0 0 0 716.8 799.232z" fill="#76BBFF" opacity=".5" p-id="107822"></path><path d="M228.864 484.608a51.2 51.2 0 0 1 19.712 96.512v66.304a29.696 29.696 0 0 0 15.616 25.6l233.472 134.656a29.184 29.184 0 0 0 31.488 0l233.728-134.656a30.976 30.976 0 0 0 15.616-25.6v-51.2a18.688 18.688 0 0 1 18.176-18.176 16.896 16.896 0 0 1 16.896 18.176v51.2a67.584 67.584 0 0 1-33.792 58.112l-232.448 134.656a70.144 70.144 0 0 1-33.792 9.728 65.792 65.792 0 0 1-33.792-8.448l-233.728-135.936a67.584 67.584 0 0 1-33.792-58.112v-65.28a51.2 51.2 0 0 1 16.64-97.536zM547.328 183.296l233.728 134.4a68.096 68.096 0 0 1 33.792 58.112V435.2a51.2 51.2 0 1 1-37.376 0v-58.112a30.208 30.208 0 0 0-15.872-25.6l-232.448-135.68a29.184 29.184 0 0 0-31.488 0l-233.472 134.4a31.488 31.488 0 0 0-15.616 25.6v46.08a18.176 18.176 0 0 1-36.352 0v-46.08a68.096 68.096 0 0 1 33.792-58.112l233.728-134.4a66.56 66.56 0 0 1 67.584 0z" fill="#FFFFFF" p-id="107823"></path><path d="M466.432 420.096a129.792 129.792 0 0 1-3.584 19.456l-25.6 76.8h59.392l-25.6-76.8a185.6 185.6 0 0 1-4.608-19.456z" fill="#FFFFFF" p-id="107824"></path><path d="M726.528 414.976a51.2 51.2 0 0 0-24.064-41.216L537.6 277.76a51.2 51.2 0 0 0-47.616 0l-168.448 96a48.896 48.896 0 0 0-23.296 41.984v193.792a51.2 51.2 0 0 0 24.064 41.472l166.144 94.72a51.2 51.2 0 0 0 47.616 0l166.144-96a46.336 46.336 0 0 0 23.296-41.984v-192.768z m-204.8 191.488l-16.896-51.2h-80.64l-16.896 51.2h-51.2L435.2 382.208h55.808l82.176 224.256z m128-1.28h-46.336v-224h47.104z" fill="#FFFFFF" p-id="107825"></path></svg>