<?xml version="1.0" standalone="no"?><!DOCTYPE svg PUBLIC "-//W3C//DTD SVG 1.1//EN" "http://www.w3.org/Graphics/SVG/1.1/DTD/svg11.dtd"><svg t="1728962223547" class="icon" viewBox="0 0 1024 1024" version="1.1" xmlns="http://www.w3.org/2000/svg" p-id="1512" xmlns:xlink="http://www.w3.org/1999/xlink" width="200" height="200"><path d="M163.84 382.8992a54.8864 54.8864 0 0 0-51.2 0 51.4048 51.4048 0 0 0-27.392 45.0304v330.496a50.9952 50.9952 0 0 0 29.696 46.848l290.304 128a53.4528 53.4528 0 0 0 25.088 5.376 60.3392 60.3392 0 0 0 25.6-7.424 53.0176 53.0176 0 0 0 27.136-45.056V555.7504a53.76 53.76 0 0 0-29.44-44.8zM859.6736 230.8608l-307.2-136.96a103.8592 103.8592 0 0 0-82.944 0l-305.408 136.96a53.9648 53.9648 0 0 0-27.136 25.6 51.0464 51.0464 0 0 0 27.136 67.072l321.536 143.36a59.1616 59.1616 0 0 0 25.6 6.4 64 64 0 0 0 25.6-6.4l321.536-143.36a50.5344 50.5344 0 0 0 26.88-25.6 49.024 49.024 0 0 0 1.536-38.912 49.7152 49.7152 0 0 0-27.136-28.16z" fill="#3860F8" p-id="1513"></path><path d="M592.64 938.6496a51.2 51.2 0 0 1-51.2-51.2V558.1824a51.2 51.2 0 0 1 28.416-44.8l291.84-130.048a52.1472 52.1472 0 0 1 49.152 0 51.0208 51.0208 0 0 1 27.136 44.8v329.984a51.5072 51.5072 0 0 1-28.416 46.8736l-291.584 128a52.8128 52.8128 0 0 1-23.552 5.632z m62.208-203.904l-29.184 41.1904 25.6 11.52-25.6 36.608 37.12 16.896 25.6-36.608 25.6 11.52 29.184-41.728-25.6-11.264 25.6-36.608-37.1456-16.896-25.6 36.608-25.6-11.264z m211.2-36.096L768 748.032v47.3344l98.048-49.152v-47.616z m0-61.696L768 686.6176v47.616l98.048-49.664v-47.616z m-211.2 17.664v34.56l44.8-21.504v-34.048l35.84-17.664v-46.7712l-35.84 17.664V552.704l-44.8256 22.272v33.536l-36.0704 17.664v46.08l36.0448-17.664z m211.2-147.456L768 556.5696v47.36l98.048-49.152V507.136z" fill="#3860F8" p-id="1514"></path></svg>