<?xml version="1.0" standalone="no"?><!DOCTYPE svg PUBLIC "-//W3C//DTD SVG 1.1//EN" "http://www.w3.org/Graphics/SVG/1.1/DTD/svg11.dtd"><svg t="1760694093802" class="icon" viewBox="0 0 1024 1024" version="1.1" xmlns="http://www.w3.org/2000/svg" p-id="107477" xmlns:xlink="http://www.w3.org/1999/xlink" width="200" height="200"><path d="M904.6 404l-0.6-0.7C882.3 213.5 721.2 66 525.6 65.8c-210.3 0.3-380.6 170.7-381 381-0.1 1.5-0.1 3.1 0 4.6C118.1 478.7 62 541 62 584.9c0 48.5 45.9 67.2 78.6 68.3l37.3 8.4 7.1 183.3c0.4 37.8 31.2 68.1 69 67.9l84.3-20.4s273 3.7 435.2-122.4c1.3-0.3 2.4-0.4 3.7-0.7 0 0 7.7-6.4 19.4-18.9 40.5-37.5 71.8-84.8 85.9-144.7 0-0.1 0-0.2 0.1-0.3 18.8-54.2 30.3-121.4 22-201.4z" fill="#D6F3FA" p-id="107478"></path><path d="M835.3 806.8c-0.5 0.6-0.9 1.2-1.4 1.7l-14.3 14.3c-10.9 10.9-28.7 10.9-39.6 0-10.9-10.9-10.9-28.7 0-39.6l9.2-9.2c94.7-101.6 117-204.8 113.5-286.3v-1c-2.5-55-16.7-100-28-127.8-50.8-114.2-165.1-194-298.2-194-178.7 0-323.7 143.7-326.2 321.8L250 508h-0.1c0 7.1-2.7 14.1-8 19.3-39.4 38.6-74 86.3-74 102.1 0 3.1 0 6.4 8.8 9.9 0.1 0 0.2 0 0.2 0.1l59.3 13.2 45.8 9.2 8.8 226.8c0 7.6 6.2 13.8 13.9 13.9l139.8-33.8c10.1-0.6 19.7 4.5 24.9 13.1 5.2 8.7 5.2 19.5 0 28.2s-14.8 13.7-24.9 13.1L304.8 957c-37.8 0.2-68.6-30.2-69-67.9l-7-181.7-49.2-11.2c-30.9-4.7-66.7-24.3-66.7-67.2 0-43.8 56.1-106.2 82.6-133.5-0.1-1.5-0.1-3.1 0-4.6 0.3-210.3 170.7-380.6 381-381 195.6 0.2 356.7 147.7 378.4 337.5l0.6 0.7c21.3 208.2-90.1 329.9-120.2 358.7z m-145.5-368c32.7 0 59.2-26.5 59.2-59.2s-26.5-59.2-59.2-59.2-59.2 26.5-59.2 59.2c0 6.8 1.4 13.1 3.5 19.2l-39.3 22.7c-0.3-0.2-0.7-0.3-0.9-0.6-16.9-22.6-43.6-35.8-71.9-35.7-41.5-0.1-77.8 27.6-88.8 67.6-11 40 6.2 82.4 41.8 103.5 35.4 21 80.4 15.8 110.2-12.5l91 52.5c-0.2 0.9-0.4 1.8-0.4 2.8-0.4 13.6 8.7 25.6 21.8 29.1 13.1 3.5 27-2.6 33.3-14.6 6.4-12 3.7-26.8-6.6-35.8-9.7-8.5-23.7-9.3-34.6-2.6l-87.3-50.4c8.4-13.9 13-29.9 13.1-46.1 0.1-12.1-2.5-24.1-7.4-35.2-0.1-0.2 0-0.5-0.1-0.8l38.9-22.5c10.9 11.4 26.1 18.6 42.9 18.6z" fill="#18BAE5" p-id="107479"></path></svg>