<?xml version="1.0" standalone="no"?><!DOCTYPE svg PUBLIC "-//W3C//DTD SVG 1.1//EN" "http://www.w3.org/Graphics/SVG/1.1/DTD/svg11.dtd"><svg t="1731752444567" class="icon" viewBox="0 0 1024 1024" version="1.1" xmlns="http://www.w3.org/2000/svg" p-id="7897" xmlns:xlink="http://www.w3.org/1999/xlink" width="200" height="200"><path d="M909.856914 385.106286l-478.500571 478.429257c-67.5712 67.536457-177.499429 67.5712-245.070629 0-67.5712-67.607771-67.5712-177.570743 0-245.1072l123.642514-123.679086 0 0.036571L664.714971 139.999086c40.356571-40.285257 105.857829-40.321829 146.143086-0.036571s40.285257 105.892571 0 146.177829l-24.643657 24.6784-0.071314 0L406.6432 690.357029c-12.999314 12.999314-34.143086 13.035886-47.213714 0.036571-12.999314-13.070629-12.999314-34.249143 0-47.250286l305.285486-305.322057-51.713829-51.713829L307.713829 591.429486c-41.499429 41.464686-41.499429 109.035886 0 150.6432 20.072229 20.106971 46.857143 31.213714 75.357257 31.213714 28.4288 0 55.213714-11.106743 75.285943-31.213714l49.428114-49.428114 0 0 354.784914-354.784914c68.856686-68.821943 68.856686-180.785371 0-249.607314-68.714057-68.785371-180.714057-68.785371-249.570743 0l-49.499429 49.464686 0 0L134.571886 566.714514c-96.142629 96.036571-96.142629 252.392229 0 348.534857 48 48.036571 111.1424 72.071314 174.213486 72.071314 63.1424 0 126.213486-24.036571 174.2848-72.071314l478.500571-478.429257L909.856914 385.106286z" fill="#F69661" p-id="7898"></path></svg>