<?xml version="1.0" standalone="no"?><!DOCTYPE svg PUBLIC "-//W3C//DTD SVG 1.1//EN" "http://www.w3.org/Graphics/SVG/1.1/DTD/svg11.dtd"><svg t="1711733674382" class="icon" viewBox="0 0 1024 1024" version="1.1" xmlns="http://www.w3.org/2000/svg" p-id="2810" xmlns:xlink="http://www.w3.org/1999/xlink" width="200" height="200"><path d="M879.168 625.6L1024 695.744 509.12 960 0 695.744 133.952 631.04l58.496 38.208L128 700.672 512.896 896 896 700.672l-76.16-37.76 59.328-37.312z m0-192L1024 503.744 509.12 768 0 503.744 133.952 439.04l58.496 38.208L128 508.672 512.896 704 896 508.672l-76.16-37.76 59.328-37.312zM512.448 64L1024 311.744 509.12 576 0 311.744 512.448 64z m2.88 64L128 316.672 512.896 512 896 316.672 515.328 128z" fill="#000000" p-id="2811"></path></svg>