<?xml version="1.0" standalone="no"?><!DOCTYPE svg PUBLIC "-//W3C//DTD SVG 1.1//EN" "http://www.w3.org/Graphics/SVG/1.1/DTD/svg11.dtd"><svg t="1711733698774" class="icon" viewBox="0 0 1034 1024" version="1.1" xmlns="http://www.w3.org/2000/svg" p-id="1588" xmlns:xlink="http://www.w3.org/1999/xlink" width="201.953125" height="200"><path d="M491.313131 884.792889v-355.555556c0-8.616081 4.30804-15.080727 12.929293-19.393939l303.838384-148.686869v12.929293c0 23.707152 19.393939 43.101091 43.095919 43.101091 23.707152 0 43.101091-19.393939 43.101091-43.101091V279.272727c0-15.085899-8.621253-30.166626-21.550545-36.631272L467.611152 7.757576c-12.929293-8.621253-30.171798-8.621253-43.101091 0L21.550545 242.641455C8.621253 251.257535 0 264.186828 0 279.272727v465.454546c0 15.085899 8.621253 30.166626 21.550545 36.631272l402.959516 232.727273c12.929293 8.621253 30.171798 8.621253 43.101091 0L575.353535 951.59596c21.550545-12.929293 28.015192-38.787879 15.085899-58.181819-12.929293-21.550545-38.787879-28.015192-58.181818-15.085899l-25.858586 15.085899c-6.464646 4.30804-15.085899 0-15.085899-8.621252z m-34.479838-782.222222l277.979798 161.616161c15.085899 8.621253 15.085899 30.171798-2.151434 38.787879L456.833293 436.580848c-6.464646 2.151434-12.929293 2.151434-19.393939 0L168.080808 294.358626c-15.085899-8.621253-15.085899-30.171798 0-38.787879l267.207111-153.00008a19.574949 19.574949 0 0 1 21.545374 0zM118.520242 365.469737l275.823192 142.222223c6.464646 4.30804 10.772687 10.772687 10.772687 19.393939v340.469657c0 17.237333-17.237333 28.015192-32.323232 19.393939L96.969697 727.489939c-6.464646-4.313212-10.772687-12.929293-10.772687-19.393939v-323.232323c0-17.242505 17.237333-28.015192 32.323232-19.39394z m872.727273 316.767677h-96.969697v-96.969697c0-23.707152-19.393939-43.101091-43.101091-43.101091-23.70198 0-43.095919 19.393939-43.095919 43.101091v96.969697H711.111111c-23.70198 0-43.095919 19.393939-43.095919 43.095919s19.393939 43.095919 43.095919 43.09592h96.969697v96.969696c0 23.707152 19.393939 43.101091 43.095919 43.101091 23.707152 0 43.101091-19.393939 43.101091-43.101091v-96.969696h96.969697c23.70198 0 43.095919-19.393939 43.095919-43.09592s-19.393939-43.095919-43.095919-43.095919z" fill="#219AFD" p-id="1589"></path></svg>