<?xml version="1.0" standalone="no"?><!DOCTYPE svg PUBLIC "-//W3C//DTD SVG 1.1//EN" "http://www.w3.org/Graphics/SVG/1.1/DTD/svg11.dtd"><svg t="1711736550738" class="icon" viewBox="0 0 1024 1024" version="1.1" xmlns="http://www.w3.org/2000/svg" p-id="34688" xmlns:xlink="http://www.w3.org/1999/xlink" width="200" height="200"><path d="M560.1 250.4c-5.1 0-8.9 1.9-11.5 5.6-2.6 3.7-3.8 8.9-3.8 15.3 0 6.5 1.3 11.5 3.8 15.1s6.4 5.4 11.5 5.4c4.1 0 7.6-1.8 10.5-5.4s4.4-8.6 4.4-15.1-1.5-11.6-4.3-15.3c-2.9-3.8-6.5-5.6-10.6-5.6zM623.5 274.4c-5.1 0.7-8.4 1.9-10 3.6-1.5 1.7-2.3 3.9-2.3 6.1 0 2 0.8 4 2.3 5.4 1.5 1.5 3.8 2.3 6.9 2.3 3.5-0.1 6.9-1 10-2.6 3.6-1.7 6.6-4.6 8.4-8.2v-10.2c-2 0.7-4 1.3-5.9 1.8-3 0.8-6.2 1.4-9.4 1.8z" fill="#282727" p-id="34689"></path><path d="M875.5 174.3H148.6c-46 0-83.3 37.3-83.3 83.3v501.2c0 46 37.3 83.3 83.3 83.3h726.9c46 0 83.3-37.3 83.3-83.3V257.5c0-45.9-37.3-83.2-83.3-83.2z m-404.8 68.4h10.2v10.7c2.4-3.4 5.4-6.4 9-8.7 3.2-2 7.4-3.1 12.5-3.1 6.1 0 10.7 1.7 13.8 5.1 3.1 3.5 4.8 8.1 4.6 12.8V300h-10.2v-36.8c0-4.1-1-7.3-3.1-9.7-2-2.4-5-3.7-8.2-3.6-4.4 0-8.6 2.3-12.5 6.9-3.9 4.6-5.9 10.3-5.9 17.1V300h-10.2v-57.3z m-86.2 51.4c-4.9 4.6-11.7 6.9-20.2 6.9s-15.2-2.4-19.9-7.2c-4.8-4.7-7.3-11.2-7.2-17.9v-3.6H349v3.1c0 5.1 1.5 9 4.6 11.8 2.9 2.7 6.8 4.1 10.7 4.1 5.4 0 9.4-1.4 12-4.4 2.6-2.9 3.9-6.6 3.8-10.5 0-3.4-1.5-6.6-4.6-9.5-3.1-2.9-7.5-5.5-13.3-7.9-8.2-3.1-14.1-6.5-17.6-10.2-3.5-3.5-5.4-8.3-5.4-13.3 0-7.2 2.5-13 7.4-17.4 4.8-4.4 11.1-6.8 17.6-6.6 8.9 0 15.3 2.6 19.2 7.9 3.8 4.9 5.9 10.9 5.9 17.1h-11.7c0.4-3.7-0.7-7.4-3.1-10.2-2.4-3.1-5.8-4.6-10.2-4.6-4.1 0-7.3 1.1-9.7 3.3-2.4 2.3-3.8 5.6-3.6 8.9-0.1 2.9 0.9 5.7 2.8 7.9s6.7 4.9 14.6 7.9c7.5 3.1 13.3 6.7 17.4 11 3.9 3.8 6.1 9.1 6.1 14.6 0 8-2.4 14.2-7.4 18.8z m25.3 1.8c-3.1-3.5-4.8-8.1-4.6-12.8v-40.4h10.2v36.8c0 4.1 1 7.3 3.1 9.7 2 2.4 5 3.7 8.2 3.6 4.4 0 8.6-2.3 12.5-6.9 3.9-4.6 5.9-10.3 5.9-17.1v-26.1h10.2V300h-10.2v-10.8c-2.4 3.4-5.4 6.4-9 8.7-3.2 2.1-7.4 3.1-12.5 3.1-6.1 0-10.7-1.7-13.8-5.1z m171.4 381c-2.6 19.9-11.5 36-26.8 48.3-15.3 12.3-32.7 18.1-52.1 17.6s-36.3-6.6-50.6-18.4-23.5-28.9-27.6-51.3l27.6-4.6c4.1 13.3 10.7 24.3 19.9 33s20.7 12.8 34.5 12.3 24.8-6.1 33-16.9c8.1-10.5 11.9-23.7 10.7-36.9-1-13.8-6.4-24.5-16.1-32.2-9.7-7.7-25.3-13-46.8-16.1v-19.9c21.5-2 37.1-7.7 46.8-16.9s14-21.2 13-36-7.7-25.5-19.9-32.2c-12.3-6.7-25.3-7.4-39.1-2.3-13.8 5.1-24.8 19.4-33 42.9l-27.6-4.6c6.1-18.4 14.6-33.7 25.3-46s25.3-19.4 43.7-21.5c18.4-2 34.5 0.3 48.3 6.9s23.5 16.9 29.1 30.7c5.6 13.8 6.4 28.9 2.3 45.3-4.1 16.4-15.8 30.7-35.2 42.9 14.3 6.1 25.3 15.3 33 27.6 7.7 12.3 10.2 28.4 7.6 48.3z m4-377H575v-7.6c-1.8 2.8-4.2 5.1-7.2 6.6-3 1.4-6.4 2.1-9.7 2-6.6 0.1-12.9-2.6-17.4-7.4-4.8-4.9-7.2-12.4-7.2-22.2 0-9.9 2.4-17.4 7.2-22.5 4.4-5 10.7-7.8 17.4-7.7 3.4-0.1 6.7 0.7 9.7 2.3 2.9 1.7 5.4 4.1 7.2 6.9v-37.8h10.2v87.4z m55.7 0c-0.7-0.8-1.3-1.8-1.5-2.8-0.4-1.4-0.5-2.9-0.5-4.4-2.4 2.7-5.3 4.8-8.7 6.1-3.4 1.4-7.1 2-10.7 2-4.9 0.2-9.8-1.3-13.8-4.1-3.8-2.7-5.7-6.6-5.7-11.7s1.7-9.2 5.1-12.3c3.4-3.1 8.7-5.1 15.8-6.1 4.2-0.6 8.4-1.4 12.5-2.6 3.6-1 5.4-2.4 5.4-4.1-0.1-2.2-0.9-4.4-2.3-6.1-1.5-2-4.9-3.1-10-3.1-4.1 0-7.1 0.8-9 2.3-1.9 1.6-3.3 3.9-3.8 6.4h-11.2c0.5-5.2 3.2-9.9 7.4-13 4.3-3.2 9.8-4.9 16.6-4.9 7.5 0 13.1 1.7 16.9 5.1s5.6 8.2 5.6 14.3V289c0 1.9 0.3 3.8 1 5.6 0.8 1.8 1.8 3.6 3.1 5.1l-12.2 0.2z m54.7 4.6c-1.3 4.8-3.4 8.3-6.1 10.7-2.8 2.4-6.5 3.7-10.2 3.6-1.6 0-3.2-0.1-4.9-0.3-1.5-0.2-3-0.6-4.3-1.3V307c1.3 0.7 2.7 1.2 4.1 1.5 1.2 0.3 2.4 0.5 3.6 0.5 2.7 0 4.6-0.4 5.6-1.3s2-2.8 3.1-5.9L664 242.5h11.3l16.4 45h0.5l15.8-45h11.3l-23.7 62z" fill="#282727" p-id="34690"></path><path d="M99.1 358.8H925c6.1 0 11.1 5 11.1 11.1v0.5c0 6.1-5 11.1-11.1 11.1H99.1c-6.1 0-11.1-5-11.1-11.1v-0.5c0-6.1 4.9-11.1 11.1-11.1zM185.1 144.5h22.7V204h-22.7zM816.3 144.5H839V204h-22.7z" fill="#E02727" p-id="34691"></path></svg>