<?xml version="1.0" standalone="no"?><!DOCTYPE svg PUBLIC "-//W3C//DTD SVG 1.1//EN" "http://www.w3.org/Graphics/SVG/1.1/DTD/svg11.dtd"><svg t="1760694105634" class="icon" viewBox="0 0 1024 1024" version="1.1" xmlns="http://www.w3.org/2000/svg" p-id="108162" xmlns:xlink="http://www.w3.org/1999/xlink" width="200" height="200"><path d="M513.82784 415.01184l123.45856-49.78688 15.31904 37.9904-123.45856 49.78688zM509.1328 504.40704l19.85536-35.82976 138.38848 76.68736-19.85536 35.82464z" fill="#333333" p-id="108163"></path><path d="M688.64 424.96c-35.328 0-64-28.672-64-64S653.312 296.96 688.64 296.96 752.64 325.632 752.64 360.96 723.968 424.96 688.64 424.96z m0-87.04c-12.8 0-23.04 10.24-23.04 23.04s10.24 23.04 23.04 23.04 23.04-10.24 23.04-23.04-10.24-23.04-23.04-23.04zM473.6 532.48c-40.96 0-74.24-33.28-74.24-74.24S432.64 384 473.6 384 547.84 417.28 547.84 458.24 514.56 532.48 473.6 532.48z m0-107.52c-18.432 0-33.28 14.848-33.28 33.28s14.848 33.28 33.28 33.28 33.28-14.848 33.28-33.28-14.848-33.28-33.28-33.28zM688.64 637.44c-31.232 0-56.32-25.088-56.32-56.32s25.088-56.32 56.32-56.32 56.32 25.088 56.32 56.32-25.088 56.32-56.32 56.32z m0-71.68c-8.704 0-15.36 6.656-15.36 15.36s6.656 15.36 15.36 15.36 15.36-6.656 15.36-15.36-6.656-15.36-15.36-15.36z" fill="#EB4446" p-id="108164"></path><path d="M251.904 941.568c-9.216 0-17.92-3.072-25.6-8.704-10.24-8.192-16.384-19.968-16.384-33.28V665.6l-104.448-38.912c-13.312-4.608-23.552-15.872-26.624-30.208-3.072-14.336 1.024-28.672 11.264-38.912L207.36 440.32c2.048-95.744 40.96-185.344 109.568-253.44 70.656-69.12 163.84-106.496 263.168-105.472 94.208 1.536 183.808 38.912 251.392 105.472 68.096 66.56 107.008 155.648 110.08 249.856 3.072 102.912-34.816 199.168-107.52 271.872l-14.336 14.336-29.184-29.184 14.336-14.336c64.512-64.512 98.304-150.528 95.232-241.664-5.632-171.52-149.504-313.344-321.536-315.904-87.04-0.512-170.496 32.768-232.96 94.72-62.976 61.952-97.28 144.384-97.28 232.448v8.704l-129.024 129.024s-0.512 0.512-0.512 1.024 0.512 0.512 0.512 0.512l131.584 48.64v262.656s0 0.512 0.512 1.024 0.512 0 1.024 0l237.568-61.44 10.24 39.424-237.568 61.44c-3.584 1.024-7.168 1.536-10.752 1.536z" fill="#333333" p-id="108165"></path><path d="M629.76 686.08H230.4V419.84c0-33.792 27.648-61.44 61.44-61.44h399.36v266.24c0 33.792-27.648 61.44-61.44 61.44z" fill="#333333" opacity=".18" p-id="108166"></path></svg>