<?xml version="1.0" standalone="no"?><!DOCTYPE svg PUBLIC "-//W3C//DTD SVG 1.1//EN" "http://www.w3.org/Graphics/SVG/1.1/DTD/svg11.dtd"><svg t="1760693561068" class="icon" viewBox="0 0 1024 1024" version="1.1" xmlns="http://www.w3.org/2000/svg" p-id="44992" xmlns:xlink="http://www.w3.org/1999/xlink" width="200" height="200"><path d="M0 0h1024v1024H0z" fill="#FFFFFF" p-id="44993"></path><path d="M878 984H146c-44.112 0-80-35.888-80-80V120c0-44.112 35.888-80 80-80h732c44.112 0 80 35.888 80 80v784c0 44.112-35.888 80-80 80z" fill="#D8DDE3" p-id="44994"></path><path d="M146 80c-22.056 0-40 17.944-40 40v784c0 22.056 17.944 40 40 40h732c22.056 0 40-17.944 40-40V120c0-22.056-17.944-40-40-40H146m0-80h732c66.274 0 120 53.726 120 120v784c0 66.274-53.726 120-120 120H146c-66.274 0-120-53.726-120-120V120C26 53.726 79.726 0 146 0z" fill="#505873" p-id="44995"></path><path d="M192 392h80a20 20 0 0 1 20 20v80a20 20 0 0 1-20 20H192a20 20 0 0 1-20-20v-80a20 20 0 0 1 20-20z" fill="#FF402A" p-id="44996"></path><path d="M958 284H66V120c0-44.112 35.888-80 80-80h732c44.112 0 80 35.888 80 80v164z" fill="#FFFFFF" p-id="44997"></path><path d="M146 80c-22.056 0-40 17.944-40 40v124h812V120c0-22.056-17.944-40-40-40H146m0-80h732c66.274 0 120 53.726 120 120v204H26V120C26 53.726 79.726 0 146 0z" fill="#505873" p-id="44998"></path></svg>