<?xml version="1.0" standalone="no"?><!DOCTYPE svg PUBLIC "-//W3C//DTD SVG 1.1//EN" "http://www.w3.org/Graphics/SVG/1.1/DTD/svg11.dtd"><svg t="1760693573233" class="icon" viewBox="0 0 1024 1024" version="1.1" xmlns="http://www.w3.org/2000/svg" p-id="46176" xmlns:xlink="http://www.w3.org/1999/xlink" width="200" height="200"><path d="M64 512a448 448 0 1 0 896 0A448 448 0 0 0 64 512z" fill="#DEE9FF" p-id="46177"></path><path d="M719.36 224c22.336-0.128 43.776 8.448 59.52 23.872 15.808 15.36 24.576 36.352 24.32 58.048v412.16a80 80 0 0 1-24.32 58.048c-15.744 15.36-37.184 24-59.52 23.872H354.304a84.608 84.608 0 0 1-59.584-23.872 80 80 0 0 1-24.32-58.048v-74.752h-29.568c-17.28 0-29.632-12.032-29.632-28.928 0-16.832 12.352-28.928 29.632-28.928h27.072V438.464h-27.072c-17.28 0-29.632-12.032-29.632-28.928 0-16.832 12.352-28.864 29.632-28.864h27.072V305.92a80 80 0 0 1 24.32-58.048c15.744-15.424 37.248-24 59.584-23.872h367.552z m-56.32 423.872H351.36a12.352 12.352 0 0 0-12.416 12.16c0 6.016 6.208 12.096 12.48 12.096h311.616c6.208 0 12.416-6.08 12.416-12.16 0-7.232-4.992-12.16-12.416-12.16z m8.704-299.52c-18.688-1.28-100.992 26.688-159.552 83.648-66.048 63.04-128.384 191.616-107.2 195.2 8.768 1.856 19.008-11.2 30.08-27.392l9.6-14.4c8.256-12.224 16.64-24.32 25.152-32.128a20.352 20.352 0 0 1 13.696-6.08c24.96-3.648 97.28-10.88 97.28-32.768 3.712-15.744-28.736-18.176-43.648-18.176 17.408-14.528 90.944-13.312 99.712-42.432 4.992-16.96-33.664-24.256-42.368-23.04 66.048-14.528 90.88-81.28 77.248-82.432z m-8.704 247.36H538.368a12.352 12.352 0 0 0-12.48 12.16c0 6.016 6.272 12.096 12.48 12.096h124.672a12.352 12.352 0 0 0 12.416-12.16c0-7.232-4.992-12.096-12.416-12.096z" fill="#3D7EFF" p-id="46178"></path><path d="M719.36 224c22.336-0.128 43.776 8.448 59.52 23.872 15.808 15.36 24.576 36.352 24.32 58.048v146.112a480.768 480.768 0 0 1-134.784 196.928 12.48 12.48 0 0 0-5.376-1.088H351.36a12.352 12.352 0 0 0-12.416 12.16c0 4.992 4.352 10.048 9.408 11.584l3.072 0.512h288.448A477.888 477.888 0 0 1 352 768c-23.04 0-45.76-1.6-67.968-4.8a79.04 79.04 0 0 1-13.632-45.12v-74.752h-29.568c-17.28 0-29.632-12.032-29.632-28.928 0-16.832 12.352-28.928 29.632-28.928h27.072V438.464h-27.072c-17.28 0-29.632-12.032-29.632-28.928 0-16.832 12.352-28.864 29.632-28.864h27.072V305.92a80 80 0 0 1 24.32-58.048c15.744-15.424 37.248-24 59.584-23.872h367.552z m-47.616 124.352c-18.688-1.28-100.992 26.688-159.552 83.648-66.048 63.04-128.384 191.616-107.2 195.2 8.768 1.856 19.008-11.2 30.08-27.392l9.6-14.4c8.256-12.224 16.64-24.32 25.152-32.128a20.352 20.352 0 0 1 13.696-6.08c24.96-3.648 97.28-10.88 97.28-32.768 3.712-15.744-28.736-18.176-43.648-18.176 17.408-14.528 90.944-13.312 99.712-42.432 4.992-16.96-33.664-24.256-42.368-23.04 66.048-14.528 90.88-81.28 77.248-82.432z m-8.704 247.36H538.368a12.352 12.352 0 0 0-12.48 12.16c0 4.992 4.352 10.048 9.408 11.584l3.072 0.512h124.672a12.352 12.352 0 0 0 12.416-12.16c0-7.232-4.992-12.096-12.416-12.096z" fill="#5A91FD" p-id="46179"></path><path d="M699.776 224a476.672 476.672 0 0 1-34.304 124.672c-26.24 3.392-99.648 31.168-153.28 83.328C462.08 479.872 414.08 565.44 403.2 605.44A478.912 478.912 0 0 1 224 640l2.368 0.064a27.84 27.84 0 0 1-15.168-25.6c0-16.896 12.352-28.992 29.632-28.992h27.072V438.464h-27.072c-17.28 0-29.632-12.032-29.632-28.928 0-16.832 12.352-28.864 29.632-28.864h27.072V305.92a80 80 0 0 1 24.32-58.048c15.744-15.424 37.248-24 59.584-23.872zM513.28 542.976c-21.76 16.512-45.056 31.232-69.568 43.84l0.96-1.408c8.192-12.224 16.64-24.32 25.088-32.128a20.352 20.352 0 0 1 13.696-6.08c6.656-0.96 16.64-2.176 27.776-3.84z" fill="#8AB0FC" p-id="46180"></path><path d="M566.144 224a480.512 480.512 0 0 1-310.848 214.528h-14.464c-17.28 0-29.632-12.096-29.632-28.992 0-16.832 12.352-28.864 29.632-28.864h27.072V305.92a80 80 0 0 1 24.32-58.048c15.744-15.424 37.248-24 59.584-23.872z" fill="#A8C5FF" p-id="46181"></path></svg>