<?xml version="1.0" standalone="no"?><!DOCTYPE svg PUBLIC "-//W3C//DTD SVG 1.1//EN" "http://www.w3.org/Graphics/SVG/1.1/DTD/svg11.dtd"><svg t="1760693556455" class="icon" viewBox="0 0 1024 1024" version="1.1" xmlns="http://www.w3.org/2000/svg" p-id="44827" xmlns:xlink="http://www.w3.org/1999/xlink" width="200" height="200"><path d="M672 672m-240 0a240 240 0 1 0 480 0 240 240 0 1 0-480 0Z" fill="#E6F1FD" p-id="44828"></path><path d="M804.2 145.5H754v-26c0-22-18-40-40-40s-40 18-40 40v26H350v-26c0-22-18-40-40-40s-40 18-40 40v26h-50.2C152.7 145.5 96 202.2 96 269.3v551.4c0 67.1 56.7 123.8 123.8 123.8h584.4c67.1 0 123.8-56.7 123.8-123.8V269.3c0-67.1-56.7-123.8-123.8-123.8z m43.6 683.2c0 18-17.7 35.6-35.6 35.6H211.8c-18 0-35.6-17.6-35.6-35.6V261.3c0-18 17.6-35.6 35.6-35.6H270v29.8c0 22 18 40 40 40s40-18 40-40v-29.8h324v29.8c0 22 18 40 40 40s40-18 40-40v-29.8h58.2c18 0 35.6 17.7 35.6 35.6v567.4z" fill="#53A4FC" p-id="44829"></path><path d="M601.3 684.8h-50.7V434.1c0-25.1-13.5-40.1-36.1-40.1-13.3 0-21.4 3.7-30.8 8.1-11.6 5.3-26.1 12-57.3 15-25.4 2.4-38.2 13-38.2 31.6s15.5 30.6 39.6 30.6c12.6 0 23.8-2.6 34.8-5.1 4.1-0.9 8-1.9 11.9-2.6V685h-49.1c-21.3 0-35.1 12.8-35.1 32.6s13.8 32.6 35.1 32.6h176c21.3 0 34.6-12.5 34.6-32.6s-13.4-32.8-34.7-32.8z" fill="#53A4FC" p-id="44830"></path></svg>