<?xml version="1.0" standalone="no"?><!DOCTYPE svg PUBLIC "-//W3C//DTD SVG 1.1//EN" "http://www.w3.org/Graphics/SVG/1.1/DTD/svg11.dtd"><svg t="1760693550675" class="icon" viewBox="0 0 1024 1024" version="1.1" xmlns="http://www.w3.org/2000/svg" p-id="44499" xmlns:xlink="http://www.w3.org/1999/xlink" width="200" height="200"><path d="M438.4 134.8h167.2v70H438.4z" p-id="44500"></path><path d="M898.1 134.8h-67.2v70h57.9V891H136.7V204.8h76.5v-70h-85.7c-33.5 0-60.7 27.3-60.7 60.8v704.8c0 33.5 27.2 60.7 60.7 60.7h770.7c33.5 0 60.7-27.3 60.7-60.7V195.5c-0.1-33.5-27.3-60.7-60.8-60.7z" p-id="44501"></path><path d="M325.8 255.7c19.3 0 35-15.7 35-35v-94.9c0-19.3-15.7-35-35-35s-35 15.7-35 35v94.9c0 19.3 15.6 35 35 35zM718.3 255.7c19.3 0 35-15.7 35-35v-94.9c0-19.3-15.7-35-35-35s-35 15.7-35 35v94.9c0 19.3 15.7 35 35 35zM693.6 320.4H322.8l0.2 13.2c1.4 74.5 2.1 155.1 2.1 239.7 0 84.8-0.7 160.5-2.1 225.1l-0.3 13.3H395v-62.6h224.4v52.2h74.3l-0.3-13.3c-1.4-67.2-2.1-143.6-2.1-227.2 0-83.5 0.7-160 2.1-227.2l0.2-13.2z m-74.2 367.3H395V565.5h224.4v122.2z m0-183.6H395V384h224.4v120.1z" p-id="44502"></path></svg>