<?xml version="1.0" standalone="no"?><!DOCTYPE svg PUBLIC "-//W3C//DTD SVG 1.1//EN" "http://www.w3.org/Graphics/SVG/1.1/DTD/svg11.dtd"><svg t="1760693575929" class="icon" viewBox="0 0 1024 1024" version="1.1" xmlns="http://www.w3.org/2000/svg" p-id="46339" xmlns:xlink="http://www.w3.org/1999/xlink" width="200" height="200"><path d="M314.534986 274.312482c9.893237 0 19.386747-4.097199 26.381965-11.492144s10.992486-17.288182 10.992486-27.681078V39.173221c0-21.685176-16.688592-39.173221-37.374451-39.173221S277.160535 17.488045 277.160535 39.173221v195.966039c0 21.585244 16.788523 39.173221 37.374451 39.173222z" fill="#0078D7" p-id="46340"></path><path d="M386.885527 480.471553h255.525325v137.006343H386.885527zM386.885527 668.742852h255.525325v140.304089H386.885527z" fill="#0078D7" p-id="46341"></path><path d="M942.006051 183.474578H818.79028v53.463453c0 61.857714-50.165707 112.023421-112.023421 112.023421-61.857714 0-112.023421-50.165707-112.023422-112.023421v-53.463453H426.558407v53.463453c0 61.857714-50.165707 112.023421-112.023421 112.023421-61.857714 0-112.023421-50.165707-112.023422-112.023421v-53.463453H82.793403c-41.071923 0-74.748902 33.577047-74.748902 74.748902v691.027618c0 41.071923 33.577047 74.748902 74.748902 74.748902h859.112716c41.071923 0 74.748902-33.577047 74.748902-74.748902V258.123548c0-41.071923-33.577047-74.64897-74.64897-74.64897zM697.573143 895.387918h-55.162291v-33.876842H386.885527v35.975408h-52.963794V428.007417h363.551479v467.380501z" fill="#0078D7" p-id="46342"></path><path d="M706.367132 274.312482c9.893237 0 19.386747-4.097199 26.381965-11.492144s10.992486-17.288182 10.992486-27.681078V39.173221c0-21.685176-16.688592-39.173221-37.374451-39.173221S669.092612 17.488045 669.092612 39.173221v195.966039c0 21.585244 16.688592 39.173221 37.27452 39.173222z" fill="#0078D7" p-id="46343"></path></svg>