<?xml version="1.0" standalone="no"?><!DOCTYPE svg PUBLIC "-//W3C//DTD SVG 1.1//EN" "http://www.w3.org/Graphics/SVG/1.1/DTD/svg11.dtd"><svg t="1760693580054" class="icon" viewBox="0 0 1024 1024" version="1.1" xmlns="http://www.w3.org/2000/svg" p-id="46501" xmlns:xlink="http://www.w3.org/1999/xlink" width="200" height="200"><path d="M262.4 129.92v62.976H198.208a32.512 32.512 0 0 0-31.808 33.408v636.16c0 18.816 14.272 33.408 31.68 33.408h629.76a32.576 32.576 0 0 0 31.744-33.344v-636.16a32.384 32.384 0 0 0-31.36-33.344h-63.232l0.128-63.04h63.168c52.288 0 94.336 43.328 94.336 96.32v636.096c0 52.992-42.24 96.32-94.72 96.32h-629.76c-52.544 0-94.72-43.2-94.72-96.32v-636.16c0-53.056 42.048-96.32 94.72-96.32H262.4z m411.392 215.68v452.608h-48.64v-35.84H394.24v36.352H345.6V345.6h328.192z m-48.64 226.816H394.24v142.336h230.912V572.416z m0-179.712H394.24V524.8h230.912V392.704zM323.904 63.872a31.36 31.36 0 0 1 31.488 31.424v132.288a31.36 31.36 0 0 1-31.488 31.36 31.36 31.36 0 0 1-31.488-31.36V95.36c0-17.28 13.952-31.36 31.488-31.36zM702.08 64a31.36 31.36 0 0 1 31.488 31.36v132.16a31.36 31.36 0 0 1-31.552 31.296 31.36 31.36 0 0 1-31.488-31.36V95.36c0-17.28 14.016-31.296 31.488-31.296z m-63.168 65.984v63.04H387.008V129.92h251.968z" fill="#3296FA" p-id="46502"></path></svg>