<?xml version="1.0" standalone="no"?><!DOCTYPE svg PUBLIC "-//W3C//DTD SVG 1.1//EN" "http://www.w3.org/Graphics/SVG/1.1/DTD/svg11.dtd"><svg t="1760692100512" class="icon" viewBox="0 0 1024 1024" version="1.1" xmlns="http://www.w3.org/2000/svg" p-id="20782" xmlns:xlink="http://www.w3.org/1999/xlink" width="200" height="200"><path d="M99.08 832.347A125.093 125.093 0 0 0 224.34 957.473c34.518 0 66.725-13.048 89.45-35.74l228.287-228.254 61.209 61.143a90.31 90.31 0 0 0 23.453 87.568l88.724 88.659c35.444 35.18 92.16 35.543 127.042 0.694 34.915-34.85 34.552-91.5-0.726-126.91l-88.725-88.626a90.508 90.508 0 0 0-87.668-23.42l-61.208-60.977L643.55 592.3a256.132 256.132 0 0 0 241.367-64.677c44.89-43.966 69.632-99.757 73.001-157.465v-3.038c0-19.49-16.12-35.213-35.972-35.213-9.844 0-18.796 3.931-25.402 10.174l-10.537 10.372-36.17 35.378c-22.727 22.164-55.098 35.212-89.98 35.212-34.717 0-65.338-15.195-88.064-37.525-22.33-22.693-37.723-53.446-37.723-88.13 0-34.849 13.047-67.187 35.245-89.88l35.41-36.138 10.373-10.504c6.276-6.64 10.207-15.558 10.207-25.402 0-19.852-15.724-35.906-35.246-35.906h-3.039c-57.806 3.37-113.63 28.045-157.63 72.902-63.884 65.24-85.718 157.498-64.61 240.938l-39.507 39.473-165.161-165.128v-45.221L152.758 188.91 99.08 242.523l53.678 107.223h45.089l165.326 164.996-228.319 228.253c-22.726 22.66-35.774 54.866-35.774 89.352z m89.452-8.952a44.693 44.693 0 1 1 89.418 0.1 44.693 44.693 0 0 1-89.418-0.1z" fill="#1296db" p-id="20783"></path></svg>