<?xml version="1.0" standalone="no"?><!DOCTYPE svg PUBLIC "-//W3C//DTD SVG 1.1//EN" "http://www.w3.org/Graphics/SVG/1.1/DTD/svg11.dtd"><svg t="1711733364720" class="icon" viewBox="0 0 1024 1024" version="1.1" xmlns="http://www.w3.org/2000/svg" p-id="1659" xmlns:xlink="http://www.w3.org/1999/xlink" width="200" height="200"><path d="M928 320a32 32 0 0 0 32-32V160a96 96 0 0 0-96-96H704V32a32 32 0 0 0-64 0v32H384V32a32 32 0 0 0-64 0v32H160a96 96 0 0 0-96 96v768a96 96 0 0 0 96 96h704a96 96 0 0 0 96-96V480a32 32 0 0 0-64 0v448a32 32 0 0 1-32 32H160a32 32 0 0 1-32-32V160a32 32 0 0 1 32-32h160v32a32 32 0 0 0 64 0v-32h256v32a32 32 0 0 0 64 0v-32h160a32 32 0 0 1 32 32v128a32 32 0 0 0 32 32z" fill="#211B13" p-id="1660"></path><path d="M672 320H352a32 32 0 0 0 0 64h320a32 32 0 0 0 0-64z m32 224a32 32 0 0 0-32-32H352a32 32 0 0 0 0 64h320a32 32 0 0 0 32-32zM352 704a32 32 0 0 0 0 64h128a32 32 0 0 0 0-64z" fill="#FFB243" p-id="1661"></path></svg>