<?xml version="1.0" standalone="no"?><!DOCTYPE svg PUBLIC "-//W3C//DTD SVG 1.1//EN" "http://www.w3.org/Graphics/SVG/1.1/DTD/svg11.dtd"><svg t="1760694038162" class="icon" viewBox="0 0 1109 1024" version="1.1" xmlns="http://www.w3.org/2000/svg" p-id="98590" xmlns:xlink="http://www.w3.org/1999/xlink" width="216.6015625" height="200"><path d="M1008.298667 1024H100.906667C45.184 1024 0 978.133333 0 921.557333v-102.485333c0-56.576 45.184-102.442667 100.906667-102.442667V102.4C100.906667 45.866667 146.048 0 201.770667 0h705.792c55.722667 0 100.864 45.866667 100.864 102.442667v614.485333c55.722667 0 100.906667 45.866667 100.906666 102.442667v102.442666C1109.205333 978.261333 1064.021333 1024 1008.298667 1024zM907.562667 102.442667H201.770667v665.6h705.792v-665.6z m-554.666667 153.6h403.242667c27.861333 0 50.389333 22.912 50.389333 51.2a50.773333 50.773333 0 0 1-50.346667 51.157333H352.853333c-27.861333 0-50.346667-22.869333-50.346666-51.2 0-28.245333 22.485333-51.114667 50.346666-51.114667z m0 255.957333h403.242667c27.861333 0 50.389333 22.869333 50.389333 51.157333s-22.656 51.157333-50.346667 51.157334H352.853333c-27.861333 0-50.346667-22.869333-50.346666-51.2 0-28.117333 22.485333-51.114667 50.346666-51.114667z" fill="#409EFF" p-id="98591"></path></svg>