<?xml version="1.0" standalone="no"?><!DOCTYPE svg PUBLIC "-//W3C//DTD SVG 1.1//EN" "http://www.w3.org/Graphics/SVG/1.1/DTD/svg11.dtd"><svg t="1760694053525" class="icon" viewBox="0 0 1024 1024" version="1.1" xmlns="http://www.w3.org/2000/svg" p-id="100753" xmlns:xlink="http://www.w3.org/1999/xlink" width="200" height="200"><path d="M174.784 48.064h677.376v794.624H174.784z" fill="#D4F3FF" p-id="100754"></path><path d="M960 704h-64V96c0-52.928-43.072-96-96-96h-576C171.072 0 128 43.072 128 96V704H64a64 64 0 0 0-64 64v192a64 64 0 0 0 64 64h896a64 64 0 0 0 64-64v-192a64 64 0 0 0-64-64zM224 64h576c17.6 0 32 14.4 32 32V768H192V96c0-17.6 14.4-32 32-32z" fill="#0086EE" p-id="100755"></path><path d="M352 457.344h320a32 32 0 0 0 0-64h-320a32 32 0 1 0 0 64zM352 290.688h320a32 32 0 0 0 0-64h-320a32 32 0 0 0 0 64zM352 624h320a32 32 0 0 0 0-64h-320a32 32 0 0 0 0 64z" fill="#0086EE" p-id="100756"></path></svg>