<?xml version="1.0" standalone="no"?><!DOCTYPE svg PUBLIC "-//W3C//DTD SVG 1.1//EN" "http://www.w3.org/Graphics/SVG/1.1/DTD/svg11.dtd"><svg t="1760694050829" class="icon" viewBox="0 0 1024 1024" version="1.1" xmlns="http://www.w3.org/2000/svg" p-id="100590" xmlns:xlink="http://www.w3.org/1999/xlink" width="200" height="200"><path d="M0 0m256 0l512 0q256 0 256 256l0 512q0 256-256 256l-512 0q-256 0-256-256l0-512q0-256 256-256Z" fill="#005AE3" p-id="100591"></path><path d="M797.866667 0l12.8 29.866667A605.866667 605.866667 0 0 1 853.333333 256a605.866667 605.866667 0 0 1-42.666666 226.133333 588.8 588.8 0 0 1-132.266667 196.266667 588.8 588.8 0 0 1-196.266667 132.266667A605.866667 605.866667 0 0 1 256 853.333333a605.866667 605.866667 0 0 1-226.133333-42.666666l-29.866667-12.8V256a256 256 0 0 1 256-256h541.866667z" fill="#0E6EFF" p-id="100592"></path><path d="M1024 388.266667V768a256 256 0 0 1-256 256H341.333333v-42.666667a605.866667 605.866667 0 0 1 42.666667-226.133333 618.666667 618.666667 0 0 1 328.533333-328.533333A605.866667 605.866667 0 0 1 938.666667 384z" fill="#1773FF" p-id="100593"></path><path d="M358.4 844.8a708.266667 708.266667 0 0 1 25.6-89.6 618.666667 618.666667 0 0 1 328.533333-328.533333l123.733334-34.133334a708.266667 708.266667 0 0 1-25.6 89.6 588.8 588.8 0 0 1-132.266667 196.266667 588.8 588.8 0 0 1-196.266667 132.266667z" fill="#4592FF" p-id="100594"></path><path d="M469.333333 140.8l179.2 183.466667-179.2 179.2V354.133333a209.066667 209.066667 0 0 0-76.8 34.133334 260.266667 260.266667 0 0 0-64 72.533333 230.4 230.4 0 0 0-21.333333 93.866667 230.4 230.4 0 0 0 21.333333 93.866666 260.266667 260.266667 0 0 0 64 72.533334 213.333333 213.333333 0 0 0 85.333334 34.133333h8.533333v89.6h-8.533333a238.933333 238.933333 0 0 1-132.266667-51.2 311.466667 311.466667 0 0 1-93.866667-102.4 307.2 307.2 0 0 1-34.133333-136.533333 307.2 307.2 0 0 1 34.133333-136.533334 375.466667 375.466667 0 0 1 93.866667-106.666666A311.466667 311.466667 0 0 1 469.333333 264.533333z m209.066667 533.333333a187.733333 187.733333 0 0 0 34.133333-85.333333v-8.533333h85.333334v8.533333a294.4 294.4 0 0 1-59.733334 145.066667v8.533333l-64-64z m-132.266667 81.066667a187.733333 187.733333 0 0 0 85.333334-34.133333h4.266666l64 64h-8.533333a294.4 294.4 0 0 1-145.066667 59.733333h-8.533333v-85.333333z m170.666667-226.133333v-8.533334a187.733333 187.733333 0 0 0-34.133333-85.333333h-4.266667l64-64v8.533333a294.4 294.4 0 0 1 59.733333 145.066667v8.533333z" fill="#FFFFFF" p-id="100595"></path></svg>