<?xml version="1.0" standalone="no"?><!DOCTYPE svg PUBLIC "-//W3C//DTD SVG 1.1//EN" "http://www.w3.org/Graphics/SVG/1.1/DTD/svg11.dtd"><svg t="1760694032424" class="icon" viewBox="0 0 1024 1024" version="1.1" xmlns="http://www.w3.org/2000/svg" p-id="98431" xmlns:xlink="http://www.w3.org/1999/xlink" width="200" height="200"><path d="M512.01024 0c70.656 0 137.173333 13.312 199.509333 40.021333 62.293333 26.666667 116.650667 63.146667 162.986667 109.482667a513.792 513.792 0 0 1 109.525333 162.986667C1010.69824 374.826667 1024.01024 441.344 1024.01024 512c0 70.656-13.312 137.173333-40.021333 199.509333a513.792 513.792 0 0 1-109.482667 162.986667 513.792 513.792 0 0 1-162.986667 109.525333c-62.336 26.666667-128.853333 39.978667-199.509333 39.978667-70.656 0-137.173333-13.312-199.509333-40.021333a513.792 513.792 0 0 1-162.986667-109.482667 513.792 513.792 0 0 1-109.525333-162.986667A501.845333 501.845333 0 0 1 0.01024 512c0-70.656 13.312-137.173333 40.021333-199.509333a513.792 513.792 0 0 1 109.482667-162.986667A513.792 513.792 0 0 1 312.500907 39.978667C374.836907 13.354667 441.35424 0 512.01024 0z m0 992c66.432 0 128.768-12.672 186.965333-37.973333a484.437333 484.437333 0 0 0 152.149334-103.296 495.061333 495.061333 0 0 0 102.826666-152.490667c25.386667-58.154667 38.058667-120.405333 38.058667-186.794667 0-66.346667-12.672-128.597333-38.016-186.752a488.405333 488.405333 0 0 0-102.869333-151.978666 489.002667 489.002667 0 0 0-152.149334-102.741334C640.77824 44.672 578.44224 32 512.01024 32c-66.432 0-128.768 12.672-186.965333 37.973333a489.002667 489.002667 0 0 0-152.149334 102.741334 488.405333 488.405333 0 0 0-102.826666 151.978666C44.639573 382.848 32.01024 445.098667 32.01024 511.445333c0 66.389333 12.672 128.64 38.016 186.794667a495.061333 495.061333 0 0 0 102.869333 152.490667 484.437333 484.437333 0 0 0 152.149334 103.253333c58.197333 25.344 120.533333 38.016 186.965333 38.016z m166.442667-319.658667c17.92-23.296 29.610667-51.285333 35.072-84.053333l1.194666-7.168h88.618667l-1.28 9.642667a294.570667 294.570667 0 0 1-57.984 142.293333l-5.802667 7.68-64.426666-62.336 4.608-6.058667z m-132.864 83.84c32.853333-5.461333 61.141333-17.194667 85.034666-35.114666l5.973334-4.48 63.274666 64.341333-7.808 5.845333c-41.557333 31.018667-89.6 50.346667-143.872 57.941334l-9.728 1.365333v-88.746667l7.125334-1.152z m169.130666-227.968l-1.194666-7.125333c-5.461333-32.853333-17.194667-61.141333-35.114667-85.034667l-4.565333-6.058666 64.469333-61.312 5.76 7.594666a294.570667 294.570667 0 0 1 58.026667 142.293334l1.28 9.642666H714.676907zM468.49024 142.378667l181.930667 181.930666-181.930667 179.029334V354.986667a190.72 190.72 0 0 0-77.226667 34.602666 211.584 211.584 0 0 0-61.568 72.234667A197.12 197.12 0 0 0 307.21024 554.666667c0 33.322667 7.509333 64.256 22.485333 92.885333A211.584 211.584 0 0 0 391.263573 719.786667a191.317333 191.317333 0 0 0 87.04 36.352l7.253334 1.109333v88.661333l-9.6-1.194666a286.592 286.592 0 0 1-130.090667-49.664 294.058667 294.058667 0 0 1-92.245333-102.357334A286.165333 286.165333 0 0 1 218.463573 554.666667c0-48.64 11.733333-94.72 35.157334-137.984a291.754667 291.754667 0 0 1 92.245333-103.253334 278.741333 278.741333 0 0 1 122.624-47.914666V142.378667z" fill="#0085FF" p-id="98432"></path></svg>