<?xml version="1.0" standalone="no"?><!DOCTYPE svg PUBLIC "-//W3C//DTD SVG 1.1//EN" "http://www.w3.org/Graphics/SVG/1.1/DTD/svg11.dtd"><svg t="1711735923429" class="icon" viewBox="0 0 1024 1024" version="1.1" xmlns="http://www.w3.org/2000/svg" p-id="31615" xmlns:xlink="http://www.w3.org/1999/xlink" width="200" height="200"><path d="M512 512m-512 0a512 512 0 1 0 1024 0 512 512 0 1 0-1024 0Z" fill="#FFFFFF" p-id="31616"></path><path d="M206.4 274.4v-27.2c0-12.8 10.4-24 23.2-24h627.2c12.8 0.8 23.2 11.2 23.2 24.8v402.4c0 12.8-10.4 24-23.2 24h-20.8" fill="#D6F1FF" p-id="31617"></path><path d="M856.8 685.6h-20.8v-23.2h20.8c6.4 0 12-5.6 12-12V248c0-6.4-5.6-12-12-12H229.6c-6.4-0.8-11.2 4.8-11.2 12v27.2h-23.2V248c0-19.2 16-35.2 34.4-35.2h627.2c19.2 0 34.4 16 34.4 35.2v402.4c0 19.2-15.2 35.2-34.4 35.2z" fill="#333333" p-id="31618"></path><path d="M240.8 721.6h-57.6c-12.8 0-23.2-10.4-23.2-24V295.2c0-12.8 10.4-24 23.2-24h627.2c12.8 0 23.2 10.4 23.2 24v402.4c0 12.8-10.4 24-23.2 24h-496" fill="#D6F1FF" p-id="31619"></path><path d="M810.4 732.8h-496v-23.2h496c6.4 0 12-5.6 12-12V295.2c0-6.4-5.6-12-12-12H183.2c-6.4 0-12 4.8-12 12v402.4c0 6.4 5.6 12 12 12h57.6v23.2h-57.6c-19.2 0-34.4-16-34.4-35.2V295.2c0-19.2 16-35.2 34.4-35.2h627.2c19.2 0 34.4 16 34.4 35.2v402.4c0 19.2-15.2 35.2-34.4 35.2z" fill="#333333" p-id="31620"></path><path d="M322.4 721.6L229.6 816V721.6" fill="#D6F1FF" p-id="31621"></path><path d="M229.6 827.2c-1.6 0-3.2 0-4-0.8-4-1.6-7.2-6.4-7.2-10.4V721.6c0-6.4 4.8-11.2 11.2-11.2s11.2 4.8 11.2 11.2v66.4l72.8-74.4c4.8-4.8 12-4.8 16 0 4.8 4.8 4.8 12 0 16L237.6 824c-1.6 2.4-4.8 3.2-8 3.2z" fill="#333333" p-id="31622"></path><path d="M507.2 661.6c-92 0-167.2-75.2-167.2-167.2 0-92.8 75.2-167.2 167.2-167.2 92 0 167.2 75.2 167.2 167.2 0 92-75.2 167.2-167.2 167.2z m0-308.8c-78.4 0-141.6 63.2-141.6 141.6 0 78.4 63.2 141.6 141.6 141.6 78.4 0 141.6-63.2 141.6-141.6 0-78.4-64-141.6-141.6-141.6z" fill="#0072FF" p-id="31623"></path><path d="M514.4 527.2v25.6h-25.6v-50.4h19.2c24.8 0 44-20 44-44s-20-44-44-44-44 20-44 44h-25.6c0-38.4 31.2-68.8 69.6-68.8s69.6 31.2 69.6 68.8c0.8 36-27.2 65.6-63.2 68.8z m-12.8 50.4c7.2 0 12.8 5.6 12.8 12.8s-5.6 12.8-12.8 12.8c-7.2 0-12.8-5.6-12.8-12.8s6.4-12.8 12.8-12.8z" fill="#0072FF" p-id="31624"></path></svg>