<?xml version="1.0" standalone="no"?><!DOCTYPE svg PUBLIC "-//W3C//DTD SVG 1.1//EN" "http://www.w3.org/Graphics/SVG/1.1/DTD/svg11.dtd"><svg t="1711735920331" class="icon" viewBox="0 0 1024 1024" version="1.1" xmlns="http://www.w3.org/2000/svg" p-id="31468" xmlns:xlink="http://www.w3.org/1999/xlink" width="200" height="200"><path d="M301.4 722.6h530.8V178.5c0-44-36-80-80-80H272c-44 0-80 36-80 80V848c0 44 36 80 80 80h480.1l80 0.3v-29.4H301.4c-44 0-80-36-80-80v-16.2c0-44.1 36-80.1 80-80.1z m305.2-67.8c0 0.7-0.6 1.3-1.3 1.3H420.7c-0.7 0-1.3-0.6-1.3-1.3v-30.4c0-0.7 0.6-1.3 1.3-1.3h184.6c0.7 0 1.3 0.6 1.3 1.3v30.4zM458 596.6v-31c0-0.6 0.5-1 1-1h108c0.6 0 1 0.5 1 1v31c0 0.6-0.5 1-1 1H459c-0.5 0-1-0.5-1-1z m-85.2-360c0-11 9-20 20-20h240.5c11 0 20 9 20 20v45.5c0 11-9 20-20 20H392.8c-11 0-20-9-20-20v-45.5z" fill="#C7B299" p-id="31469"></path></svg>