<?xml version="1.0" standalone="no"?><!DOCTYPE svg PUBLIC "-//W3C//DTD SVG 1.1//EN" "http://www.w3.org/Graphics/SVG/1.1/DTD/svg11.dtd"><svg t="1760693855762" class="icon" viewBox="0 0 1024 1024" version="1.1" xmlns="http://www.w3.org/2000/svg" p-id="77598" xmlns:xlink="http://www.w3.org/1999/xlink" width="200" height="200"><path d="M54.010676 339.719661c0 184.59499 149.647334 334.242324 334.242324 334.242324 184.607467 0 334.254801-149.647334 334.254801-334.242324 0-184.607467-149.647334-334.254801-334.254801-334.254801-184.59499 0-334.242324 149.659811-334.242324 334.254801z m0 0" fill="#F1D98F" p-id="77599"></path><path d="M789.358761 777.158008c-7.261526 5.814212-14.53553 8.721318-23.256848 8.721317-20.349742 0-36.332586-15.982844-36.332586-36.332586 0-10.168632 4.354421-20.337265 11.628424-27.611268C895.449413 586.77376 909.984943 352.795399 774.823231 198.756214 639.673996 44.704552 405.695636 30.181499 251.656451 165.330734 99.06458 301.93976 83.081736 535.905644 218.230971 689.957306c10.181109 11.628424 21.797056 23.256848 33.42548 33.42548 14.53553 13.075738 15.982844 36.332586 2.907106 50.868116-13.075738 14.53553-36.332586 15.982844-50.868116 2.907106C20.585196 615.844819 3.14256 335.36524 164.455749 150.795204 325.768937-33.762355 606.248516-49.745199 790.806075 111.567989c184.570036 161.313188 202.000195 441.78029 39.239692 624.903012a539.573838 539.573838 0 0 1-40.687006 40.687007z m0 0" fill="#070707" p-id="77600"></path><path d="M308.326302 819.292329H671.639685c20.349742 0 36.332586 15.982844 36.332586 36.332586 0 20.337265-15.982844 36.332586-36.332586 36.332586H308.326302c-20.349742 0-36.332586-15.982844-36.332586-36.332586 0.012477-20.337265 15.995321-36.332586 36.332586-36.332586z m87.200701 130.794814h188.924457c20.337265 0 36.332586 15.982844 36.332586 36.332586 0 20.337265-15.982844 36.332586-36.332586 36.332586H395.527003c-20.337265 0-36.332586-15.982844-36.332586-36.332586 0-20.349742 15.982844-36.332586 36.332586-36.332586z m0 0" fill="#070707" p-id="77601"></path></svg>