<?xml version="1.0" standalone="no"?><!DOCTYPE svg PUBLIC "-//W3C//DTD SVG 1.1//EN" "http://www.w3.org/Graphics/SVG/1.1/DTD/svg11.dtd"><svg t="1760693858570" class="icon" viewBox="0 0 1024 1024" version="1.1" xmlns="http://www.w3.org/2000/svg" p-id="77763" xmlns:xlink="http://www.w3.org/1999/xlink" width="200" height="200"><path d="M512 0a512 512 0 1 1 0 1024 512 512 0 0 1 0-1024z m0 256a46.994286 46.994286 0 0 0-42.422857 27.136l-43.373714 92.891429a43.629714 43.629714 0 0 1-35.108572 23.954285l-95.158857 14.628572a47.104 47.104 0 0 0-26.514286 79.177143l74.752 77.165714c7.460571 7.936 11.593143 18.432 11.556572 29.330286a39.862857 39.862857 0 0 1 0 5.12l-17.810286 108.032a47.433143 47.433143 0 0 0 19.163429 46.08 47.908571 47.908571 0 0 0 49.664 2.742857l81.92-44.324572a43.958857 43.958857 0 0 1 43.812571-1.133714l84.48 45.458286a46.884571 46.884571 0 0 0 69.12-48.822857l-16.676571-103.350858v-1.206857a42.861714 42.861714 0 0 1 7.350857-34.011428l4.315428-5.010286 73.618286-75.995429a47.104 47.104 0 0 0-26.404571-79.250285l-95.049143-14.518857a43.410286 43.410286 0 0 1-35.84-24.868572l-42.898286-92.16A47.104 47.104 0 0 0 512 256z" fill="#F9BF4A" p-id="77764"></path></svg>