<?xml version="1.0" standalone="no"?><!DOCTYPE svg PUBLIC "-//W3C//DTD SVG 1.1//EN" "http://www.w3.org/Graphics/SVG/1.1/DTD/svg11.dtd"><svg t="1711735070385" class="icon" viewBox="0 0 1024 1024" version="1.1" xmlns="http://www.w3.org/2000/svg" p-id="1408" xmlns:xlink="http://www.w3.org/1999/xlink" width="200" height="200"><path d="M820 883.5H653.52a72 72 0 0 1-72-72V662.21a10 10 0 0 0-10-10h-119a10 10 0 0 0-10 10V811.5a72 72 0 0 1-72 72H204a72 72 0 0 1-72-72V452.38a72 72 0 0 1 21.32-51.15L461.32 96a72 72 0 0 1 101.36 0l308 305.19A72 72 0 0 1 892 452.38V811.5a72 72 0 0 1-72 72z m-156.48-72H810a10 10 0 0 0 10-10V456.55a10 10 0 0 0-3-7.11L519 154.16a10 10 0 0 0-14.08 0L207 449.44a10 10 0 0 0-3 7.11v345a10 10 0 0 0 10 10h146.48a10 10 0 0 0 10-10V590.21a10 10 0 0 1 10-10h263a10 10 0 0 1 10 10V801.5a10 10 0 0 0 10.04 10z" p-id="1409"></path></svg>