<?xml version="1.0" standalone="no"?><!DOCTYPE svg PUBLIC "-//W3C//DTD SVG 1.1//EN" "http://www.w3.org/Graphics/SVG/1.1/DTD/svg11.dtd"><svg t="1760693735370" class="icon" viewBox="0 0 1024 1024" version="1.1" xmlns="http://www.w3.org/2000/svg" p-id="59661" xmlns:xlink="http://www.w3.org/1999/xlink" width="200" height="200"><path d="M801.6 802.4l-34.4-34c9.2-9.2 21.6-14.4 34.4-14.4 26.8 0 48.4-21.6 48.4-48.4v-484c0-26.8-21.6-48.4-48.4-48.4h-484c-26.8 0-48.4 21.6-48.4 48.4v4c0 13.2-5.2 25.2-14 34l-34.4-34v-4C220.8 168 264 124.4 317.6 124.4h484c53.6 0 96.8 43.2 96.8 96.8v484c0 53.6-43.2 97.2-96.8 97.2zM172.4 318v484c0 26.8 21.6 48.4 48.4 48.4h484c26.8 0 48.4-21.6 48.4-48.4v-484c0-26.8-21.6-48.4-48.4-48.4h-484c-26.8 0-48.4 21.6-48.4 48.4z m532.4-96.8c53.6 0 96.8 43.2 96.8 96.8v484c0 53.6-43.2 96.8-96.8 96.8h-484c-53.6 0-96.8-43.2-96.8-96.8v-484c0-53.6 43.2-96.8 96.8-96.8h484z m0 0" fill="#3F51B5" p-id="59662"></path><path d="M244.8 318h290.4c13.2 0 24.4 10.8 24.4 24.4 0 13.2-10.8 24.4-24.4 24.4H244.8c-13.2 0-24.4-10.8-24.4-24.4 0.4-13.6 11.2-24.4 24.4-24.4z m436 48.4c-13.2 0-24.4-10.8-24.4-24.4 0-13.2 10.8-24.4 24.4-24.4 13.2 0 24.4 10.8 24.4 24.4-0.4 13.6-11.2 24.4-24.4 24.4zM172.4 414.8h580.8v48.4H172.4v-48.4z m0 0" fill="#3F51B5" p-id="59663"></path></svg>