<?xml version="1.0" standalone="no"?><!DOCTYPE svg PUBLIC "-//W3C//DTD SVG 1.1//EN" "http://www.w3.org/Graphics/SVG/1.1/DTD/svg11.dtd"><svg t="1714048460064" class="icon" viewBox="0 0 1024 1024" version="1.1" xmlns="http://www.w3.org/2000/svg" p-id="1465" xmlns:xlink="http://www.w3.org/1999/xlink" width="200" height="200"><path d="M633.27232 612.89472c55.18848-35.7632 91.776-97.88928 91.776-168.41728 0-110.59712-89.95328-200.5504-200.5504-200.5504-23.02976 0-45.1584 3.91168-65.77152 11.08992a26.5216 26.5216 0 0 0-1.80736-30.7456c-38.31808-47.16032-95.08864-74.23488-155.79136-74.23488-110.592 0-200.5504 89.96352-200.5504 200.5504 0 68.44928 34.71872 131.54816 91.81696 168.448-51.96288 20.52608-96.72704 55.13728-130.12992 100.6592C24.70912 670.79168 4.95104 731.26912 4.95104 794.58816a26.4192 26.4192 0 1 0 52.8384-0.22016c0-134.17472 109.17376-243.23584 243.24096-243.23584 14.52032 0 26.4192-11.904 26.4192-26.64448a26.4448 26.4448 0 0 0-26.4192-26.4192c-81.33632 0-147.59936-66.16064-147.59936-147.59936 0-81.3312 66.16064-147.59936 147.59936-147.59936 44.76416 0 86.56896 19.97824 114.7392 54.69696a26.39872 26.39872 0 0 0 15.57504 9.344c-63.7952 33.60256-107.38688 100.57216-107.38688 177.55648 0 70.59456 36.6592 132.77696 91.94496 168.5248-109.63456 43.45856-187.36128 150.55872-187.36128 275.4816a26.43968 26.43968 0 0 0 26.4192 26.4192 26.43968 26.43968 0 0 0 26.4192-26.4192c0-134.17472 109.17376-243.24096 243.24096-243.24096 134.06208 0 243.23584 109.17376 243.23584 243.24096a26.43968 26.43968 0 0 0 26.4192 26.4192c14.52032 0 26.42432-11.79136 26.64448-26.4192-0.01536-125.00992-77.87008-232.18688-187.648-275.57888z m-108.7744-316.01664c81.44384 0 147.59936 66.15552 147.59936 147.59936 0 81.3312-66.16064 147.59936-147.59936 147.59936-81.3312 0-147.59936-66.16064-147.59936-147.59936 0-81.33632 66.15552-147.59936 147.59936-147.59936z" fill="#49abf6" p-id="1466"></path><path d="M992.63488 109.09696h-477.74208a26.43968 26.43968 0 0 0-26.4192 26.4192v75.76576a26.43968 26.43968 0 0 0 26.4192 26.4192 26.43968 26.43968 0 0 0 26.4192-26.4192v-49.34656h424.6784v286.3616h-100.65408a26.51648 26.51648 0 0 0-18.9952 8.07936l-43.3408 44.86656 3.16416-21.9392a26.27584 26.27584 0 0 0-6.33344-21.17632 26.20416 26.20416 0 0 0-19.8656-9.0624l-22.7072 0.22016a25.984 25.984 0 0 0-18.66752 7.8592 25.8048 25.8048 0 0 0-7.64416 18.78016c0.10752 11.79136 7.97184 21.72416 18.66752 25.10848l-10.48064 73.58464a26.36288 26.36288 0 0 0 6.2208 21.0688 26.19904 26.19904 0 0 0 19.97824 9.17504c7.09632 0 13.9776-2.94912 19.00032-8.07936l92.24704-95.41632h116.05504a26.4448 26.4448 0 0 0 26.4192-26.42432V135.51616a26.43968 26.43968 0 0 0-26.4192-26.4192z" fill="#49abf6" p-id="1467"></path></svg>