<?xml version="1.0" standalone="no"?><!DOCTYPE svg PUBLIC "-//W3C//DTD SVG 1.1//EN" "http://www.w3.org/Graphics/SVG/1.1/DTD/svg11.dtd"><svg t="1714048093667" class="icon" viewBox="0 0 1024 1024" version="1.1" xmlns="http://www.w3.org/2000/svg" p-id="1467" xmlns:xlink="http://www.w3.org/1999/xlink" width="200" height="200"><path d="M715.5 746.4c35.2 0 47.6-47.1 16.7-64-12.6-7-25.7-13.3-39-18.8 104.3-55.9 175.5-165.8 176.1-292.3 1.3-183.7-146.6-333.7-330.4-335-185.4-1.6-336.3 148.2-336.3 333.3 0 7.3 0.2 14.4 0.6 21.6 1.9 30.2 38.6 44.1 59.9 22.6 7.2-7.2 10.9-17.2 10.2-27.3-0.3-5.6-0.5-11.2-0.5-16.9 0-145.2 117.8-263 263-263 144.9 0 263 118.1 263 263 0 145.2-117.8 263-263 263-85.2 0.1-165.2-41.2-214.4-110.8-6-8.4-15.4-13.8-25.7-14.6-10.3-0.8-20.4 3-27.7 10.3-12.1 12.2-13.7 31.3-3.7 45.3 29.9 41.9 69 76.4 114.4 100.7-117.3 48.3-202.5 150.7-218.2 282.1-1.4 11.3 2.2 22.7 9.7 31.2 7.6 8.5 18.4 13.4 29.8 13.4 20.1 0.1 37.1-14.9 39.6-34.9C257.1 809.9 383 712.9 535.9 712.9c43.4 0 84.6 7.8 121.7 22.3 18.4 7.3 38.1 11.1 57.9 11.2z" fill="#ECEDF6" p-id="1468"></path><path d="M841.3 773.6H660.6c-21.1 0-38.4 17.3-38.4 38.4 0 21.1 17.3 38.4 38.4 38.4h180.6c21.1 0 38.4-17.3 38.4-38.4 0-10.2-4-19.9-11.2-27.1-7.1-7.2-16.9-11.3-27.1-11.3zM903.1 900H598.9c-21.1 0-38.4 17.3-38.4 38.4 0 21.1 17.3 38.4 38.4 38.4h304.3c21.2-0.1 38.3-17.2 38.4-38.4-0.1-21.2-17.3-38.3-38.5-38.4z m0 0" fill="#ECEDF6" p-id="1469"></path><path d="M675.2 737.7c35.2 0 47.6-47.1 16.7-64-12.6-7-25.7-13.3-39-18.8C757.2 599 828.4 489.1 829 362.6c1.3-183.7-146.6-333.7-330.4-335C313.2 26 162.4 175.7 162.4 360.8c0 7.3 0.2 14.4 0.6 21.6 1.9 30.2 38.6 44.1 59.9 22.6 7.2-7.2 10.9-17.2 10.2-27.3-0.3-5.6-0.5-11.2-0.5-16.9 0-145.2 117.8-263 263-263 144.9 0 263 118.1 263 263 0 145.2-117.8 263-263 263-85.2 0.1-165.2-41.2-214.4-110.8-6-8.4-15.4-13.8-25.7-14.6-10.3-0.8-20.4 3-27.7 10.3-12.1 12.2-13.7 31.3-3.7 45.3 29.9 41.9 69 76.4 114.4 100.7C221.1 703.1 136 805.5 120.2 936.9c-1.4 11.3 2.2 22.7 9.7 31.2 7.6 8.5 18.4 13.4 29.8 13.4 20.1 0.1 37.1-14.9 39.6-34.9 17.4-145.5 143.4-242.5 296.2-242.5 43.4 0 84.6 7.8 121.7 22.3 18.6 7.4 38.2 11.2 58 11.3z" fill="#00C4C0" p-id="1470"></path><path d="M801 764.9H620.3c-21.1 0-38.4 17.3-38.4 38.4 0 21.1 17.3 38.4 38.4 38.4H801c21.1 0 38.4-17.3 38.4-38.4 0-10.2-4-19.9-11.2-27.1-7.2-7.3-17-11.3-27.2-11.3z m61.8 126.4H558.6c-21.1 0-38.4 17.3-38.4 38.4 0 21.1 17.3 38.4 38.4 38.4h304.3c21.2-0.1 38.3-17.2 38.4-38.4-0.1-21.2-17.3-38.3-38.5-38.4z m0 0" fill="#39CFFF" p-id="1471"></path></svg>