<?xml version="1.0" standalone="no"?><!DOCTYPE svg PUBLIC "-//W3C//DTD SVG 1.1//EN" "http://www.w3.org/Graphics/SVG/1.1/DTD/svg11.dtd"><svg t="1760694124630" class="icon" viewBox="0 0 1024 1024" version="1.1" xmlns="http://www.w3.org/2000/svg" p-id="109364" xmlns:xlink="http://www.w3.org/1999/xlink" width="200" height="200"><path d="M0 512c0 282.763636 229.236364 512 512 512s512-229.236364 512-512S794.763636 0 512 0 0 229.236364 0 512z" fill="#1C93B5" p-id="109365"></path><path d="M567.121455 744.506182c3.176727-16.698182 4.910545-39.214545 5.748363-57.437091 19.525818 5.911273 153.960727-110.929455 43.066182-157.940364l-1.000727-0.430545c-21.026909 36.002909-52.48 76.625455-98.606546 110.010182 5.434182 10.938182 11.869091 21.352727 19.2 31.127272-24.133818 19.118545-45.835636 32.081455-48.826182 34.478546-0.570182 0-10.042182-12.241455-21.003636-35.374546a353.826909 353.826909 0 0 1-45.056 18.129455c-85.422545 27.776-115.083636-111.057455-103.389091-140.718546 9.029818-22.877091 41.611636-63.301818 116.258909-80.674909 1.233455-13.172364 2.990545-26.775273 5.550546-40.890181-44.253091 1.710545-91.229091-3.665455-136.157091-22.016a771.723636 771.723636 0 0 0 25.844363-51.700364s40.994909 19.362909 125.381819 11.904A630.574545 630.574545 0 0 1 486.702545 279.272727l51.688728 22.970182s-8.96 19.607273-19.153455 50.746182a728.040727 728.040727 0 0 0 88.075637-24.901818c16.093091 27.182545 37.352727 43.077818 37.352727 43.077818s-60.997818 31.965091-142.941091 46.661818a545.710545 545.710545 0 0 0-6.981818 39.912727c26.996364-1.128727 57.669818 0.349091 92.474182 5.329455 12.869818-12.637091 11.485091-34.443636 11.48509-34.443636l54.574546 8.599272s-3.397818 15.476364-12.718546 38.946909c16.430545 6.283636 62.871273 28.706909 73.018182 90.286546 11.368727 68.945455-78.103273 183.912727-146.466909 178.048h0.011637zM363.322182 575.418182c-1.768727 14.592 9.751273 63.185455 28.718545 63.185454s43.077818-14.370909 43.077818-14.370909-10.472727-53.76-11.48509-91.892363c-31.592727 7.447273-58.530909 28.474182-60.311273 43.066181v0.011637z m187.682909-53.364364c-8.145455-3.979636-66.048 0-66.048 0-5.620364 12.706909 8.610909 66.048 8.610909 66.048s65.570909-62.068364 57.437091-66.048z" fill="#FFFFFF" p-id="109366"></path></svg>