<?xml version="1.0" standalone="no"?><!DOCTYPE svg PUBLIC "-//W3C//DTD SVG 1.1//EN" "http://www.w3.org/Graphics/SVG/1.1/DTD/svg11.dtd"><svg t="1760694132209" class="icon" viewBox="0 0 1170 1024" version="1.1" xmlns="http://www.w3.org/2000/svg" p-id="109683" xmlns:xlink="http://www.w3.org/1999/xlink" width="228.515625" height="200"><path d="M946.168066 861.913412a36.978432 36.978432 0 0 0-46.866651-3.686141 565.097137 565.097137 0 0 1-313.790077 92.91416 577.167786 577.167786 0 0 1-263.061755-62.488868 93.733303 93.733303 0 0 0-43.882632-10.356302c-31.068904 2.457427-61.260155 11.585015-88.408877 26.797661-8.132915 3.803161-16.6754 7.606323-25.568947 11.350975 17.962624-115.90866 4.856345-147.211604-11.819056-169.796533A392.544775 392.544775 0 0 1 73.488782 511.964045c-0.05851-241.998091 229.593933-438.826325 511.905535-438.826324s511.964045 196.828234 511.964046 438.826324c0 49.61663-9.82971 98.765178-28.787007 144.637157a36.744391 36.744391 0 0 0 7.313772 40.196491 36.533754 36.533754 0 0 0 51.722996-0.11702l0.05851-0.05851c3.15955-3.21806 5.733997-7.021221 7.547813-11.175444A450.674635 450.674635 0 0 0 1170.203533 511.905535C1170.203533 229.184362 908.253472 0 585.101766 0S0 229.184362 0 511.964045A464.570802 464.570802 0 0 0 93.791813 789.887384c16.55838 22.350887-3.627631 134.865957-16.441359 195.30697-2.691468 12.872239 5.441446 25.510437 18.255175 28.377436 3.978692 0.819142 8.132915 0.702122 12.053096-0.468082 21.180684-6.202079 48.270896-14.920095 74.249414-25.100865 30.425292-16.207319 62.722909-28.611476 96.190731-36.978432 3.569121-0.05851 7.079731 0.702122 10.297791 2.223387 91.860977 46.866651 193.668685 71.148375 296.822126 70.738803 126.206451 0.819142 249.779944-35.983759 355.039751-105.669379 16.792421-11.116934 21.473235-33.760372 10.356302-50.552792-1.404244-2.047856-2.984019-3.978692-4.739325-5.733998h0.351061z" fill="#5198FF" p-id="109684"></path><path d="M725.877251 430.400859c2.398917-6.962711 4.914855-13.691381 6.61165-18.255175 0.468081-1.111693 0.877653-2.223387 1.228714-3.39359l0.760632-1.872326h-0.292551c5.499957-15.622217-2.632958-32.707189-18.255175-38.207145-3.686141-1.287224-7.547813-1.872326-11.409484-1.696795a31.513581 31.513581 0 0 0-29.255089 20.537072h-0.29255s-6.085058 20.420052-9.478649 32.707189c-6.319099-0.585102-12.696708-0.819142-19.074318-0.702123-36.39333 0.468081-72.552619 5.616977-107.658725 15.212646 2.047856-24.691295 4.095712-49.265569 6.085059-72.552619 72.494109-3.686141 150.722215-10.941403 214.907879-20.537072a30.524759 30.524759 0 0 0 28.435945-32.356127 30.524759 30.524759 0 0 0-32.356127-28.435946c-2.281897 0.175531-4.563794 0.585102-6.787181 1.228714a1335.219784 1335.219784 0 0 1-195.950581 21.239194c0.936163-7.313772 4.154223-23.05301 7.547812-38.499697 3.686141-17.553053-7.547813-34.813555-25.100865-38.499696-17.553053-3.686141-34.813555 7.547813-38.499697 25.100866-0.234041 1.228714-0.409571 2.457427-0.526591 3.686141-1.345734 16.792421-2.984019 33.584841-4.797835 50.318752h-36.334819c-27.733824-0.351061-55.409137-1.930836-83.025941-4.680814a30.53061 30.53061 0 0 0-32.473148 28.494456 30.53061 30.53061 0 0 0 28.494456 32.473148c27.967864 1.287224 61.786747 2.749978 85.190817 2.749978h31.829536c-2.691468 29.255088-5.441446 60.909094-6.84569 92.387569-92.68012 43.882632-166.227412 133.461713-166.227412 219.764224-5.499957 44.409224 25.920008 84.898266 70.329232 90.573753 4.680814 0.585102 9.420138 0.702122 14.159463 0.409571 38.558206-1.404244 76.12174-12.755219 109.062969-32.941229 3.39359 12.287137 10.239281 32.941229 10.239281 32.941229h0.292551a31.73592 31.73592 0 0 0 40.606063 19.249848c0.05851 0 0.11702 0 0.23404-0.05851 12.638198-4.680814 21.063664-16.733911 21.005154-30.191251a30.249761 30.249761 0 0 0-1.404245-7.138242l0.702122-0.23404c-5.499957-16.44136-10.999913-34.286964-15.622217-52.717669a528.382001 528.382001 0 0 0 145.163749-212.099391 111.362419 111.362419 0 0 1 85.190817 106.078951c0 68.105846-49.85067 125.270288-145.456299 147.796706a31.051351 31.051351 0 0 0-23.696622 36.978431 31.074755 31.074755 0 0 0 35.632698 23.989173c144.227585-28.845517 199.636723-113.334212 199.636722-205.13668-1.287224-78.462147-55.877219-145.982891-132.291509-163.711474z m-315.545382 271.019138c-23.22854 0-34.755045-12.345647-34.755045-37.680553 0-46.51559 41.483715-106.781072 100.871544-143.700994 0.409571 51.020874 5.499957 101.866218 15.095626 151.950929a157.491842 157.491842 0 0 1-81.212125 29.430618z m136.270201-74.600475c-6.72867-38.909267-10.122261-78.286616-10.239281-117.722475V492.655687c34.521004-11.467995 70.621783-17.494543 107.015113-17.787093h3.452101a430.851388 430.851388 0 0 1-100.169423 152.009438z" fill="#FF7189" p-id="109685"></path></svg>