<?xml version="1.0" standalone="no"?><!DOCTYPE svg PUBLIC "-//W3C//DTD SVG 1.1//EN" "http://www.w3.org/Graphics/SVG/1.1/DTD/svg11.dtd"><svg t="1711731567195" class="icon" viewBox="0 0 1024 1024" version="1.1" xmlns="http://www.w3.org/2000/svg" p-id="1479" xmlns:xlink="http://www.w3.org/1999/xlink" width="200" height="200"><path d="M935.563636 1021.672727L90.763636 1024C41.890909 1024 2.327273 984.436364 2.327273 935.563636L0 267.636364c0-48.872727 39.563636-88.436364 88.436364-88.436364h267.636363v44.218182H88.436364c-25.6 0-44.218182 20.945455-44.218182 44.218182L46.545455 935.563636c0 25.6 20.945455 44.218182 44.218181 44.218182l844.8-2.327273c25.6 0 44.218182-20.945455 44.218182-44.218181L977.454545 265.309091c0-25.6-20.945455-44.218182-44.218181-44.218182H665.6V176.872727h267.636364c48.872727 0 88.436364 39.563636 88.436363 88.436364l2.327273 667.927273c0 48.872727-39.563636 88.436364-88.436364 88.436363zM600.436364 488.727273h221.090909c11.636364 0 23.272727 9.309091 23.272727 23.272727 0 11.636364-9.309091 23.272727-20.945455 23.272727h-221.090909c-11.636364 0-23.272727-9.309091-23.272727-20.945454 0-13.963636 9.309091-25.6 20.945455-25.6z m0 267.636363h88.436363c11.636364 0 23.272727 9.309091 23.272728 23.272728 0 11.636364-9.309091 23.272727-20.945455 23.272727h-88.436364c-11.636364 0-23.272727-9.309091-23.272727-20.945455 0-16.290909 9.309091-25.6 20.945455-25.6z m0-132.654545h221.090909c11.636364 0 23.272727 9.309091 23.272727 23.272727 0 11.636364-9.309091 23.272727-23.272727 23.272727h-221.090909c-11.636364 0-23.272727-9.309091-23.272728-23.272727 2.327273-13.963636 11.636364-23.272727 23.272728-23.272727z m-267.636364-223.418182c74.472727 0 132.654545 79.127273 132.654545 176.872727 0 37.236364-9.309091 72.145455-23.272727 100.072728 27.927273 16.290909 46.545455 44.218182 46.545455 76.8 0 48.872727-39.563636 88.436364-88.436364 88.436363h-132.654545c-48.872727 0-88.436364-39.563636-88.436364-88.436363 0-32.581818 18.618182-62.836364 46.545455-76.8-13.963636-27.927273-23.272727-62.836364-23.272728-100.072728-2.327273-95.418182 58.181818-176.872727 130.327273-176.872727z m0 44.218182c-48.872727 0-88.436364 60.509091-88.436364 132.654545 0 74.472727 39.563636 132.654545 88.436364 132.654546 48.872727 0 88.436364-60.509091 88.436364-132.654546 2.327273-72.145455-37.236364-132.654545-88.436364-132.654545zM223.418182 756.363636c0 25.6 20.945455 44.218182 44.218182 44.218182h132.654545c25.6 0 44.218182-20.945455 44.218182-44.218182 0-18.618182-11.636364-32.581818-25.6-39.563636-23.272727 25.6-53.527273 39.563636-83.781818 41.890909-32.581818 0-60.509091-13.963636-83.781818-39.563636-16.290909 4.654545-27.927273 18.618182-27.927273 37.236363z m421.236363-444.509091H377.018182c-11.636364 0-23.272727-9.309091-23.272727-23.272727 0-11.636364 9.309091-23.272727 23.272727-23.272727h23.272727V109.381818C400.290909 51.2 449.163636 0 512 0c60.509091 0 111.709091 48.872727 111.709091 111.709091V267.636364h23.272727c11.636364 0 23.272727 9.309091 23.272727 23.272727-2.327273 9.309091-13.963636 20.945455-25.6 20.945454z m-67.490909-88.436363V111.709091c0-37.236364-30.254545-67.490909-67.490909-67.490909-37.236364 0-67.490909 30.254545-67.490909 67.490909V267.636364h132.654546l2.327272-44.218182zM512 132.654545c-11.636364 0-23.272727-9.309091-23.272727-23.272727 0-11.636364 9.309091-23.272727 23.272727-23.272727 11.636364 0 23.272727 9.309091 23.272727 23.272727-2.327273 13.963636-11.636364 23.272727-23.272727 23.272727z" fill="#4A4A4A" p-id="1480"></path></svg>