<?xml version="1.0" standalone="no"?><!DOCTYPE svg PUBLIC "-//W3C//DTD SVG 1.1//EN" "http://www.w3.org/Graphics/SVG/1.1/DTD/svg11.dtd"><svg t="1760693630588" class="icon" viewBox="0 0 1024 1024" version="1.1" xmlns="http://www.w3.org/2000/svg" p-id="51289" xmlns:xlink="http://www.w3.org/1999/xlink" width="200" height="200"><path d="M163.837706 802.804761a15.359785 15.359785 0 0 1 0-5.119929 15.359785 15.359785 0 0 0 0 5.119929zM501.752975 802.804761a35.327505 35.327505 0 0 0 0-6.655907 35.327505 35.327505 0 0 1 0 6.655907z" fill="#878787" p-id="51290"></path><path d="M870.387815 0H460.793549a153.59785 153.59785 0 0 0-153.59785 153.59785v102.398566H153.59785a153.59785 153.59785 0 0 0-153.59785 153.59785v307.195699a153.59785 153.59785 0 0 0 153.59785 153.59785h48.127326l63.999104 114.686394A76.286932 76.286932 0 0 0 332.795341 1023.985664a74.750953 74.750953 0 0 0 67.071061-38.911455L464.377499 870.387815H716.789965a153.59785 153.59785 0 0 0 153.59785-153.59785v-204.797133a153.59785 153.59785 0 0 0 153.597849-153.59785V153.59785a153.59785 153.59785 0 0 0-153.597849-153.59785z m-76.798925 716.789965a76.798925 76.798925 0 0 1-76.798925 76.798925H419.322129l-86.526788 153.597849-86.526789-153.597849H153.59785A76.798925 76.798925 0 0 1 76.798925 716.789965V409.594266A76.798925 76.798925 0 0 1 153.59785 332.795341h563.192115A76.798925 76.798925 0 0 1 793.58889 409.594266z m153.597849-358.394983A76.798925 76.798925 0 0 1 870.387815 435.193907V409.594266a153.59785 153.59785 0 0 0-153.59785-153.59785H383.994624V153.59785A76.798925 76.798925 0 0 1 460.793549 76.798925h409.594266A76.798925 76.798925 0 0 1 947.186739 153.59785z" fill="#4B8EE6" p-id="51291"></path><path d="M255.996416 563.192115m-51.199283 0a51.199283 51.199283 0 1 0 102.398566 0 51.199283 51.199283 0 1 0-102.398566 0Z" fill="#2EA7E0" p-id="51292"></path><path d="M435.193907 563.192115m-51.199283 0a51.199283 51.199283 0 1 0 102.398566 0 51.199283 51.199283 0 1 0-102.398566 0Z" fill="#2EA7E0" p-id="51293"></path><path d="M614.391399 563.192115m-51.199284 0a51.199283 51.199283 0 1 0 102.398567 0 51.199283 51.199283 0 1 0-102.398567 0Z" fill="#2EA7E0" p-id="51294"></path></svg>