<?xml version="1.0" standalone="no"?><!DOCTYPE svg PUBLIC "-//W3C//DTD SVG 1.1//EN" "http://www.w3.org/Graphics/SVG/1.1/DTD/svg11.dtd"><svg t="1760693522727" class="icon" viewBox="0 0 1024 1024" version="1.1" xmlns="http://www.w3.org/2000/svg" p-id="43163" xmlns:xlink="http://www.w3.org/1999/xlink" width="200" height="200"><path d="M61.9 513a448.1 448.9 0 1 0 896.2 0 448.1 448.9 0 1 0-896.2 0Z" fill="#E3F8FA" p-id="43164"></path><path d="M716.2 302.5v424.8c0 29.8-24.2 54-54 54H358.7c-29.8 0-54-24.2-54-54V287.9c0-29.8 24.2-54 54-54h288.9l68.6 68.6z" fill="#57B4FD" p-id="43165"></path><path d="M639.6 243.4l66.8 67.4v1.2l-25.5-0.8c-23.9-0.8-42.7-20.8-42-44.8l0.7-23z" fill="#D9F0FF" p-id="43166"></path><path d="M650.3 386.3H371.1c-8.5 0-15.4-6.9-15.4-15.4v-2c0-8.5 6.9-15.4 15.4-15.4h279.1c8.5 0 15.4 6.9 15.4 15.4v2c0.1 8.5-6.8 15.4-15.3 15.4zM648.8 456.9H369.7c-8.5 0-15.4-6.9-15.4-15.4v-2c0-8.5 6.9-15.4 15.4-15.4h279.1c8.5 0 15.4 6.9 15.4 15.4v2c0.1 8.5-6.8 15.4-15.4 15.4zM647.4 524.3H368.3c-8.5 0-15.4-6.9-15.4-15.4v-2c0-8.5 6.9-15.4 15.4-15.4h279.1c8.5 0 15.4 6.9 15.4 15.4v2c0.1 8.5-6.8 15.4-15.4 15.4zM647.4 593.3H368.3c-8.5 0-15.4-6.9-15.4-15.4v-2c0-8.5 6.9-15.4 15.4-15.4h279.1c8.5 0 15.4 6.9 15.4 15.4v2c0.1 8.5-6.8 15.4-15.4 15.4zM644.8 660.7H539.4c-9.1 0-16.4-7.4-16.4-16.4 0-9.1 7.4-16.4 16.4-16.4h105.4c9.1 0 16.4 7.4 16.4 16.4 0.1 9-7.3 16.4-16.4 16.4z" fill="#E3F8FA" p-id="43167"></path><path d="M602.1 465.9L489.4 643.5l-74.2-47.1 112.6-177.6c13-20.5 40.1-26.6 60.6-13.6 10.2 6.5 16.9 16.5 19.3 27.5s0.9 22.9-5.6 33.2z" fill="#8FD2FF" p-id="43168"></path><path d="M421.5 666.6l-6.3-70.2 73.6 46.7z" fill="#E6F6FF" p-id="43169"></path></svg>