<?xml version="1.0" standalone="no"?><!DOCTYPE svg PUBLIC "-//W3C//DTD SVG 1.1//EN" "http://www.w3.org/Graphics/SVG/1.1/DTD/svg11.dtd"><svg t="1760693928578" class="icon" viewBox="0 0 1024 1024" version="1.1" xmlns="http://www.w3.org/2000/svg" p-id="88015" xmlns:xlink="http://www.w3.org/1999/xlink" width="200" height="200"><path d="M300.373333 201.386667c30.72 0 51.2-20.48 54.613334-47.786667v-102.4C351.573333 23.893333 327.68 0 300.373333 0c-30.72 0-51.2 20.48-51.2 47.786667v102.4c0 27.306667 20.48 47.786667 51.2 51.2zM716.8 201.386667c30.72 0 51.2-20.48 54.613333-47.786667v-102.4C768 23.893333 750.933333 0 720.213333 0s-51.2 20.48-51.2 47.786667v102.4c0 27.306667 23.893333 47.786667 47.786667 51.2z" fill="#FFCA7F" p-id="88016"></path><path d="M395.946667 566.613333h269.653333v102.4h-269.653333z" fill="#FFCA7F" p-id="88017"></path><path d="M890.88 85.333333h-47.786667v75.093334c-6.826667 64.853333-58.026667 109.226667-122.88 109.226666h-6.826666c-61.44-6.826667-109.226667-58.026667-109.226667-119.466666V85.333333h-180.906667v75.093334c-6.826667 64.853333-58.026667 109.226667-122.88 109.226666H290.133333c-61.44-6.826667-105.813333-58.026667-105.813333-119.466666V85.333333H133.12C61.44 85.333333 0 143.36 0 218.453333v672.426667C0 962.56 61.44 1024 133.12 1024h757.76c71.68 0 133.12-61.44 133.12-133.12V218.453333c0-75.093333-61.44-133.12-133.12-133.12z m-153.6 785.066667c0 44.373333-23.893333 68.266667-68.266667 68.266667H580.266667l-20.48-68.266667c34.133333 3.413333 61.44 3.413333 81.92 3.413333 13.653333 0 20.48-10.24 20.48-27.306666v-112.64h-273.066667c-10.24 85.333333-34.133333 157.013333-78.506667 215.04l-54.613333-51.2c40.96-58.026667 64.853333-136.533333 64.853333-228.693334V337.92h413.013334v532.48z" fill="#FFCA7F" p-id="88018"></path><path d="M395.946667 406.186667h269.653333v95.573333h-269.653333z" fill="#FFCA7F" p-id="88019"></path></svg>