<?xml version="1.0" standalone="no"?><!DOCTYPE svg PUBLIC "-//W3C//DTD SVG 1.1//EN" "http://www.w3.org/Graphics/SVG/1.1/DTD/svg11.dtd"><svg t="1760693930574" class="icon" viewBox="0 0 1024 1024" version="1.1" xmlns="http://www.w3.org/2000/svg" p-id="88177" xmlns:xlink="http://www.w3.org/1999/xlink" width="200" height="200"><path d="M39.384615 78.651441A78.7692 78.7692 0 0 1 118.350739 0.000394h787.298159C949.24765 0.000394 984.615021 35.249611 984.615021 78.651441v866.697512A78.7692 78.7692 0 0 1 905.648898 1024H118.350739A78.84797 78.84797 0 0 1 39.384615 945.348953V78.651441zM527.635505 328.861806c-4.923075 14.020918-9.727996 30.641219-14.454149 49.939673h-1.575384a257.850978 257.850978 0 0 0-12.878764-49.388289L423.305698 118.154195H315.076817v349.73525h67.268897V269.981828c0-29.420296-0.984615-58.840593-2.91446-88.300273h1.851076c5.435075 25.757529 9.215996 41.511369 11.30338 47.300905l87.23689 238.828215h59.352592l86.21289-241.191291c2.756922-7.522459 6.459074-22.488607 11.027688-44.898445h1.811692c-2.087384 29.577835-3.150768 54.19321-3.150768 73.806741v212.282995H708.922819V118.154195h-105.629497l-75.657817 210.707611zM227.643005 562.412485v80.344585h576.708701v-80.344585H227.643005z m0 185.343929v80.344584h373.169087v-80.344584H227.682389z" fill="#20A0FF" p-id="88178"></path></svg>