<?xml version="1.0" standalone="no"?><!DOCTYPE svg PUBLIC "-//W3C//DTD SVG 1.1//EN" "http://www.w3.org/Graphics/SVG/1.1/DTD/svg11.dtd"><svg t="1760693932853" class="icon" viewBox="0 0 1024 1024" version="1.1" xmlns="http://www.w3.org/2000/svg" p-id="88336" xmlns:xlink="http://www.w3.org/1999/xlink" width="200" height="200"><path d="M850.432 61.44h-680.96c-39.424 0-74.24 28.16-74.24 64v760.832c0 35.84 34.816 64 74.24 64h680.96c39.424 0 74.24-28.16 74.24-64V125.44c0-35.84-34.816-64-74.24-64z m-214.016 592.896c0 23.04-11.776 34.816-34.304 34.816h-52.224l-8.192-28.672c18.432 1.024 35.328 1.536 50.688 1.536 9.216 0 14.336-6.144 14.336-17.92v-80.384h-174.08c-5.12 52.736-19.968 95.744-46.592 130.048l-22.016-19.968c26.624-36.352 39.936-82.432 40.96-138.24V337.92h231.424v316.416z" fill="#69B3FA" p-id="88337"></path><path d="M434.176 463.872h172.544v72.704H434.176zM434.176 366.08h172.544v70.656H434.176z" fill="#69B3FA" p-id="88338"></path></svg>