<?xml version="1.0" standalone="no"?><!DOCTYPE svg PUBLIC "-//W3C//DTD SVG 1.1//EN" "http://www.w3.org/Graphics/SVG/1.1/DTD/svg11.dtd"><svg t="1714047998255" class="icon" viewBox="0 0 1024 1024" version="1.1" xmlns="http://www.w3.org/2000/svg" p-id="4635" xmlns:xlink="http://www.w3.org/1999/xlink" width="200" height="200"><path d="M525.632 461.952a50.432 50.432 0 0 1 55.296 0 52.992 52.992 0 0 1 23.232 51.328h308.672c13.568 0 26.688 5.504 36.288 15.36a53.12 53.12 0 0 1 15.04 37.12v344a53.12 53.12 0 0 1-15.04 37.12 50.816 50.816 0 0 1-36.288 15.424H52.16a51.968 51.968 0 0 1-51.328-52.48V565.76c0-28.992 23.04-52.544 51.328-52.544H502.4a52.992 52.992 0 0 1 23.232-51.328z m-394.752 244.288v126.528h126.08v-126.528h-126.08z m191.488 0v126.464h126.4v-126.528H322.368z" fill="#3FA8C0" p-id="4636"></path><path d="M966.08 452.8H862.08c0-211.584-156.16-338.816-312.192-338.816-156.16 0-312.256 127.232-312.256 338.816H133.504C133.504 176.128 341.632 1.088 549.76 1.088c208.128 0 416.256 175.04 416.256 451.712z" fill="#B3F1FF" p-id="4637"></path><path d="M757.952 452.8h-104.064c0-72.064-52.032-112.96-104.064-112.96-52.096 0-104.128 40.96-104.128 112.96H341.632c0-137.216 104.064-225.92 208.192-225.92 104.064 0 208.128 88.704 208.128 225.92z" fill="#B3F1FF" p-id="4638"></path></svg>