<?xml version="1.0" standalone="no"?><!DOCTYPE svg PUBLIC "-//W3C//DTD SVG 1.1//EN" "http://www.w3.org/Graphics/SVG/1.1/DTD/svg11.dtd"><svg t="1728962013466" class="icon" viewBox="0 0 1024 1024" version="1.1" xmlns="http://www.w3.org/2000/svg" p-id="4283" xmlns:xlink="http://www.w3.org/1999/xlink" width="200" height="200"><path d="M750.311 639.24C770.83 354.157 644.55 173.475 518.141 99.972l-7.343-4.347-7.405 4.347C377.057 173.474 249.222 354.157 271.295 639.17c-63.107 60.256-91.02 132.259-91.02 232.181v17.591l202.757-39.666c13.179 45.509 66.093 79.335 127.833 79.335 61.69 0 114.595-33.762 127.78-77.85l204.25 41.165v-17.591c0-102.837-27.915-174.843-92.584-235.095zM510.894 526.796c-42.501 0-76.95-34.454-76.95-76.955 0-42.504 34.449-76.956 76.95-76.956 42.506 0 76.957 34.452 76.957 76.956 0 42.501-34.451 76.955-76.957 76.955z" fill="#1296DB" p-id="4284"></path></svg>