<?xml version="1.0" standalone="no"?><!DOCTYPE svg PUBLIC "-//W3C//DTD SVG 1.1//EN" "http://www.w3.org/Graphics/SVG/1.1/DTD/svg11.dtd"><svg t="1760693968925" class="icon" viewBox="0 0 1024 1024" version="1.1" xmlns="http://www.w3.org/2000/svg" p-id="91604" xmlns:xlink="http://www.w3.org/1999/xlink" width="200" height="200"><path d="M512 0a512 512 0 1 1 0 1024A512 512 0 0 1 512 0z m181.76 298.666667h-363.52c-40.96 0-74.24 33.109333-74.24 73.898666v290.360889c0 40.732444 33.28 73.841778 74.24 73.841778H404.48l74.24 68.835556c5.12 2.503111 7.68 5.063111 12.8 5.063111 10.24 0 20.48-7.623111 20.48-20.366223v-50.972444h181.76c40.96 0 74.24-33.109333 74.24-73.841778v-292.977778c0-40.732444-33.28-73.841778-74.24-73.841777z m-75.093333 128a21.333333 21.333333 0 1 1 0 42.666666h-85.333334v149.333334a21.333333 21.333333 0 1 1-42.666666 0V469.333333h-85.333334a21.333333 21.333333 0 1 1 0-42.666666h213.333334z" fill="#FAAD14" p-id="91605"></path></svg>