<?xml version="1.0" standalone="no"?><!DOCTYPE svg PUBLIC "-//W3C//DTD SVG 1.1//EN" "http://www.w3.org/Graphics/SVG/1.1/DTD/svg11.dtd"><svg t="1760693972213" class="icon" viewBox="0 0 1024 1024" version="1.1" xmlns="http://www.w3.org/2000/svg" p-id="91931" xmlns:xlink="http://www.w3.org/1999/xlink" width="200" height="200"><path d="M683.776 164.352a55.808 55.808 0 1 0-105.984-34.9184L336.981333 859.648a55.790933 55.790933 0 1 0 105.984 34.9184L683.844267 164.352h-0.0512zM179.712 327.168l-66.9184-36.5568a33.467733 33.467733 0 0 1 0-58.88l66.901333-36.6592a9.472 9.472 0 0 0 3.805867-3.7888l36.608-66.9184a33.4848 33.4848 0 0 1 58.88 0l37.9392 69.3248 69.376 37.9392a33.4848 33.4848 0 0 1 0 58.88l-66.9184 36.6592a9.472 9.472 0 0 0-3.7888 3.7376l-36.608 66.9184a33.501867 33.501867 0 0 1-58.88 0l-36.608-66.9184a9.489067 9.489067 0 0 0-3.7888-3.7376z m591.4624 302.8992l-57.5488-31.488a28.808533 28.808533 0 0 1 0-50.688l57.5488-31.488a8.192 8.192 0 0 0 3.2768-3.2256l31.488-57.6a28.8256 28.8256 0 0 1 50.688 0l32.597333 59.6992 59.665067 32.6144a28.7744 28.7744 0 0 1 0 50.688l-57.5488 31.488a8.192 8.192 0 0 0-3.2768 3.2256l-31.488 57.6a28.8256 28.8256 0 0 1-50.688 0l-31.4368-57.6a8.192 8.192 0 0 0-3.2768-3.2256z" fill="#5573EB" p-id="91932"></path><path d="M713.6256 598.5792l57.5488 31.488a8.192 8.192 0 0 1 3.2768 3.2256l31.4368 57.6a28.808533 28.808533 0 0 0 50.688 0l31.488-57.6a8.192 8.192 0 0 1 3.2768-3.2256l57.5488-31.488a28.7744 28.7744 0 0 0 0-50.688l-59.648-32.6144-32.6144-59.6992a28.842667 28.842667 0 0 0-50.688 0l-31.488 57.6a8.192 8.192 0 0 1-3.2768 3.2256l-57.5488 31.488a28.842667 28.842667 0 0 0 0 50.688z" fill="#DA63F7" p-id="91933"></path></svg>