<?xml version="1.0" standalone="no"?><!DOCTYPE svg PUBLIC "-//W3C//DTD SVG 1.1//EN" "http://www.w3.org/Graphics/SVG/1.1/DTD/svg11.dtd"><svg t="1760693970728" class="icon" viewBox="0 0 1024 1024" version="1.1" xmlns="http://www.w3.org/2000/svg" p-id="91767" xmlns:xlink="http://www.w3.org/1999/xlink" width="200" height="200"><path d="M0 0m298.666667 0l426.666666 0q298.666667 0 298.666667 298.666667l0 426.666666q0 298.666667-298.666667 298.666667l-426.666666 0q-298.666667 0-298.666667-298.666667l0-426.666666q0-298.666667 298.666667-298.666667Z" fill="#E8F1FF" p-id="91768"></path><path d="M598.812444 256c11.150222 0 20.849778 10.808889 20.849778 23.182222v170.183111h127.829334c4.209778 0 8.362667 1.564444 11.093333 4.636445a24.092444 24.092444 0 0 1 9.045333 15.075555 24.718222 24.718222 0 0 1-3.413333 17.408l-162.616889 270.677334a19.569778 19.569778 0 0 1-6.883556 7.822222 18.602667 18.602667 0 0 1-9.784888 3.015111c-11.093333 0-20.821333-10.808889-20.821334-23.182222v-170.183111h-127.886222a14.677333 14.677333 0 0 1-11.093333-4.636445 24.689778 24.689778 0 0 1-5.518223-32.483555l162.531556-270.677334a19.598222 19.598222 0 0 1 6.912-7.822222 18.574222 18.574222 0 0 1 9.756444-3.015111zM252.216889 299.889778h197.290667c6.542222 0 12.8 2.702222 17.436444 7.509333a26.083556 26.083556 0 0 1 7.224889 18.090667 26.112 26.112 0 0 1-7.224889 18.090666 24.234667 24.234667 0 0 1-17.436444 7.509334H252.216889a24.234667 24.234667 0 0 1-17.436445-7.509334 26.112 26.112 0 0 1-7.224888-18.090666c0-6.798222 2.588444-13.312 7.224888-18.090667a24.206222 24.206222 0 0 1 17.436445-7.509333z m0 365.710222h197.290667c6.542222 0 12.8 2.702222 17.436444 7.509333a26.112 26.112 0 0 1 7.224889 18.090667 26.112 26.112 0 0 1-7.224889 18.090667 24.206222 24.206222 0 0 1-17.436444 7.509333H252.216889a24.206222 24.206222 0 0 1-17.436445-7.509333A26.112 26.112 0 0 1 227.555556 691.2c0-6.798222 2.588444-13.312 7.224888-18.090667a24.206222 24.206222 0 0 1 17.436445-7.509333z m0-182.869333h91.591111c6.542222 0 12.8 2.702222 17.436444 7.509333a26.112 26.112 0 0 1 7.224889 18.090667 26.112 26.112 0 0 1-7.224889 18.119111 24.206222 24.206222 0 0 1-17.436444 7.480889h-91.591111a24.206222 24.206222 0 0 1-17.436445-7.480889A26.112 26.112 0 0 1 227.555556 508.302222c0-6.769778 2.588444-13.283556 7.224888-18.090666a24.206222 24.206222 0 0 1 17.436445-7.509334z" fill="#1677FF" p-id="91769"></path></svg>