<?xml version="1.0" standalone="no"?><!DOCTYPE svg PUBLIC "-//W3C//DTD SVG 1.1//EN" "http://www.w3.org/Graphics/SVG/1.1/DTD/svg11.dtd"><svg t="1760693964848" class="icon" viewBox="0 0 1433 1024" version="1.1" xmlns="http://www.w3.org/2000/svg" p-id="90616" xmlns:xlink="http://www.w3.org/1999/xlink" width="279.8828125" height="200"><path d="M79.694848 879.616h1274.2656c44.032 0 79.6672 32.3584 79.6672 72.192 0 39.936-35.6352 72.192-79.6672 72.192H79.694848C35.662848 1024 0.027648 991.6416 0.027648 951.808c0-39.936 35.6352-72.192 79.6672-72.192z m0-866.304h398.2336c44.032 0 79.5648 32.3584 79.5648 72.192 0 39.936-35.6352 72.192-79.5648 72.192H79.592448a81.5104 81.5104 0 0 1-68.9152-36.0448 66.3552 66.3552 0 0 1 0-72.192 81.5104 81.5104 0 0 1 69.0176-36.0448z m0 433.152h398.2336c44.032 0 79.5648 32.3584 79.5648 72.192 0 39.936-35.6352 72.192-79.5648 72.192H79.592448C35.765248 590.848 0.027648 558.592 0.027648 518.656c0-39.936 35.6352-72.192 79.6672-72.192zM1084.034048 86.4256a23.8592 23.8592 0 0 1 15.4624 14.0288l58.6752 155.8528a47.104 47.104 0 0 0 28.3648 27.136l142.9504 52.5312a22.7328 22.7328 0 0 1 15.5648 20.8896c0 9.216-6.144 17.5104-15.5648 20.992l-142.9504 52.4288a47.3088 47.3088 0 0 0-28.3648 27.2384l-58.6752 155.7504a24.8832 24.8832 0 0 1-23.552 15.36 24.8832 24.8832 0 0 1-23.552-15.36l-58.6752-155.648a47.3088 47.3088 0 0 0-28.3648-27.3408L822.299648 377.7536a22.7328 22.7328 0 0 1-15.4624-20.8896c0-9.216 6.144-17.408 15.36-20.8896l143.0528-52.5312a47.3088 47.3088 0 0 0 28.3648-27.136L1052.392448 100.352c4.4032-11.776 18.5344-18.0224 31.6416-14.0288zM1287.195648 0.9216a18.0224 18.0224 0 0 1 11.8784 10.752l10.4448 28.0576c4.7104 12.288 15.0528 22.3232 28.4672 27.2384l23.04 8.4992a17.6128 17.6128 0 0 1 12.288 16.1792c0 7.168-4.9152 13.6192-12.288 16.2816l-23.04 8.3968a47.3088 47.3088 0 0 0-28.4672 27.2384l-10.4448 28.16a18.8416 18.8416 0 0 1-17.92 11.776 18.8416 18.8416 0 0 1-17.92-11.776l-10.5472-28.16a47.3088 47.3088 0 0 0-28.4672-27.2384l-23.04-8.4992a17.6128 17.6128 0 0 1-12.288-16.1792c0-7.168 4.9152-13.6192 12.288-16.2816l23.04-8.3968a47.3088 47.3088 0 0 0 28.4672-27.2384l10.5472-28.16a17.8176 17.8176 0 0 1 9.5232-9.8304 20.6848 20.6848 0 0 1 14.4384-0.8192z" fill="#8080FF" p-id="90617"></path></svg>