<?xml version="1.0" standalone="no"?><!DOCTYPE svg PUBLIC "-//W3C//DTD SVG 1.1//EN" "http://www.w3.org/Graphics/SVG/1.1/DTD/svg11.dtd"><svg t="1760693954756" class="icon" viewBox="0 0 1024 1024" version="1.1" xmlns="http://www.w3.org/2000/svg" p-id="89473" xmlns:xlink="http://www.w3.org/1999/xlink" width="200" height="200"><path d="M602.24 64c12.864 0 23.36 10.496 23.36 23.488 0 64.64 52.48 117.312 116.992 117.312a23.488 23.488 0 0 1 0 46.912 117.312 117.312 0 0 0-116.928 117.376 23.488 23.488 0 0 1-40 16.576 23.424 23.424 0 0 1-6.848-16.64c0-64.64-52.48-117.312-116.992-117.312a23.488 23.488 0 0 1 0-46.912 117.312 117.312 0 0 0 116.992-117.312c0-12.928 10.496-23.488 23.36-23.488z m0 108.032a165.76 165.76 0 0 1-56.128 56.256c22.976 13.888 42.24 33.28 56.128 56.256a165.76 165.76 0 0 1 56.064-56.32 165.76 165.76 0 0 1-56.064-56.192zM110.848 509.888a23.424 23.424 0 0 0-23.36-23.488 23.488 23.488 0 1 1 0-46.912 23.488 23.488 0 0 0 23.36-23.488 23.424 23.424 0 1 1 46.784 0c0 12.928 10.496 23.488 23.424 23.488a23.488 23.488 0 1 1 0 46.912 23.424 23.424 0 0 0-23.424 23.488 23.488 23.488 0 0 1-39.936 16.576 23.424 23.424 0 0 1-6.848-16.64zM368.192 294.656a69.568 69.568 0 0 1 49.664 20.544l295.936 296.768 23.424 23.552 87.424 87.68 22.528 22.528 6.784 6.784 18.112 18.24 5.312 5.312 17.6 17.664 3.52 3.456 8.192 8.32c0.768 0.64 1.408 1.344 2.048 1.984l2.944 2.944 1.664 1.664c13.184 13.248 20.48 30.912 20.48 49.792a69.952 69.952 0 0 1-20.48 49.792l-10.88 10.88-16.576 16.64a69.76 69.76 0 0 1-49.664 20.544c-18.816 0-36.416-7.296-49.664-20.544l-270.976-271.744-24.96-25.024-23.424-23.488-21.952-22.08-20.48-20.608-19.136-19.072-8.96-8.96-16.832-16.96-7.872-7.872-14.72-14.72-6.72-6.784-12.48-12.544-5.696-5.696-19.072-19.072-10.432-10.496-11.52-11.52a70.208 70.208 0 0 1-20.672-49.984 69.952 69.952 0 0 1 20.48-49.856l10.88-10.88 8.064-8.128 7.104-7.168 1.408-1.344a69.76 69.76 0 0 1 49.6-20.544z m0.064 46.912a23.168 23.168 0 0 0-16.576 6.848l-27.392 27.52-2.88 3.52a23.552 23.552 0 0 0 2.944 29.632L391.68 476.608l60.544-60.672-8.704-8.704-15.552-15.616-28.416-28.544-7.232-7.168-6.272-6.336-1.216-1.152a23.36 23.36 0 0 0-16.576-6.848z" fill="#0099ff" p-id="89474"></path><path d="M845.184 911.04a23.04 23.04 0 0 1-17.856 0 23.232 23.232 0 0 1-7.616-5.12l-394.88-396.032 60.48-60.672 394.88 396.096a23.552 23.552 0 0 1 0 33.152l-27.392 27.52a23.04 23.04 0 0 1-7.616 5.056zM227.84 64c12.928 0 23.424 10.496 23.424 23.488a70.4 70.4 0 0 0 70.144 70.4 23.488 23.488 0 0 1 0 46.912 70.4 70.4 0 0 0-70.144 70.4 23.424 23.424 0 1 1-46.784 0 70.4 70.4 0 0 0-70.208-70.4 23.488 23.488 0 1 1 0-46.912 70.4 70.4 0 0 0 70.208-70.4c0-12.928 10.432-23.488 23.36-23.488z m0 93.824a119.04 119.04 0 0 1-23.488 23.488c8.96 6.72 16.832 14.72 23.488 23.616 6.72-8.96 14.656-16.896 23.488-23.616a119.04 119.04 0 0 1-23.488-23.488zM227.84 533.312c12.928 0 23.424 10.56 23.424 23.488a70.4 70.4 0 0 0 70.144 70.4 23.488 23.488 0 1 1 0 46.912 70.4 70.4 0 0 0-70.144 70.4 23.424 23.424 0 1 1-46.848 0 70.4 70.4 0 0 0-70.144-70.4 23.488 23.488 0 0 1 0-46.912 70.4 70.4 0 0 0 70.144-70.4c0-12.928 10.496-23.488 23.424-23.488z m0 93.824a119.04 119.04 0 0 1-23.488 23.488c8.96 6.72 16.768 14.72 23.488 23.616 6.72-8.96 14.592-16.896 23.488-23.616A119.04 119.04 0 0 1 227.84 627.2z" fill="#0099ff" p-id="89475"></path></svg>