<?xml version="1.0" standalone="no"?><!DOCTYPE svg PUBLIC "-//W3C//DTD SVG 1.1//EN" "http://www.w3.org/Graphics/SVG/1.1/DTD/svg11.dtd"><svg t="1760694281508" class="icon" viewBox="0 0 1024 1024" version="1.1" xmlns="http://www.w3.org/2000/svg" p-id="130068" xmlns:xlink="http://www.w3.org/1999/xlink" width="200" height="200"><path d="M112.262737 240.289684h819.658105V47.157895H112.262737z" fill="#A9FFF0" p-id="130069"></path><path d="M471.578947 687.157895m33.684211 0l256 0q33.684211 0 33.68421 33.68421l0 0q0 33.684211-33.68421 33.684211l-256 0q-33.684211 0-33.684211-33.684211l0 0q0-33.684211 33.684211-33.68421Z" fill="#f39955" p-id="130070"></path><path d="M476.968421 444.631579m33.684211 0l242.526315 0q33.684211 0 33.684211 33.68421l0 0q0 33.684211-33.684211 33.684211l-242.526315 0q-33.684211 0-33.684211-33.684211l0 0q0-33.684211 33.684211-33.68421Z" fill="#f39955" p-id="130071"></path><path d="M916.803368 2.048H193.185684a139.317895 139.317895 0 1 0 0 278.608842H970.105263v-225.28A53.355789 53.355789 0 0 0 916.830316 2.048m-14.039579 67.368421v143.898947H193.158737a71.976421 71.976421 0 0 1-71.868632-71.949473 72.003368 72.003368 0 0 1 71.868632-71.949474H902.736842" fill="#1b7264" p-id="130072"></path><path d="M916.614737 0H195.691789A141.797053 141.797053 0 0 0 53.894737 141.797053v740.405894A141.797053 141.797053 0 0 0 195.691789 1024h632.616422A141.797053 141.797053 0 0 0 970.105263 882.202947V53.490526A53.490526 53.490526 0 0 0 916.614737 0M902.736842 67.368421v814.834526a74.509474 74.509474 0 0 1-74.428631 74.428632H195.691789A74.509474 74.509474 0 0 1 121.263158 882.202947V141.797053A74.509474 74.509474 0 0 1 195.691789 67.368421H902.736842" fill="#1b7264" p-id="130073"></path><path d="M236.267838 428.172174m19.054667 19.054667l57.164001 57.164001q19.054667 19.054667 0 38.109334l0 0q-19.054667 19.054667-38.109334 0l-57.164-57.164001q-19.054667-19.054667 0-38.109334l0 0q19.054667-19.054667 38.109333 0Z" fill="#f39955" p-id="130074"></path><path d="M426.814508 428.172174m-19.054667 19.054667l-95.273335 95.273335q-19.054667 19.054667-38.109334 0l0 0q-19.054667-19.054667 0-38.109334l95.273335-95.273335q19.054667-19.054667 38.109334 0l0 0q19.054667 19.054667 0 38.109334Z" fill="#f39955" p-id="130075"></path><path d="M236.275424 670.680178m19.054667 19.054667l57.164 57.164001q19.054667 19.054667 0 38.109333l0 0q-19.054667 19.054667-38.109333 0l-57.164001-57.164q-19.054667-19.054667 0-38.109334l0 0q19.054667-19.054667 38.109334 0Z" fill="#f39955" p-id="130076"></path><path d="M426.822093 670.680178m-19.054667 19.054667l-95.273335 95.273334q-19.054667 19.054667-38.109333 0l0 0q-19.054667-19.054667 0-38.109333l95.273334-95.273335q19.054667-19.054667 38.109334 0l0 0q19.054667 19.054667 0 38.109334Z" fill="#f39955" p-id="130077"></path></svg>