<?xml version="1.0" standalone="no"?><!DOCTYPE svg PUBLIC "-//W3C//DTD SVG 1.1//EN" "http://www.w3.org/Graphics/SVG/1.1/DTD/svg11.dtd"><svg t="1760694277258" class="icon" viewBox="0 0 1024 1024" version="1.1" xmlns="http://www.w3.org/2000/svg" p-id="129908" xmlns:xlink="http://www.w3.org/1999/xlink" width="200" height="200"><path d="M64 0h768a64 64 0 0 1 64 64v896a64 64 0 0 1-64 64H64a64 64 0 0 1-64-64V64a64 64 0 0 1 64-64z m160 128v96h448V128h-448z m0 320v96h448V448h-448z m0 320v96h448V768h-448z" fill="#FDAD02" p-id="129909"></path><path d="M825.6 168.704l180.992 180.992-497.792 497.856-226.304 45.248 45.248-226.304z" fill="#CF5F00" p-id="129910"></path></svg>