<?xml version="1.0" standalone="no"?><!DOCTYPE svg PUBLIC "-//W3C//DTD SVG 1.1//EN" "http://www.w3.org/Graphics/SVG/1.1/DTD/svg11.dtd"><svg t="1711732413367" class="icon" viewBox="0 0 1024 1024" version="1.1" xmlns="http://www.w3.org/2000/svg" p-id="1513" xmlns:xlink="http://www.w3.org/1999/xlink" width="200" height="200"><path d="M548.352 825.856h118.784c6.656 0 12.288-5.632 12.288-12.288l-3.584-106.496c-0.512-12.8 5.632-24.576 16.384-31.232 150.016-99.328 191.488-301.568 92.16-451.584-99.328-150.016-301.568-191.488-451.584-92.16C182.784 231.424 141.312 433.664 240.64 583.68c24.064 36.352 55.296 68.096 92.16 92.16 9.728 6.656 15.872 17.408 16.384 29.184l3.584 110.08c0 6.656 5.632 11.776 12.288 11.776h111.616v-245.248L389.12 488.448c-13.312-14.848-11.776-37.888 3.584-51.2 14.336-12.288 35.84-11.776 49.152 1.536l71.68 76.288 82.432-77.824c14.336-13.824 37.376-13.312 51.2 1.536 13.824 14.336 13.312 37.376-1.536 51.2L547.84 581.632l0.512 244.224z m361.984-422.4c0 126.464-59.904 245.76-161.792 320.512l3.072 87.04c1.536 46.592-34.816 85.504-81.408 87.552H364.032c-45.568 0-82.944-36.352-84.48-81.408l-3.072-92.16C99.328 594.944 60.416 345.6 190.464 167.936 320.512-9.216 569.856-48.128 747.52 81.92c102.4 75.264 162.816 194.56 162.816 321.536zM403.456 1018.88c-19.968 0-36.352-16.384-36.352-36.352 0-19.968 16.384-36.352 36.352-36.352h217.088c19.968 0 36.352 16.384 36.352 36.352 0 19.968-16.384 36.352-36.352 36.352H403.456z" fill="#FEBF72" p-id="1514"></path></svg>