<?xml version="1.0" standalone="no"?><!DOCTYPE svg PUBLIC "-//W3C//DTD SVG 1.1//EN" "http://www.w3.org/Graphics/SVG/1.1/DTD/svg11.dtd"><svg t="1711732723928" class="icon" viewBox="0 0 1024 1024" version="1.1" xmlns="http://www.w3.org/2000/svg" p-id="14787" xmlns:xlink="http://www.w3.org/1999/xlink" width="200" height="200"><path d="M417.261057 0.051197H37.952022A38.270086 38.270086 0 0 0 0.00192 38.705265v386.220689c0 21.310934 16.959152 38.654067 37.950102 38.654067H417.261057c20.99095 0 37.950102-17.279136 37.950103-38.654067V38.705265A38.270086 38.270086 0 0 0 417.261057 0.051197z m0 560.419979H37.952022A38.270086 38.270086 0 0 0 0.00192 599.061247v386.284686c0 21.374931 16.959152 38.654067 37.950102 38.654067H417.261057c20.99095 0 37.950102-17.279136 37.950103-38.654067V599.061247a38.270086 38.270086 0 0 0-37.950103-38.590071z m597.41013-326.831658L790.362402 9.330733a31.550422 31.550422 0 0 0-44.79776 0L521.255857 233.639518a31.678416 31.678416 0 0 0 0 44.79776l224.308785 224.308785a31.678416 31.678416 0 0 0 44.79776 0l224.372781-224.308785a31.742413 31.742413 0 0 0-0.063996-44.79776z m-28.734564 326.831658H606.563592a38.270086 38.270086 0 0 0-37.886106 38.590071v386.284686c0 21.374931 17.023149 38.654067 37.886106 38.654067h379.373031a38.39808 38.39808 0 0 0 38.0141-38.654067V599.061247a38.334083 38.334083 0 0 0-38.0141-38.590071z" fill="#396AFF" p-id="14788"></path></svg>