<?xml version="1.0" standalone="no"?><!DOCTYPE svg PUBLIC "-//W3C//DTD SVG 1.1//EN" "http://www.w3.org/Graphics/SVG/1.1/DTD/svg11.dtd"><svg t="1711732737414" class="icon" viewBox="0 0 1024 1024" version="1.1" xmlns="http://www.w3.org/2000/svg" p-id="1460" xmlns:xlink="http://www.w3.org/1999/xlink" width="200" height="200"><path d="M402.432 77.824v291.328H111.104V77.824h291.328m0-72.704H111.104C74.752 5.12 38.4 41.472 38.4 77.824v291.328c0 43.52 36.352 72.704 72.704 72.704h291.328c36.352 0 72.704-29.184 72.704-72.704V77.824C475.136 34.304 445.952 5.12 402.432 5.12z m501.76 654.848v291.328h-291.328v-291.328h291.328m0-72.704h-291.328c-36.352 0-72.704 29.184-72.704 72.704v291.328c0 43.52 36.352 72.704 72.704 72.704h291.328c36.352 0 72.704-29.184 72.704-72.704v-291.328c0.512-43.52-28.672-72.704-72.704-72.704zM904.192 514.56h-291.328c-36.352 0-72.704-36.352-72.704-72.704V150.528c0-36.352 36.352-72.704 72.704-72.704h291.328c43.52 0 72.704 36.352 72.704 72.704v291.328c0.512 43.52-28.672 72.704-72.704 72.704z m-501.76 421.888H111.104c-36.352 0-72.704-36.352-72.704-72.704v-291.328c0-36.352 29.184-72.704 72.704-72.704h291.328c43.52 0 72.704 36.352 72.704 72.704v291.328c0 36.352-29.184 72.704-72.704 72.704z" p-id="1461"></path></svg>