<?xml version="1.0" standalone="no"?><!DOCTYPE svg PUBLIC "-//W3C//DTD SVG 1.1//EN" "http://www.w3.org/Graphics/SVG/1.1/DTD/svg11.dtd"><svg t="1760692127167" class="icon" viewBox="0 0 1157 1024" version="1.1" xmlns="http://www.w3.org/2000/svg" p-id="23111" xmlns:xlink="http://www.w3.org/1999/xlink" width="225.9765625" height="200"><path d="M1049.466435 0a106.451478 106.451478 0 0 1 106.451478 106.451478v790.928696c0 58.768696-47.638261 106.406957-106.451478 106.406956H106.496A106.451478 106.451478 0 0 1 0 897.424696V106.406957C0 47.682783 47.638261 0 106.451478 0z m0 91.269565H106.496a15.226435 15.226435 0 0 0-15.226435 15.181913v790.928696c0 8.370087 6.811826 15.181913 15.181913 15.181913h942.970435a15.226435 15.226435 0 0 0 15.226435-15.181913V106.406957a15.226435 15.226435 0 0 0-15.181913-15.181914z m-223.499131 198.923131l152.086261 182.53913 1.78087 2.315131c12.332522 16.918261 11.575652 40.025043-1.78087 56.097391l-152.086261 182.53913-1.914434 2.137044c-16.562087 17.497043-43.898435 19.099826-62.374957 3.650782l-2.137043-1.914434a45.634783 45.634783 0 0 1-3.695305-62.330435l127.777392-153.33287-127.777392-153.288348-1.780869-2.270608a45.634783 45.634783 0 0 1 71.902608-56.141913z m-431.727304-5.832348c18.476522 15.404522 21.815652 42.518261 7.613217 61.974261l-1.780869 2.270608-127.777391 153.288348 127.777391 153.33287c15.404522 18.476522 13.801739 45.768348-3.650783 62.330435l-2.181565 1.914434a45.634783 45.634783 0 0 1-62.330435-3.650782l-1.958956-2.181565-152.086261-182.539131c-13.356522-16.027826-14.113391-39.17913-1.78087-56.052869l1.78087-2.359653 152.086261-182.53913a45.634783 45.634783 0 0 1 64.289391-5.787826z m240.417391-9.216c23.418435 5.87687 38.244174 28.93913 33.747479 52.713739L667.826087 330.48487l-91.269565 365.033739a45.634783 45.634783 0 0 1-89.043479-19.545044l0.578783-2.626782 91.269565-365.03374a45.634783 45.634783 0 0 1 55.296-33.168695z" fill="#266DFF" p-id="23112"></path></svg>