<?xml version="1.0" standalone="no"?><!DOCTYPE svg PUBLIC "-//W3C//DTD SVG 1.1//EN" "http://www.w3.org/Graphics/SVG/1.1/DTD/svg11.dtd"><svg t="1760693496917" class="icon" viewBox="0 0 1024 1024" version="1.1" xmlns="http://www.w3.org/2000/svg" p-id="41104" xmlns:xlink="http://www.w3.org/1999/xlink" width="200" height="200"><path d="M511.961604 0A383.961604 383.961604 0 1 0 895.923208 383.961604 383.961604 383.961604 0 0 0 511.961604 0m-255.974403 751.284872v208.619138a62.969703 62.969703 0 0 0 5.119488 24.880712 65.683032 65.683032 0 0 0 13.669033 20.477952 64.454355 64.454355 0 0 0 45.30747 18.737326 63.737626 63.737626 0 0 0 24.880712-5.119488 65.990201 65.990201 0 0 0 20.477952-13.669033l146.724527-146.775723 146.724528 146.775723a63.993601 63.993601 0 0 0 109.249875-45.256275v-208.619138a446.624138 446.624138 0 0 1-511.948805 0m0 0z m255.974402-495.310469a127.987201 127.987201 0 1 1-127.987201 127.987202A127.987201 127.987201 0 0 1 511.961604 255.974403z" fill="#FFA42F" p-id="41105"></path></svg>