<?xml version="1.0" standalone="no"?><!DOCTYPE svg PUBLIC "-//W3C//DTD SVG 1.1//EN" "http://www.w3.org/Graphics/SVG/1.1/DTD/svg11.dtd"><svg t="1760693485267" class="icon" viewBox="0 0 1024 1024" version="1.1" xmlns="http://www.w3.org/2000/svg" p-id="40102" xmlns:xlink="http://www.w3.org/1999/xlink" width="200" height="200"><path d="M456.794 941.069H257.76c-87.575 0-159.227-71.652-159.227-159.227V244.451c0-87.575 71.652-159.227 159.227-159.227h477.681c87.575 0 159.227 71.652 159.227 159.227v155.246c0 21.894-17.913 39.807-39.807 39.807s-39.807-17.913-39.807-39.807V244.451c0-43.787-35.826-79.613-79.614-79.613H257.76c-43.787 0-79.613 35.826-79.613 79.614v537.391c0 43.787 35.826 79.613 79.613 79.613h199.034c21.894 0 39.807 17.913 39.807 39.807s-17.913 39.806-39.807 39.806z" fill="#4282C4" p-id="40103"></path><path d="M705.586 562.905c81.604 0 149.275 67.671 149.275 149.275S787.19 861.456 705.586 861.456 556.311 793.784 556.311 712.18s65.681-149.275 149.275-149.275m0-79.613c-127.382 0-228.889 101.507-228.889 228.889S578.204 941.07 705.586 941.07s228.889-101.508 228.889-228.89c0-125.391-103.498-228.888-228.889-228.888z" fill="#4282C4" p-id="40104"></path><path d="M795.151 771.891h-99.517c-15.923 0-29.855-13.932-29.855-29.855v-119.42c0-15.923 13.932-29.855 29.855-29.855s29.855 13.932 29.855 29.855v89.565h69.662c15.923 0 29.855 13.932 29.855 29.855 0 15.922-13.932 29.855-29.855 29.855z" fill="#4282C4" p-id="40105"></path><path d="M655.827 343.968H317.47c-21.894 0-39.807-17.913-39.807-39.807s17.913-39.807 39.807-39.807h338.357c21.894 0 39.807 17.913 39.807 39.807s-17.913 39.807-39.807 39.807z m-258.743 179.13H317.47c-21.894 0-39.807-17.913-39.807-39.807s17.913-39.807 39.807-39.807h79.614c21.894 0 39.807 17.913 39.807 39.807s-17.914 39.807-39.807 39.807z" fill="#DE8B10" p-id="40106"></path></svg>