<?xml version="1.0" standalone="no"?><!DOCTYPE svg PUBLIC "-//W3C//DTD SVG 1.1//EN" "http://www.w3.org/Graphics/SVG/1.1/DTD/svg11.dtd"><svg t="1760692371224" class="icon" viewBox="0 0 1024 1024" version="1.1" xmlns="http://www.w3.org/2000/svg" p-id="38121" xmlns:xlink="http://www.w3.org/1999/xlink" width="200" height="200"><path d="M1008.48688 903.76H15.52688a15.504 15.504 0 0 1-14.544-20.912l100.848-271.52a15.52 15.52 0 1 1 29.088 10.816L37.83088 872.72h948.112l-92.8-242.704a15.52 15.52 0 1 1 28.992-11.072l100.848 263.76a15.52 15.52 0 0 1-14.496 21.056zM853.33488 65.936H170.67888A62.128 62.128 0 0 0 108.61488 128v434.416a15.52 15.52 0 1 0 31.04 0V128c0-17.072 13.968-31.024 31.024-31.024h682.656c17.072 0 31.024 13.968 31.024 31.024v434.416a15.52 15.52 0 1 0 31.04 0V128a62.128 62.128 0 0 0-62.064-62.064z" fill="#2D5B56" p-id="38122"></path><path d="M849.46288 608.976H174.55088a15.52 15.52 0 1 1 0-31.04h674.912a15.52 15.52 0 1 1 0 31.04z" fill="#2D5B56" p-id="38123"></path><path d="M15.52688 942.544h992.96M1008.48688 958.064H15.52688a15.52 15.52 0 1 1 0-31.04h992.96a15.52 15.52 0 1 1 0 31.04z" fill="#2D5B56" p-id="38124"></path><path d="M907.63888 740.848H116.37488l38.784-116.368h705.936z" fill="#2D5B56" p-id="38125"></path><path d="M445.52688 375.232c-5.072 0-11.68-0.112-19.808-0.352l-19.824-0.448-26.448-0.352a150.912 150.912 0 0 1-11.408-0.352c-1.712-0.288-2.56-1.216-2.56-2.736 0-6.432 0.096-16.064 0.304-28.88 0.208-12.832 0.304-22.448 0.304-28.88 0-6.848-0.208-17.088-0.624-30.736s-0.624-23.904-0.624-30.752c0-1.296 0.88-1.936 2.656-1.936 1.776 0 4.416 0.08 7.92 0.272 3.504 0.176 6.128 0.272 7.824 0.272 1.952 0 4.832-0.096 8.672-0.304 3.84-0.208 6.72-0.304 8.672-0.304 0.88 0 1.296 0.56 1.232 1.68l-0.08 1.152c-0.704 11.088-1.504 27.744-2.384 49.984l-0.08 23.36c0 7.552 0.032 13.072 0.08 16.544l0.176 2.128c0.064 0.704 0.496 1.152 1.328 1.328h2.304c5.312 0 13.248-0.288 23.84-0.848a495.904 495.904 0 0 1 23.84-0.848c1.584 0 2.384 0.672 2.384 2.032 0 10.08-0.736 18.784-2.208 26.096-0.288 1.536-0.912 2.448-1.856 2.736a22.688 22.688 0 0 1-3.632 0.144zM499.22288 308.352c0 6.96 0.176 17.424 0.528 31.408 0.352 13.984 0.528 24.448 0.528 31.408 0 1.184-0.272 1.92-0.8 2.208a17.6 17.6 0 0 1-2.304 0.352c-3.84 0.464-8.96 0.704-15.392 0.704-8.608 0-14.096-0.24-16.448-0.704-1.712-0.352-2.56-1.264-2.56-2.736 0 0.944 0.272-4.24 0.8-15.568 1.056-23.888 1.584-39.568 1.584-47.072 0-6.304-0.208-15.776-0.624-28.4a942.72 942.72 0 0 1-0.624-28.4c0-1.296 0.672-1.952 2.032-1.952 1.824 0 4.592 0.08 8.272 0.272 3.68 0.176 6.448 0.272 8.272 0.272 1.824 0 4.528-0.08 8.096-0.272 3.568-0.176 6.272-0.272 8.096-0.272 1.712 0 2.576 0.64 2.576 1.952 0 6.304-0.352 15.776-1.024 28.4a584.928 584.928 0 0 0-1.008 28.4zM649.19088 370.992c0 1.824-0.864 2.736-2.576 2.736h-31.312c-1.712 0-2.576-1.024-2.576-3.088 0-5.952 0.224-14.896 0.672-26.8a814.72 814.72 0 0 0 0.656-26.8c0-1.712-0.272-2.624-0.8-2.752-0.64 0.352-4.592 9.472-11.856 27.344l-12.736 31.408c-0.592 1.36-1.328 2.144-2.208 2.384a34.4 34.4 0 0 1-3.536 0.08c-3.072 0-4.896-0.592-5.488-1.776a569.984 569.984 0 0 1-12.576-28.304 851.152 851.152 0 0 0-12.464-28.4 2.88 2.88 0 0 0-0.8-0.976c-0.416 0.528-0.624 1.392-0.624 2.56 0 5.776 0.144 14.448 0.432 26.016 0.288 11.568 0.448 20.224 0.448 26.016 0 2.064-0.832 3.088-2.48 3.088h-29.552c-1.184 0-1.904-0.192-2.16-0.576-0.272-0.384-0.4-1.04-0.4-1.984 0-6.432 0.304-16.08 0.928-28.976 0.624-12.88 0.928-22.544 0.928-28.976 0-6.848-0.288-19.664-0.88-38.48-0.064-4.896-0.32-12.176-0.8-21.856l-0.096-1.504c-0.064-1.184 1.184-1.776 3.712-1.776 3.248 0 8.112-0.096 14.592-0.304 6.496-0.208 11.36-0.304 14.592-0.304 0.656 0 1.568 1.232 2.736 3.712l25.84 56.704c1.84 3.84 3.36 5.744 4.608 5.744 0.64 0 2.032-2.208 4.16-6.64 5.952-12.384 14.768-31.056 26.448-56 1.008-2.304 2.096-3.456 3.28-3.456a148.8 148.8 0 0 1 7.744 0.272c3.456 0.176 6.064 0.272 7.84 0.272 1.472 0 3.728-0.144 6.768-0.448 3.04-0.288 5.296-0.448 6.768-0.448 1.76 0 2.656 0.704 2.656 2.128 0 6.96-0.256 17.36-0.752 31.184a911.76 911.76 0 0 0-0.752 31.184c0 6.432 0.272 16.064 0.8 28.928 0.544 12.88 0.816 22.496 0.816 28.864zM725.97488 333.04c0 11.968-5.04 22.24-15.136 30.784-8.848 7.552-19.616 12.352-32.288 14.416a8.96 8.96 0 0 1-1.136 0.096c-1.36 0-4.368-4.144-9.024-12.432-4.656-8.288-6.992-13.344-6.992-15.168 0-0.64 0.432-1.056 1.328-1.232 8.56-1.952 14.208-3.6 16.992-4.96 6.144-3.072 9.2-7.6 9.2-13.632 0-3.84-2-8.112-6.016-12.832-6.96-8.016-10.736-12.48-11.328-13.36a36.048 36.048 0 0 1-6.112-20.352c0-10.784 4.992-19.76 14.96-26.896 8.144-5.904 18.144-9.728 30-11.504a15.008 15.008 0 0 1 1.504-0.08c0.88 0 1.584 0.704 2.128 2.128 1.536 4.304 5.104 12.096 10.704 23.36a2.08 2.08 0 0 1 0.272 0.88c0 1.008-0.528 1.504-1.584 1.504a15.776 15.776 0 0 1-2.384-0.272 18.256 18.256 0 0 0-2.576-0.272c-4.24 0-7.968 0.976-11.136 2.928-3.84 2.24-5.744 5.36-5.744 9.376 0 3.6 2.128 8.016 6.368 13.264l11.76 14.864c4.144 6.512 6.24 12.96 6.24 19.392z" fill="#009245" p-id="38126"></path><path d="M255.23888 539.152h-46.544a31.12 31.12 0 0 1-31.024-31.024V159.04A31.104 31.104 0 0 1 208.69488 128h46.544c17.072 0 31.024 13.968 31.024 31.024v349.088c0 17.072-13.968 31.04-31.024 31.04z" fill="#A9FFA9" p-id="38127"></path><path d="M790.50288 174.544H371.59088a15.568 15.568 0 0 1-15.52-15.52c0-8.528 6.976-15.52 15.52-15.52h418.912c8.528 0 15.52 6.976 15.52 15.52s-6.992 15.52-15.52 15.52z" fill="#FFA9A9" p-id="38128"></path><path d="M356.08688 539.152h449.936v-124.128l-139.648 69.824-85.328-38.784z" fill="#ABCDFF" p-id="38129"></path><path d="M604.32688 857.216H418.13488c-13.296 0-19.872-5.728-23.04-10.528-8.976-13.632-0.592-34.192 0.384-36.496l15.376-41.04a7.776 7.776 0 0 1 14.528 5.456l-15.52 41.376c-2.192 5.168-5.312 16.912-1.824 22.176 1.552 2.352 4.944 3.536 10.064 3.536H604.32688a7.76 7.76 0 1 1 0 15.52z" fill="#CCCCCC" p-id="38130"></path><path d="M619.83088 857.216H433.65488a7.76 7.76 0 1 1 0-15.52h186.176c5.136 0 8.512-1.184 10.064-3.536 3.488-5.264 0.368-17.008-1.696-21.872l-15.648-41.68a7.776 7.776 0 0 1 14.544-5.456l15.52 41.376c0.848 1.968 9.232 22.544 0.256 36.16-3.168 4.8-9.728 10.528-23.04 10.528z" fill="#CCCCCC" p-id="38131"></path></svg>