<?xml version="1.0" standalone="no"?><!DOCTYPE svg PUBLIC "-//W3C//DTD SVG 1.1//EN" "http://www.w3.org/Graphics/SVG/1.1/DTD/svg11.dtd"><svg t="1760692324113" class="icon" viewBox="0 0 1024 1024" version="1.1" xmlns="http://www.w3.org/2000/svg" p-id="32308" xmlns:xlink="http://www.w3.org/1999/xlink" width="200" height="200"><path d="M424.213897 407.333084a107.21211 107.21211 0 0 0-39.201707-34.461035 115.325951 115.325951 0 0 0-40.204541-9.116676 116.419953 116.419953 0 0 0-40.660375 9.116676 107.667944 107.667944 0 0 0-39.11054 34.461035 185.15969 185.15969 0 0 0-23.247524 50.506385 214.059553 214.059553 0 0 0-7.202174 55.15589 194.732199 194.732199 0 0 0 7.749175 54.700056 178.413349 178.413349 0 0 0 23.156357 49.412384 105.571108 105.571108 0 0 0 39.201706 33.549367 94.904597 94.904597 0 0 0 40.113375 9.116676 107.120943 107.120943 0 0 0 39.748707-9.116676 106.026942 106.026942 0 0 0 39.11054-33.549367A178.413349 178.413349 0 0 0 446.823253 567.604248a209.683548 209.683548 0 0 0 8.296175-54.700056 231.928238 231.928238 0 0 0-7.749174-55.15589 184.886189 184.886189 0 0 0-23.156357-50.415218z" fill="#1296db" p-id="32309"></path><path d="M512.007487 0a511.992524 511.992524 0 1 0 511.992524 511.901358A511.901358 511.901358 0 0 0 512.007487 0z m1.276334 595.41011a205.581044 205.581044 0 0 1-39.65754 67.463402 171.758176 171.758176 0 0 1-64.910733 42.301377 239.403912 239.403912 0 0 1-63.816732 10.757678 214.515386 214.515386 0 0 1-64.363733-10.757678 172.48751 172.48751 0 0 1-64.910733-42.301377 205.581044 205.581044 0 0 1-39.657541-67.463402 255.996262 255.996262 0 0 1-13.401514-82.050084 263.38077 263.38077 0 0 1 13.401514-82.961752 206.948545 206.948545 0 0 1 39.657541-67.554569 166.28817 166.28817 0 0 1 64.819566-43.760045 227.9169 227.9169 0 0 1 64.363733-11.395845 226.640565 226.640565 0 0 1 63.816732 11.395845 165.558836 165.558836 0 0 1 64.910733 43.213044 206.948545 206.948545 0 0 1 39.657541 67.55457 274.867781 274.867781 0 0 1 13.948514 82.961751 266.75394 266.75394 0 0 1-13.857348 82.597085z m338.50218 56.705724a100.921603 100.921603 0 0 1-29.355696 36.466705 139.211643 139.211643 0 0 1-49.412384 21.606522 280.975954 280.975954 0 0 1-50.506385 5.652339 242.503582 242.503582 0 0 1-54.153056-7.202174A159.906497 159.906497 0 0 1 615.299426 683.7507a146.413817 146.413817 0 0 1-51.965053-79.315081l39.65754-12.398679a125.992462 125.992462 0 0 0 45.58338 49.50355 114.23195 114.23195 0 0 0 33.002367 13.401514 182.33352 182.33352 0 0 0 41.207376 4.649505A76.124245 76.124245 0 0 0 769.37125 647.283996a42.574877 42.574877 0 0 0 17.504018-34.552202 55.520557 55.520557 0 0 0-4.102504-17.504018 71.018906 71.018906 0 0 0-15.407182-19.600853 146.504983 146.504983 0 0 0-24.250359-15.954183c-9.663677-4.740672-19.41852-9.116676-29.355696-12.854513a516.186195 516.186195 0 0 1-67.007569-28.352863 208.042546 208.042546 0 0 1-43.760045-30.905531 107.120943 107.120943 0 0 1-21.697689-29.355697 85.970255 85.970255 0 0 1-6.655173-36.466704 104.932941 104.932941 0 0 1 38.107706-79.315081 145.866816 145.866816 0 0 1 46.40388-25.253193 193.182365 193.182365 0 0 1 55.611724-9.116676 220.167725 220.167725 0 0 1 46.859715 6.19934 152.157322 152.157322 0 0 1 43.304211 19.053853 124.07796 124.07796 0 0 1 49.50355 72.933408L784.869599 419.367096a164.100168 164.100168 0 0 0-11.395845-24.706192 77.400579 77.400579 0 0 0-14.951348-18.233352 68.192737 68.192737 0 0 0-22.153523-10.301844 158.630162 158.630162 0 0 0-21.606522-2.552669 193.364698 193.364698 0 0 0-24.250358 2.552669 71.839407 71.839407 0 0 0-23.156357 9.116676 44.854046 44.854046 0 0 0-18.233352 38.107706 31.999533 31.999533 0 0 0 4.649505 16.957017 65.913568 65.913568 0 0 0 19.600853 19.600854 217.159222 217.159222 0 0 0 33.002367 18.233352q22.153523 9.116676 44.762879 16.501183a200.566872 200.566872 0 0 1 80.409083 51.50922 132.009469 132.009469 0 0 1 23.703357 37.104871 117.787454 117.787454 0 0 1 6.19934 30.905532 119.154955 119.154955 0 0 1-9.663677 47.953715z" fill="#1296db" p-id="32310"></path></svg>