<?xml version="1.0" standalone="no"?><!DOCTYPE svg PUBLIC "-//W3C//DTD SVG 1.1//EN" "http://www.w3.org/Graphics/SVG/1.1/DTD/svg11.dtd"><svg t="1760690523327" class="icon" viewBox="0 0 1024 1024" version="1.1" xmlns="http://www.w3.org/2000/svg" p-id="4707" xmlns:xlink="http://www.w3.org/1999/xlink" width="200" height="200"><path d="M628.247593 581.634113C563.455296 651.444292 503.68088 717.909216 442.145805 782.789546c-52.819807 55.548831-85.215956 57.397524-147.719395 12.148556-4.841816-3.52132-10.123796-6.42641-14.61348-10.387896C189.050894 704.704264 184.913343 676.621733 266.519945 598.624484c58.189821-55.81293 115.675378-112.330124 174.657497-167.262723 11.796424-11.004127 29.050894-16.022008 44.016506-23.768914-4.577717-7.30674-8.803301-14.61348-13.557084-22.008253-12.588721-0.968363-25.529574-4.841816-37.502063-2.64099-84.863824 15.581843-154.938102-11.796424-204.588721-79.229711-50.883081-70.074278-47.537827-145.25447-5.810179-215.680881l144.198074 132.049519 73.3315-64.792297L289.232462 28.170564c92.258597-42.96011 166.734525-36.5337 231.262724 17.606602s84.247593 123.862448 61.623108 205.909216c-3.697387 13.381018 1.408528 29.050894 2.376892 44.016507 13.997249-5.281981 29.931224-7.922971 41.639615-16.374141 31.251719-22.448418 61.623109-40.671252 102.998624-27.114168 8.803301 2.905089 26.409904-8.803301 35.213205-17.606602 56.869326-57.133425 111.889959-116.115543 169.111417-172.808803 8.803301-8.803301 25.793673-9.683631 38.998624-14.173315l7.042641 15.405777C910.569464 136.715268 841.639615 210.3989 771.565337 285.491059c66.464924 70.42641-11.620358 109.072902-33.100413 160.924347q99.565337 116.643741 199.30674 233.639615c39.526823 46.657497 40.231087 91.730399 2.640991 126.239339-35.213205 32.396149-82.662999 30.723521-123.246218-11.532324C762.762036 737.01238 712.31912 675.917469 660.291609 616.231087c-10.035763-10.563961-19.983494-21.303989-32.044016-34.596974z m-23.240715-33.276479L500.511692 424.583219c-66.112792 63.911967-129.056396 123.246217-189.887208 184.165062-82.927098 83.367263-90.497937 67.697387 6.338377 157.931224 33.716644 31.427785 61.623109 31.779917 93.050894-2.200825C475.422283 694.756534 538.101788 622.921596 605.006878 548.357634zM497.958735 360.935351C615.130674 499.235213 728.957359 634.629986 844.456671 768.616231c19.191197 22.360385 47.537827 34.685007 74.123797 8.18707 24.825309-24.737276 11.796424-49.826685-6.338377-71.30674-45.160935-53.436039-88.033012-108.984869-138.035764-157.931224-76.060523-74.828061-156.786795-144.902338-235.576341-216.913343l7.834938-11.092159zM371.27923 44.016506c14.437414 16.110041 26.409904 30.459422 39.438789 44.016506 86.008253 86.80055 82.751032 69.634113-8.363136 152.385145-30.10729 27.378267-53.436039 24.121045-78.525447-6.338377S272.946355 177.38652 245.92022 147.895461C211.323246 202.475928 250.233838 290.508941 299.356259 322.464924c59.158184 39.174691 147.103164 35.213205 200.099037-10.916093a156.874828 156.874828 0 0 0 35.829436-191.11967A143.141678 143.141678 0 0 0 371.27923 44.016506z m337.606602 366.305365c57.221458-51.851444 63.031637-69.017882 31.603852-99.125172-44.016506-41.903714-62.503439-38.382393-114.442916 22.184319z" p-id="4708"></path><path d="M44.060523 346.762036h811.752407v677.237964H44.060523z" fill="#C69C6D" opacity=".52" p-id="4709"></path><path d="M497.958735 360.935351l48.506189-41.287483-7.834938 11.09216C617.419532 402.662999 698.145805 472.737276 774.206327 547.565337c49.650619 48.946355 92.874828 104.495186 138.035764 157.931224 18.134801 21.480055 31.163686 46.569464 6.338377 71.30674-26.409904 26.409904-54.9326 14.173315-74.123797-8.18707C728.957359 634.629986 615.130674 499.235213 497.958735 360.935351zM371.27923 44.016506a143.141678 143.141678 0 0 1 163.65337 76.500688 156.874828 156.874828 0 0 1-35.829436 191.11967c-52.819807 45.865199-140.85282 50.090784-200.099037 10.916093C250.233838 290.508941 211.323246 202.475928 245.92022 147.895461c27.026135 29.491059 53.436039 56.517194 77.909216 85.832187s48.418157 33.716644 78.525447 6.338377c91.114168-82.751032 94.371389-65.584594 8.363136-152.385145-13.116919-13.292985-25.001376-27.642366-39.438789-43.664374zM708.885832 410.321871l-82.486932-76.940853c51.587345-60.566713 70.42641-64.088033 114.442916-22.184319 31.075653 30.10729 25.089409 47.273728-31.955984 99.125172z" fill="#FFFFFF" p-id="4710"></path></svg>