<?xml version="1.0" standalone="no"?><!DOCTYPE svg PUBLIC "-//W3C//DTD SVG 1.1//EN" "http://www.w3.org/Graphics/SVG/1.1/DTD/svg11.dtd"><svg t="1711743222203" class="icon" viewBox="0 0 1024 1024" version="1.1" xmlns="http://www.w3.org/2000/svg" p-id="43516" xmlns:xlink="http://www.w3.org/1999/xlink" width="200" height="200"><path d="M512 0a512 512 0 1 0 512 512A512 512 0 0 0 512 0z m325.632 837.632a451.072 451.072 0 0 1-153.6 102.4 460.8 460.8 0 0 1-338.944 0 464.384 464.384 0 0 1-259.072-259.072 460.8 460.8 0 0 1 0-338.944 464.384 464.384 0 0 1 256.512-258.56 460.8 460.8 0 0 1 338.944 0 464.384 464.384 0 0 1 259.072 259.072 460.8 460.8 0 0 1 0 338.944 451.072 451.072 0 0 1-102.912 156.16z" fill="#86BC25" p-id="43517"></path><path d="M710.144 388.608a51.2 51.2 0 0 1-74.752-74.24 549.888 549.888 0 0 0 41.472-44.032A157.184 157.184 0 0 0 460.8 463.36l-184.32 185.344a70.144 70.144 0 1 0 99.328 98.816L563.2 563.2a157.184 157.184 0 0 0 193.024-215.04c-11.264 10.24-25.6 21.504-46.08 40.448z" fill="#86BC25" p-id="43518"></path></svg>