<?xml version="1.0" standalone="no"?><!DOCTYPE svg PUBLIC "-//W3C//DTD SVG 1.1//EN" "http://www.w3.org/Graphics/SVG/1.1/DTD/svg11.dtd"><svg t="1760692267159" class="icon" viewBox="0 0 1024 1024" version="1.1" xmlns="http://www.w3.org/2000/svg" p-id="28556" xmlns:xlink="http://www.w3.org/1999/xlink" width="200" height="200"><path d="M869.262222 188.871111v646.257778H154.737778V188.871111h714.524444M921.6 136.533333H102.4v750.933334h819.2V136.533333z" fill="#F5CF5C" p-id="28557"></path><path d="M119.466667 308.679111h785.066666v52.337778h-785.066666zM204.8 222.663111h52.337778v52.337778H204.8zM290.133333 222.663111h52.337778v52.337778h-52.337778zM375.466667 222.663111h52.337777v52.337778H375.466667zM526.791111 756.622222h-29.582222L489.244444 638.862222V438.044444h45.511112v200.817778l-7.964445 117.76z" fill="#F5CF5C" p-id="28558"></path><path d="M438.044444 506.993778h147.911112v91.022222h-147.911112z" fill="#F5CF5C" p-id="28559"></path><path d="M566.727111 756.622222h31.061333l34.247112-155.079111-59.392-35.726222-41.642667 31.744 55.864889 27.534222-20.138667 131.527111zM457.272889 756.622222l-20.138667-131.527111 55.864889-27.534222-41.642667-31.744-59.392 35.726222 34.247112 155.079111h31.061333z" fill="#F5CF5C" p-id="28560"></path></svg>