<?xml version="1.0" standalone="no"?><!DOCTYPE svg PUBLIC "-//W3C//DTD SVG 1.1//EN" "http://www.w3.org/Graphics/SVG/1.1/DTD/svg11.dtd"><svg t="1760693709030" class="icon" viewBox="0 0 1024 1024" version="1.1" xmlns="http://www.w3.org/2000/svg" p-id="58109" xmlns:xlink="http://www.w3.org/1999/xlink" width="200" height="200"><path d="M20.756757 972.800007C20.756757 995.397193 48.833726 1024 72.454912 1024h879.090043C975.152303 1024 1003.24311 995.397193 1003.24311 972.800007V307.227773H20.756757V972.800007zM951.544955 102.4278H796.408976V21.697865c0-5.75654-2.310919-11.291674-6.420756-15.359998A21.946808 21.946808 0 0 0 774.489844 0.000138h-59.599559c-5.811891 0-11.388539 2.269405-15.498377 6.337729a21.6147 21.6147 0 0 0-6.420756 15.359998V102.400125H331.028715V21.697865c0-5.75654-2.310919-11.291674-6.420756-15.359998A21.946808 21.946808 0 0 0 309.109583 0.000138h-59.59956c-5.811891 0-11.388539 2.269405-15.498376 6.337729a21.6147 21.6147 0 0 0-6.420756 15.359998V102.400125H72.46875C48.819888 102.4278 20.756757 131.016769 20.756757 153.600118v102.399986h982.486353v-92.159988c0-22.555673-13.533404-61.412316-51.698155-61.412316zM762.284873 409.600083h-0.027676v456.551722c0 34.871347-21.365619 52.583777-63.11437 52.583777H626.715594l-15.664431-57.136425c23.330591 1.729729 46.716534 2.670702 70.116315 2.822919 13.907025 0 20.881294-6.822053 20.881295-19.372971V464.453265H370.57725v171.423112c-1.176216 117.151119-22.002159 212.604512-62.547019 285.723637l-46.329074-41.153724c31.273509-62.851451 47.463777-142.875656 48.626155-240.003427V409.600083h451.943723z m-254.920614 66.878261h58.534046v36.573401h94.996744v49.124317h-95.065933v42.274589h112.460092V655.913563h-284.505907V604.436813h113.580958v-42.274588h-97.930366v-49.151994h97.930366v-36.5734 0.027675z m-97.916528 209.670891v0.055351h247.392832V837.60435H409.461569V686.149235z m189.453812 100.019878V735.896255h-131.500955v50.272858h131.500955z" fill="#4276EE" p-id="58110"></path></svg>