<?xml version="1.0" standalone="no"?><!DOCTYPE svg PUBLIC "-//W3C//DTD SVG 1.1//EN" "http://www.w3.org/Graphics/SVG/1.1/DTD/svg11.dtd"><svg t="1760693711985" class="icon" viewBox="0 0 1024 1024" version="1.1" xmlns="http://www.w3.org/2000/svg" p-id="58274" xmlns:xlink="http://www.w3.org/1999/xlink" width="200" height="200"><path d="M15.254761 971.670415A61.019 61.019 0 0 0 67.584347 1023.420706h888.251263a61.019 61.019 0 0 0 52.329585-52.136487V293.702983H15.254761zM956.414904 104.273747h-156.795658V22.013956A22.013183 22.013183 0 0 0 777.606063 0.000772h-60.439706a22.013183 22.013183 0 0 0-22.206281 22.013184V104.273747h-366.886392V22.013956A22.013183 22.013183 0 0 0 306.832893 0.000772H246.972482a22.013183 22.013183 0 0 0-22.206281 22.013184V104.273747H67.584347A61.019 61.019 0 0 0 15.254761 156.410234v104.272974h993.489728V166.837531c0-22.978674-13.709965-62.563785-52.329585-62.563784z m-191.360218 293.702211V863.149282c0 35.530051-21.626987 53.488174-63.915471 53.488174h-73.18418l-15.834045-57.92943q35.336952 2.703373 70.867003 2.896471c14.096161 0 21.047693-6.951532 21.047693-19.30981V453.781309H369.010482v173.78829c-1.158589 119.334626-22.206282 216.656069-63.336177 290.998838l-46.922839-41.902288a567.32222 567.32222 0 0 0 49.240016-244.462195V397.975958z m-257.785964 68.163629h59.281117v37.267934h96.54905v50.012408h-96.54905v43.060876h113.734781v52.329585h-287.71617v-52.329585h114.89337v-43.060876h-99.252424v-50.012408h99.059326v-37.267934zM408.402494 679.706087h251.027531v154.47848h-251.027531z m191.553316 101.955797v-51.364095h-133.044591v51.170997z" fill="#FFA711" p-id="58275"></path></svg>