<?xml version="1.0" standalone="no"?><!DOCTYPE svg PUBLIC "-//W3C//DTD SVG 1.1//EN" "http://www.w3.org/Graphics/SVG/1.1/DTD/svg11.dtd"><svg t="1760692205623" class="icon" viewBox="0 0 1024 1024" version="1.1" xmlns="http://www.w3.org/2000/svg" p-id="24391" xmlns:xlink="http://www.w3.org/1999/xlink" width="200" height="200"><path d="M517.3 520.1m-450 0a450 450 0 1 0 900 0 450 450 0 1 0-900 0Z" fill="#80DEEA" opacity=".6" p-id="24392"></path><path d="M738.2 578.2c-19.3 0-34.9-15.6-34.9-34.9 0-19.3 15.6-34.9 34.9-34.9 19.3 0 34.9 15.6 34.9 34.9 0 19.3-15.6 34.9-34.9 34.9z m-34.9-116.4c-12.9 0-23.3-10.4-23.3-23.3s10.4-23.3 23.3-23.3 23.3 10.4 23.3 23.3-10.5 23.3-23.3 23.3zM726.6 648c0 25.7-20.8 46.6-46.6 46.6-25.7 0-46.6-20.8-46.6-46.6 0-25.7 20.8-46.6 46.6-46.6 25.7 0.1 46.6 20.9 46.6 46.6zM552 450.2c-51.4 0-93.1-41.7-93.1-93.1S500.6 264 552 264c51.4 0 93.1 41.7 93.1 93.1s-41.7 93.1-93.1 93.1z m-151.3 256c-38.6 0-69.8-31.3-69.8-69.8 0-38.6 31.3-69.8 69.8-69.8s69.8 31.3 69.8 69.8c0 38.6-31.3 69.8-69.8 69.8z m-58.2-174.6c-45 0-81.5-36.5-81.5-81.5s36.5-81.5 81.5-81.5 81.5 36.5 81.5 81.5c-0.1 45.1-36.5 81.5-81.5 81.5zM552 659.7c32.1 0 58.2 26 58.2 58.2 0 32.1-26.1 58.2-58.2 58.2s-58.2-26.1-58.2-58.2c0-32.2 26-58.2 58.2-58.2z m0 0" fill="#3D5AFE" p-id="24393"></path></svg>