<?xml version="1.0" standalone="no"?><!DOCTYPE svg PUBLIC "-//W3C//DTD SVG 1.1//EN" "http://www.w3.org/Graphics/SVG/1.1/DTD/svg11.dtd"><svg t="1714048941683" class="icon" viewBox="0 0 1024 1024" version="1.1" xmlns="http://www.w3.org/2000/svg" p-id="1491" xmlns:xlink="http://www.w3.org/1999/xlink" width="200" height="200"><path d="M892.928 421.888h-201.216c-27.136 0-49.152 22.016-49.152 49.152V838.144c0 3.584 0.512 6.656 1.536 10.24 5.632 20.992 24.576 36.352 47.104 36.352h201.216c22.528 0 41.472-15.36 47.104-36.352 1.024-3.072 1.536-6.656 1.536-10.24V471.04c1.024-27.136-20.992-49.152-48.128-49.152z m-201.216 32.768h201.216c9.216 0 16.384 7.168 16.384 16.384v312.32h-233.984V471.04c0-9.216 7.168-16.384 16.384-16.384z m75.264 367.616c0-13.824 11.264-24.576 24.576-24.576s24.576 11.264 24.576 24.576c0 13.824-11.264 24.576-24.576 24.576s-24.576-10.752-24.576-24.576z" fill="#2D6EAD" p-id="1492"></path><path d="M548.864 843.776s-61.952 0-61.952-61.952c0-11.264 1.536-21.504 3.072-30.72h184.32v-123.904h-527.36V256.512h556.544v197.632h61.952V256.512c0-34.304-27.648-61.952-61.952-61.952H146.944c-34.304 0-61.952 27.648-61.952 61.952v432.64c0 34.304 27.648 61.952 61.952 61.952h213.504c1.536 9.216 3.072 19.456 3.072 30.72 0 61.952-61.952 61.952-61.952 61.952-16.896 0-30.72 7.168-30.72 15.36 0 8.704 13.824 15.36 30.72 15.36h247.296c16.896 0 30.72-7.168 30.72-15.36s-13.824-15.36-30.72-15.36z" fill="#2D6EAD" p-id="1493"></path></svg>