<?xml version="1.0" standalone="no"?><!DOCTYPE svg PUBLIC "-//W3C//DTD SVG 1.1//EN" "http://www.w3.org/Graphics/SVG/1.1/DTD/svg11.dtd"><svg t="1723967662763" class="icon" viewBox="0 0 1025 1024" version="1.1" xmlns="http://www.w3.org/2000/svg" p-id="10117" xmlns:xlink="http://www.w3.org/1999/xlink" width="200.1953125" height="200"><path d="M625.376 454.016c-11.552-0.064-21.312 9.376-21.568 20.928-0.288 11.776 9.472 21.664 21.472 21.6 11.872-0.064 21.12-9.312 21.184-21.088 0.064-11.744-9.472-21.408-21.056-21.408z" fill="#869EFF" p-id="10118"></path><path d="M370.272 357.376c-52.448-0.128-95.776 43.328-96.064 96.256-0.224 53.056 42.944 96.512 96.128 96.512 53.056 0 95.648-42.72 96-95.872 0.256-53.152-42.912-96.704-96.064-96.896zM370.4 507.232c-29.632 0.064-53.6-23.872-53.472-53.344 0.096-29.376 23.84-53.312 52.992-53.696 29.28-0.256 53.472 23.776 53.696 53.408 0.16 29.696-23.552 53.6-53.28 53.6z" fill="#869EFF" p-id="10119"></path><path d="M690.72 518.304c-11.648 0-21.312 9.504-21.536 21.056-0.192 11.968 9.568 21.632 21.568 21.536 11.808-0.192 21.056-9.44 21.024-21.312 0-11.744-9.536-21.376-21.056-21.28z" fill="#869EFF" p-id="10120"></path><path d="M1023.52 449.792c-0.832-19.04-1.664-38.112-2.496-57.12-3.84-24.192-2.432-48.864-6.72-72.128-2.016-12.864-4-25.792-5.984-38.656-7.04-32.224-13.856-62.752-24.96-90.528-20.576-51.52-52.32-94.88-96.544-122.752-94.752-59.68-235.68-68.992-390.72-68.576-15.456 0.256-30.944 0.48-46.4 0.736-9.472 0.352-18.944 0.672-28.448 1.024-6.72 0.32-13.472 0.64-20.224 0.992-18.208 1.408-36.448 2.816-54.624 4.256-9.888 1.184-19.808 2.304-29.696 3.488-22.176 4.128-44.128 6.464-64.864 11.712-95.648 24.32-151.648 60.192-195.872 136.16-21.984 37.728-31.232 84.16-41.92 133.472-2.24 16.64-4.48 33.248-6.72 49.888-1.568 19.776-3.168 39.584-4.736 59.36-0.256 6.72-0.48 13.472-0.768 20.224-0.576 18.208-1.152 36.448-1.728 54.624l0 55.616c0.32 17.12 0.672 34.272 1.024 51.36 0.384 11.904 0.832 23.808 1.248 35.68 0.48 8.064 1.024 16.128 1.504 24.192 3.456 21.664 2.624 43.744 6.464 64.64 5.92 31.936 9.824 62.816 18.72 91.296 24.096 77.344 60.384 129.088 124.256 166.624 28.512 16.768 62.624 27.52 98.56 36.672 13.312 2.656 26.592 5.312 39.904 8 16.64 2.24 33.28 4.48 49.888 6.72 21.28 1.664 42.592 3.328 63.872 4.992 7.232 0.256 14.496 0.48 21.696 0.736 15.328 0.416 30.624 0.832 45.92 1.248 7.648 0.096 15.296 0.192 22.944 0.256l31.904 0c20.8-0.32 41.6-0.64 62.4-1.024 5.984-0.256 12-0.48 17.952-0.736 17.792-1.152 35.616-2.336 53.408-3.52 15.232-1.664 30.432-3.328 45.664-4.992 34.208-6.336 66.848-10.912 97.056-20.448 65.536-20.672 114.208-53.728 149.696-104.288 27.328-38.88 41.376-88.288 53.408-142.688 2.592-16.864 5.184-33.76 7.712-50.624 1.856-20.096 3.648-40.256 5.504-60.384 0.32-7.232 0.672-14.464 1.024-21.696 0.64-16.448 1.312-32.928 2.016-49.408l0-13.248c0.096-7.648 0.16-15.296 0.256-22.976l0-54.88c-0.192-7.808-0.352-15.616-0.512-23.424zM870.24 664.928c-0.928 21.632-4.288 43.04-13.12 63.136-13.632 30.88-36.544 42.112-69.184 34.048-19.936-4.896-37.536-14.976-53.76-27.04-26.624-19.808-52.48-40.544-79.168-60.384-29.216-21.696-60.288-40.704-96.384-48.16-59.84-12.288-115.232-0.96-163.648 36.768-23.648 18.336-44.864 39.776-67.168 59.904-20.96 18.784-43.52 34.912-71.744 40.384-9.088 1.76-18.56 2.816-27.744 2.624-23.936-0.576-37.984-15.456-47.072-35.712-11.136-24.736-13.216-51.168-13.856-77.856-0.096-2.208 0-4.48 0-6.688 1.12-59.776 12.96-117.696 32.352-174.112 15.744-46.016 36.128-89.76 65.568-128.64 18.56-24.672 39.872-46.272 68.096-59.84 24.48-11.968 49.472-15.968 75.712-4.256 18.208 8.288 36.96 15.232 55.392 23.136 38.816 16.768 77.184 15.008 115.488-2.112 15.232-6.752 30.816-12.64 45.984-19.84 30.368-14.24 59.264-9.056 87.232 6.592 30.88 17.312 53.376 43.264 72.544 72.576 35.04 53.152 56.736 112.128 71.264 173.952 10.112 43.296 15.168 87.072 13.312 131.52z" fill="#869EFF" p-id="10121"></path><path d="M755.2 454.016c-11.904-0.384-21.984 9.408-22.048 21.216 0 11.616 9.504 21.152 21.12 21.28 12 0.064 21.312-8.96 21.536-20.704 0.192-11.84-9.024-21.536-20.576-21.792z" fill="#869EFF" p-id="10122"></path><path d="M691.072 389.6c-11.904-0.256-21.984 9.632-21.952 21.408 0.096 11.712 9.536 21.088 21.28 21.152 11.904 0.064 21.28-8.992 21.376-20.768 0.128-11.872-9.12-21.536-20.704-21.792z" fill="#869EFF" p-id="10123"></path></svg>