<?xml version="1.0" standalone="no"?><!DOCTYPE svg PUBLIC "-//W3C//DTD SVG 1.1//EN" "http://www.w3.org/Graphics/SVG/1.1/DTD/svg11.dtd"><svg t="1711872006391" class="icon" viewBox="0 0 1024 1024" version="1.1" xmlns="http://www.w3.org/2000/svg" p-id="4429" xmlns:xlink="http://www.w3.org/1999/xlink" width="200" height="200"><path d="M296.96 133.12h552.96v634.88h-552.96z" fill="#3099E0" p-id="4430"></path><path d="M870.4 808.96h-593.92c-12.288 0-20.48-8.192-20.48-20.48v-675.84c0-12.288 8.192-20.48 20.48-20.48h593.92c12.288 0 20.48 8.192 20.48 20.48v675.84c0 12.288-8.192 20.48-20.48 20.48z m-573.44-40.96h552.96v-634.88h-552.96v634.88z" fill="#1C2754" p-id="4431"></path><path d="M174.08 256h552.96v634.88h-552.96z" fill="#7ECAFF" p-id="4432"></path><path d="M747.52 931.84h-593.92c-12.288 0-20.48-8.192-20.48-20.48v-675.84c0-12.288 8.192-20.48 20.48-20.48h593.92c12.288 0 20.48 8.192 20.48 20.48v675.84c0 12.288-8.192 20.48-20.48 20.48z m-573.44-40.96h552.96v-634.88h-552.96v634.88z" fill="#1C2754" p-id="4433"></path><path d="M460.8 727.04c-12.288 0-20.48-8.192-20.48-20.48v-245.76c0-12.288 8.192-20.48 20.48-20.48s20.48 8.192 20.48 20.48v245.76c0 12.288-8.192 20.48-20.48 20.48z" fill="#1C2754" p-id="4434"></path><path d="M337.92 706.56c-12.288 0-20.48-10.24-20.48-20.48 6.144-133.12 77.824-161.792 137.216-161.792 12.288 0 20.48 8.192 20.48 20.48s-8.192 20.48-20.48 20.48c-38.912 0-90.112 12.288-96.256 122.88 0 10.24-10.24 18.432-20.48 18.432zM577.536 786.432c-10.24 0-20.48-8.192-20.48-20.48-6.144-108.544-57.344-122.88-96.256-122.88-12.288 0-20.48-8.192-20.48-20.48s8.192-20.48 20.48-20.48c59.392 0 131.072 28.672 137.216 161.792 0 12.288-8.192 22.528-20.48 22.528z" fill="#1C2754" p-id="4435"></path><path d="M460.8 440.32m-61.44 0a61.44 61.44 0 1 0 122.88 0 61.44 61.44 0 1 0-122.88 0Z" fill="#FFC931" p-id="4436"></path><path d="M460.8 542.72c-57.344 0-102.4-45.056-102.4-102.4s45.056-102.4 102.4-102.4 102.4 45.056 102.4 102.4-45.056 102.4-102.4 102.4z m0-163.84c-34.816 0-61.44 26.624-61.44 61.44s26.624 61.44 61.44 61.44 61.44-26.624 61.44-61.44-26.624-61.44-61.44-61.44z" fill="#1C2754" p-id="4437"></path><path d="M317.44 727.04m-40.96 0a40.96 40.96 0 1 0 81.92 0 40.96 40.96 0 1 0-81.92 0Z" fill="#31FF98" p-id="4438"></path><path d="M317.44 808.96c-45.056 0-81.92-36.864-81.92-81.92s36.864-81.92 81.92-81.92 81.92 36.864 81.92 81.92-36.864 81.92-81.92 81.92z m0-122.88c-22.528 0-40.96 18.432-40.96 40.96s18.432 40.96 40.96 40.96 40.96-18.432 40.96-40.96-18.432-40.96-40.96-40.96z" fill="#1C2754" p-id="4439"></path><path d="M604.16 788.48m-40.96 0a40.96 40.96 0 1 0 81.92 0 40.96 40.96 0 1 0-81.92 0Z" fill="#FF6F16" p-id="4440"></path><path d="M604.16 870.4c-45.056 0-81.92-36.864-81.92-81.92s36.864-81.92 81.92-81.92 81.92 36.864 81.92 81.92-36.864 81.92-81.92 81.92z m0-122.88c-22.528 0-40.96 18.432-40.96 40.96s18.432 40.96 40.96 40.96 40.96-18.432 40.96-40.96-18.432-40.96-40.96-40.96z" fill="#1C2754" p-id="4441"></path></svg>