<?xml version="1.0" standalone="no"?><!DOCTYPE svg PUBLIC "-//W3C//DTD SVG 1.1//EN" "http://www.w3.org/Graphics/SVG/1.1/DTD/svg11.dtd"><svg t="1712920724003" class="icon" viewBox="0 0 1024 1024" version="1.1" xmlns="http://www.w3.org/2000/svg" p-id="4276" xmlns:xlink="http://www.w3.org/1999/xlink" width="200" height="200"><path d="M0 0m85.333333 0l853.333334 0q85.333333 0 85.333333 85.333333l0 853.333334q0 85.333333-85.333333 85.333333l-853.333334 0q-85.333333 0-85.333333-85.333333l0-853.333334q0-85.333333 85.333333-85.333333Z" fill="#FFFFFF" p-id="4277"></path><path d="M832 224.981333h-88.874667v-69.802666A70.698667 70.698667 0 0 0 672 85.333333h-320a70.698667 70.698667 0 0 0-71.125333 69.802667v69.802667H192a103.808 103.808 0 0 0-106.666667 104.704v418.901333a103.808 103.808 0 0 0 106.666667 104.789333h640a103.808 103.808 0 0 0 106.666667-104.746666v-418.901334a103.808 103.808 0 0 0-106.666667-104.704z m-480-69.802666h320v69.802666h-320z m444.586667 418.986666h-53.333334v69.802667a33.28 33.28 0 0 1-35.541333 34.901333h-106.666667a33.28 33.28 0 0 1-35.541333-34.901333v-69.802667h-106.666667v69.802667a33.28 33.28 0 0 1-35.541333 34.901333h-106.666667a33.28 33.28 0 0 1-35.541333-34.901333v-69.802667h-53.333333a34.901333 34.901333 0 1 1 0-69.802666h53.333333v-69.802667a33.28 33.28 0 0 1 35.541333-34.901333h106.666667a33.28 33.28 0 0 1 35.541333 34.901333v69.802667h106.666667v-69.802667a33.28 33.28 0 0 1 35.541333-34.901333h106.666667a33.28 33.28 0 0 1 35.541333 34.901333v69.802667h53.333334a34.901333 34.901333 0 1 1 0 69.802666z" fill="#436AD6" p-id="4278"></path></svg>