<?xml version="1.0" standalone="no"?><!DOCTYPE svg PUBLIC "-//W3C//DTD SVG 1.1//EN" "http://www.w3.org/Graphics/SVG/1.1/DTD/svg11.dtd"><svg t="1711735371987" class="icon" viewBox="0 0 1024 1024" version="1.1" xmlns="http://www.w3.org/2000/svg" p-id="12064" xmlns:xlink="http://www.w3.org/1999/xlink" width="200" height="200"><path d="M314.368 192.512a32 32 0 0 1 41.642667-3.114667l3.584 3.114667 81.152 81.066667h126.890666l81.152-81.066667a32 32 0 0 1 48.384 41.642667l-3.114666 3.584-35.882667 35.84L725.333333 273.664a117.333333 117.333333 0 0 1 117.12 110.208l0.213334 7.125333v320a117.333333 117.333333 0 0 1-110.165334 117.12l-7.168 0.213334H298.666667a117.333333 117.333333 0 0 1-117.12-110.165334l-0.213334-7.168v-320a117.333333 117.333333 0 0 1 110.165334-117.12L298.666667 273.621333h51.541333l-35.84-35.84-3.114667-3.626666a32 32 0 0 1 3.114667-41.642667zM725.333333 337.621333H298.666667a53.333333 53.333333 0 0 0-53.077334 47.872l-0.256 5.461334v320c0 27.605333 20.992 50.346667 47.872 53.077333l5.461334 0.256h426.666666a53.333333 53.333333 0 0 0 53.077334-47.872l0.256-5.461333v-320a53.333333 53.333333 0 0 0-47.872-53.034667L725.333333 337.621333z" fill="#333333" p-id="12065"></path><path d="M422.4 479.232a74.666667 74.666667 0 0 0-11.306667 39.594667v75.776a74.666667 74.666667 0 0 0 114.218667 63.317333l60.629333-37.888a74.666667 74.666667 0 0 0 0-126.634667l-60.586666-37.888a74.666667 74.666667 0 0 0-99.072 18.133334l-3.84 5.589333z m68.992 30.549333l60.629333 37.888a10.666667 10.666667 0 0 1 0 18.090667l-60.586666 37.888a10.666667 10.666667 0 0 1-16.341334-9.045333V518.826667a10.666667 10.666667 0 0 1 16.298667-9.045334z" fill="#4C93FF" p-id="12066"></path></svg>