<?xml version="1.0" standalone="no"?><!DOCTYPE svg PUBLIC "-//W3C//DTD SVG 1.1//EN" "http://www.w3.org/Graphics/SVG/1.1/DTD/svg11.dtd"><svg t="1711729129256" class="icon" viewBox="0 0 1024 1024" version="1.1" xmlns="http://www.w3.org/2000/svg" p-id="12249" xmlns:xlink="http://www.w3.org/1999/xlink" width="200" height="200"><path d="M512 85.333333C276.352 85.333333 85.333333 276.352 85.333333 512s191.018667 426.666667 426.666667 426.666667 426.666667-191.018667 426.666667-426.666667S747.648 85.333333 512 85.333333zM0 512C0 229.248 229.248 0 512 0s512 229.248 512 512-229.248 512-512 512S0 794.752 0 512z" p-id="12250"></path><path d="M512 384a128 128 0 1 1 0 256 128 128 0 0 1 0-256z m-213.333333 128a213.333333 213.333333 0 1 0 426.666666 0 213.333333 213.333333 0 0 0-426.666666 0z" p-id="12251"></path><path d="M947.2 384H512V298.666667h435.2v85.333333zM172.885333 203.818667l227.84 371.2-72.704 44.629333-227.84-371.2 72.704-44.629333zM696.576 619.392l-229.12 379.733333-73.045333-44.117333 229.12-379.733333 73.045333 44.117333z" p-id="12252"></path></svg>