<?xml version="1.0" standalone="no"?><!DOCTYPE svg PUBLIC "-//W3C//DTD SVG 1.1//EN" "http://www.w3.org/Graphics/SVG/1.1/DTD/svg11.dtd"><svg t="1711737096767" class="icon" viewBox="0 0 1024 1024" version="1.1" xmlns="http://www.w3.org/2000/svg" p-id="1443" xmlns:xlink="http://www.w3.org/1999/xlink" width="200" height="200"><path d="M976 956H48c-26.4 0-48-21.6-48-47.2V116c0-26.4 21.6-47.2 48-47.2h928c26.4 0 48 21.6 48 47.2v792.8c0 26.4-21.6 47.2-48 47.2zM96 116c-26.4 0-48 21.6-48 47.2 0 26.4 21.6 47.2 48 47.2s48-21.6 48-47.2S122.4 116 96 116z m144 0c-26.4 0-48 21.6-48 47.2 0 26.4 21.6 47.2 48 47.2s48-21.6 48-47.2-21.6-47.2-48-47.2z m144 0c-26.4 0-48 21.6-48 47.2 0 26.4 21.6 47.2 48 47.2s48-21.6 48-47.2-21.6-47.2-48-47.2z m592 144H48v648.8h928V260zM356 384c4.8-4.8 12-4.8 16.8 0 4.8 4.8 4.8 12 0 16.8L204.8 568l168 167.2c4.8 4.8 4.8 12 0 16.8s-12 4.8-16.8 0L180 576c-2.4-1.6-4-4.8-4-8s0.8-6.4 3.2-8.8L356 384z m212.8 50.4c3.2-5.6 10.4-8 16-4.8s8 9.6 5.6 16l-136 256.8c-3.2 5.6-10.4 8-16 4.8s-8-9.6-5.6-16l136-256.8z m82.4-50.4c4.8-4.8 12-4.8 16.8 0l176 176c2.4 2.4 3.2 5.6 3.2 8.8 0 3.2-0.8 6.4-3.2 8.8l-176 176c-4.8 4.8-12 4.8-16.8 0-4.8-4.8-4.8-12 0-16.8l168-168-168-168c-4.8-4.8-4.8-12 0-16.8z" fill="#fac827" p-id="1444"></path></svg>