<?xml version="1.0" standalone="no"?><!DOCTYPE svg PUBLIC "-//W3C//DTD SVG 1.1//EN" "http://www.w3.org/Graphics/SVG/1.1/DTD/svg11.dtd"><svg t="1711735895298" class="icon" viewBox="0 0 1024 1024" version="1.1" xmlns="http://www.w3.org/2000/svg" p-id="31317" xmlns:xlink="http://www.w3.org/1999/xlink" width="200" height="200"><path d="M266.24 140.8h481.28c22.528 0 40.96 18.432 40.96 40.96v660.48c0 22.528-18.432 40.96-40.96 40.96h-481.28c-22.528 0-40.96-18.432-40.96-40.96v-660.48c0-22.528 18.432-40.96 40.96-40.96z" fill="#FFFFFF" p-id="31318"></path><path d="M747.52 903.68h-481.28c-33.792 0-61.44-27.648-61.44-61.44v-660.48c0-33.792 27.648-61.44 61.44-61.44h481.28c33.792 0 61.44 27.648 61.44 61.44v660.48c0 33.792-27.648 61.44-61.44 61.44z m-481.28-742.4c-11.264 0-20.48 9.216-20.48 20.48v660.48c0 11.264 9.216 20.48 20.48 20.48h481.28c11.264 0 20.48-9.216 20.48-20.48v-660.48c0-11.264-9.216-20.48-20.48-20.48h-481.28z" fill="#80878B" p-id="31319"></path><path d="M266.24 775.68h522.24v107.52h-522.24c-22.528 0-40.96-18.432-40.96-40.96v-25.6c0-22.528 18.432-40.96 40.96-40.96z" fill="#FFFFFF" p-id="31320"></path><path d="M808.96 903.68h-542.72c-33.792 0-61.44-27.648-61.44-61.44v-25.6c0-33.792 27.648-61.44 61.44-61.44h542.72v148.48z m-542.72-107.52c-11.264 0-20.48 9.216-20.48 20.48v25.6c0 11.264 9.216 20.48 20.48 20.48h501.76v-66.56h-501.76z" fill="#80878B" p-id="31321"></path><path d="M588.8 161.28h122.88v184.32l-62.464-56.32-60.416 56.32v-184.32z" fill="#FAB90A" p-id="31322"></path></svg>