<?xml version="1.0" standalone="no"?><!DOCTYPE svg PUBLIC "-//W3C//DTD SVG 1.1//EN" "http://www.w3.org/Graphics/SVG/1.1/DTD/svg11.dtd"><svg t="1711734403794" class="icon" viewBox="0 0 1024 1024" version="1.1" xmlns="http://www.w3.org/2000/svg" p-id="6309" xmlns:xlink="http://www.w3.org/1999/xlink" width="200" height="200"><path d="M930.355162 274.700057a34.268542 34.268542 0 0 1-34.215576-34.339162V125.88525h-113.945992a34.339162 34.339162 0 0 1 0-68.695979h148.302809a34.268542 34.268542 0 0 1 34.056681 34.374472v148.814807a34.268542 34.268542 0 0 1-34.215577 34.339162zM134.445765 546.306059a34.268542 34.268542 0 0 1 34.197922 34.056681v351.460002a22.845695 22.845695 0 0 0 22.810384 22.951625h156.212293V685.693044a57.131892 57.131892 0 0 1 57.008306-57.237822h214.368179a57.131892 57.131892 0 0 1 57.008306 57.237822v269.028358h156.212292a22.845695 22.845695 0 0 0 22.810385-22.951625V585.288512a34.215577 34.215577 0 1 1 68.025086-5.296529v0.282481h0.406067v385.799165a57.131892 57.131892 0 0 1-57.008306 57.237822H607.655312V719.555519a22.845695 22.845695 0 0 0-22.810385-22.951625h-145.954681a22.845695 22.845695 0 0 0-22.810384 22.951625v303.844208H157.203184a57.131892 57.131892 0 0 1-57.008306-57.237823V580.36274a34.268542 34.268542 0 0 1 34.197922-34.056681z" fill="#188AFA" p-id="6310"></path><path d="M1013.38708 531.669984a34.039026 34.039026 0 0 1-48.463239 0l-0.141241-0.158896-436.998944-441.200857a22.686799 22.686799 0 0 0-32.308826 0L74.347817 515.515571l-15.889586 16.013172a34.039026 34.039026 0 0 1-48.46324 0 34.833505 34.833505 0 0 1 0-48.939927L471.234383 16.900341a56.725824 56.725824 0 0 1 80.772065 0l461.204081 465.688475 0.158896 0.141241a34.833505 34.833505 0 0 1 0 48.939927z" fill="#222831" p-id="6311"></path></svg>