<?xml version="1.0" standalone="no"?><!DOCTYPE svg PUBLIC "-//W3C//DTD SVG 1.1//EN" "http://www.w3.org/Graphics/SVG/1.1/DTD/svg11.dtd"><svg t="1711731661720" class="icon" viewBox="0 0 1105 1024" version="1.1" xmlns="http://www.w3.org/2000/svg" p-id="25695" xmlns:xlink="http://www.w3.org/1999/xlink" width="215.8203125" height="200"><path d="M174.871544 308.914049l756.011285 0 0 571.70284-756.011285 0 0-571.70284Z" fill="#fbbe73" p-id="25696"></path><path d="M996.748542 161.197668h-214.737634v-52.288133A109.102125 109.102125 0 0 0 673.005078 0H434.001128a109.102125 109.102125 0 0 0-108.909535 108.909535v52.288133H108.909535A109.102125 109.102125 0 0 0 0 270.203498V914.80158a109.102125 109.102125 0 0 0 108.909535 108.909535h633.620463a26.673688 26.673688 0 0 0 0-53.251081h-633.620463A55.562159 55.562159 0 0 1 53.443671 914.80158V618.213278h316.713937v16.081249a105.250329 105.250329 0 0 0 105.154034 105.154034h171.886402a105.250329 105.250329 0 0 0 105.154034-105.154034V618.213278h299.958624V914.80158a55.562159 55.562159 0 0 1-55.465865 55.562159h-53.251081a26.673688 26.673688 0 1 0 0 53.251081h53.443671A109.102125 109.102125 0 0 0 1105.754373 914.80158V269.625729a109.102125 109.102125 0 0 0-109.005831-108.428061z m-618.887342-15.696069V93.020876A55.562159 55.562159 0 0 1 433.327064 37.555012h239.100245a55.562159 55.562159 0 0 1 55.465864 55.562159V161.101373H377.8612zM693.323303 631.309385A51.999248 51.999248 0 0 1 641.324055 683.693812H469.437653a51.902953 51.902953 0 0 1-51.902953-51.902952v-89.55426a51.902953 51.902953 0 0 1 51.902953-51.902953H641.324055a51.999248 51.999248 0 0 1 51.999248 51.421478z m359.083693-66.539778H752.352078v-20.22193a105.250329 105.250329 0 0 0-105.154034-105.154034H475.311642a105.250329 105.250329 0 0 0-105.154034 105.154034v20.22193H53.443671V270.203498a55.562159 55.562159 0 0 1 55.562159-55.562159h887.839007a55.562159 55.562159 0 0 1 55.465865 55.562159z" fill="#2c2c2c" p-id="25697"></path></svg>