<?xml version="1.0" standalone="no"?><!DOCTYPE svg PUBLIC "-//W3C//DTD SVG 1.1//EN" "http://www.w3.org/Graphics/SVG/1.1/DTD/svg11.dtd"><svg t="1711733634050" class="icon" viewBox="0 0 1024 1024" version="1.1" xmlns="http://www.w3.org/2000/svg" p-id="1642" xmlns:xlink="http://www.w3.org/1999/xlink" width="200" height="200"><path d="M550.912 961.536h-3.072c-72.704-1.024-125.952-52.224-145.408-138.24-33.792-151.552-95.232-145.408-180.224-136.192-49.152 5.12-104.448 11.264-146.432-26.624-33.792-30.72-49.152-81.92-49.152-160.768 0-241.664 196.608-438.272 438.272-438.272 193.536 0 366.592 130.048 420.864 316.416 6.144 21.504-6.144 44.032-27.648 51.2a42.0864 42.0864 0 0 1-51.2-27.648 357.5808 357.5808 0 0 0-342.016-257.024c-196.608 0-356.352 159.744-356.352 356.352 0 69.632 14.336 93.184 22.528 100.352 14.336 13.312 47.104 9.216 82.944 6.144 87.04-9.216 219.136-23.552 269.312 199.68 16.384 73.728 54.272 73.728 66.56 74.752h1.024c83.968-2.048 217.088-126.976 258.048-285.696 6.144-21.504 27.648-34.816 50.176-29.696 21.504 6.144 34.816 27.648 29.696 50.176-49.152 185.344-205.824 345.088-337.92 345.088z" fill="#888888" p-id="1643"></path><path d="M171.008 458.752a69.632 69.632 0 1 0 139.264 0 69.632 69.632 0 0 0-139.264 0zM390.144 296.96a52.224 52.224 0 1 0 104.448 0 52.224 52.224 0 0 0-104.448 0zM615.424 366.592a43.008 43.008 0 1 0 86.016 0 43.008 43.008 0 0 0-86.016 0zM518.144 654.336c-17.408 0-32.768-10.24-38.912-27.648-7.168-21.504 4.096-45.056 25.6-52.224l441.344-154.624A41.1648 41.1648 0 0 1 972.8 497.664l-441.344 154.624c-5.12 1.024-9.216 2.048-13.312 2.048z" fill="#888888" p-id="1644"></path></svg>