<?xml version="1.0" standalone="no"?><!DOCTYPE svg PUBLIC "-//W3C//DTD SVG 1.1//EN" "http://www.w3.org/Graphics/SVG/1.1/DTD/svg11.dtd"><svg t="1711733424181" class="icon" viewBox="0 0 1024 1024" version="1.1" xmlns="http://www.w3.org/2000/svg" p-id="1642" xmlns:xlink="http://www.w3.org/1999/xlink" width="200" height="200"><path d="M133.7 895.8c375.2 348.7 800.6-223.5 681.2-405.3-13 7.8-120.7 120.7-172.5 125C664 805.3 383.8 861.3 297.6 869.9c12.9-133.7-4.3-357.8 206.9-357.8C483 499.2 539 374.2 595 309.5 668.3-35.4 392.4 72.4 271.7 119.8c-504.4 370.7-155.2 754.5-138 776z m297.5-720c44.7 0 80.8 36.2 80.8 80.8 0 44.7-36.2 80.8-80.8 80.8s-80.8-36.2-80.8-80.8c0-44.6 36.2-80.8 80.8-80.8z m-194 150.9c44.7 0 80.9 36.2 80.9 80.8s-36.2 80.8-80.9 80.8c-44.6 0-80.8-36.2-80.8-80.8s36.2-80.8 80.8-80.8z m-64.7 237.1c44.7 0 80.8 36.2 80.8 80.8 0 44.6-36.2 80.8-80.8 80.8-44.6 0-80.8-36.2-80.8-80.8 0-44.6 36.2-80.8 80.8-80.8z m456.3 10.8c-25.1-14.4-104.2-79-82.6-57.5C585.7 377 998.9 17.8 998.9 17.8l25.1 21.6c0-0.1-273 484.9-395.2 535.2zM345 818.9c32.3-50.3 14.4-190.4 75.4-237.1 132.9-64.7 165.3 61.1 147.3 111.4C513.8 783 413.2 768.6 345 818.9z" p-id="1643"></path></svg>