<?xml version="1.0" standalone="no"?><!DOCTYPE svg PUBLIC "-//W3C//DTD SVG 1.1//EN" "http://www.w3.org/Graphics/SVG/1.1/DTD/svg11.dtd"><svg t="1711732802338" class="icon" viewBox="0 0 1024 1024" version="1.1" xmlns="http://www.w3.org/2000/svg" p-id="17013" xmlns:xlink="http://www.w3.org/1999/xlink" width="200" height="200"><path d="M864.352 552.572a142.12 142.12 0 0 0-95.684 36.844v-315.32H381.224c34.032-26.076 55.996-67.104 55.996-113.284 0-78.784-63.868-142.652-142.656-142.652-78.784 0-142.652 63.868-142.652 142.652 0 46.18 21.964 87.212 55.992 113.284h-165.08v257.512a116.284 116.284 0 0 1 73.78-26.272c64.492 0 116.772 52.28 116.772 116.772s-52.28 116.772-116.772 116.772a116.32 116.32 0 0 1-73.78-26.264v287.32h234.396a114.632 114.632 0 0 1-27.288-74.376c0-63.58 51.536-115.108 115.104-115.108 63.572 0 115.108 51.536 115.108 115.108 0 28.36-10.276 54.312-27.284 74.376h315.808v-198.916a142.14 142.14 0 0 0 95.684 36.848c78.776 0 142.644-63.868 142.644-142.648 0-78.792-63.868-142.648-142.644-142.648z" fill="#00CCC6" p-id="17014"></path></svg>