<?xml version="1.0" standalone="no"?><!DOCTYPE svg PUBLIC "-//W3C//DTD SVG 1.1//EN" "http://www.w3.org/Graphics/SVG/1.1/DTD/svg11.dtd"><svg t="1711735779876" class="icon" viewBox="0 0 1024 1024" version="1.1" xmlns="http://www.w3.org/2000/svg" p-id="28040" xmlns:xlink="http://www.w3.org/1999/xlink" width="200" height="200"><path d="M512 4.096C231.424 4.096 4.096 231.424 4.096 512s227.328 508.416 508.416 508.416 508.416-227.328 508.416-508.416S792.576 4.096 512 4.096z m0 941.568c-239.616 0-433.664-194.048-433.664-433.664S272.384 78.336 512 78.336s433.664 194.048 433.664 433.664-194.048 433.664-433.664 433.664z" fill="#F4DCCB" p-id="28041"></path><path d="M485.376 642.56c-14.848 0-27.648-11.264-29.184-26.112-2.048-19.456-3.584-43.008-3.584-54.784 0-14.336 3.072-29.184 9.728-44.032 6.656-14.848 23.552-35.328 50.176-61.44 27.648-26.112 44.544-35.328 50.688-48.64 6.144-13.312 9.216-25.6 9.216-37.376 0-20.992-7.68-37.888-22.528-49.664-14.848-12.288-33.792-18.432-56.832-18.432-24.064 0-46.592 5.632-67.072 16.896-17.408 9.728-38.4-2.56-38.4-22.528 0-9.216 5.12-18.432 13.312-22.528 32.256-17.408 66.048-26.112 100.864-26.112 40.448 0 72.704 10.24 97.28 30.72 24.576 20.48 36.864 48.128 36.864 83.456 0 16.896-3.584 33.792-10.752 51.712-7.168 17.408-26.112 30.208-56.32 59.392-23.04 21.504-38.4 38.912-46.592 51.2-7.68 12.288-11.776 25.6-11.776 39.936 0 9.216 1.024 27.648 3.584 45.568 3.072 16.896-10.752 32.768-28.672 32.768zM454.144 735.232c0-11.264 4.096-20.992 12.288-29.184 8.192-8.192 18.432-12.288 29.696-12.288 11.776 0 21.504 4.096 29.696 12.288 8.192 8.192 12.288 17.92 12.288 29.184 0 10.752-4.096 20.48-12.288 28.672-8.192 8.192-17.92 12.288-28.672 12.288-13.312 0-23.552-4.096-31.744-12.288-7.168-8.192-11.264-17.92-11.264-28.672z" fill="#FF9D4D" p-id="28042"></path></svg>