<?xml version="1.0" standalone="no"?><!DOCTYPE svg PUBLIC "-//W3C//DTD SVG 1.1//EN" "http://www.w3.org/Graphics/SVG/1.1/DTD/svg11.dtd"><svg t="1711735831279" class="icon" viewBox="0 0 1024 1024" version="1.1" xmlns="http://www.w3.org/2000/svg" p-id="29310" xmlns:xlink="http://www.w3.org/1999/xlink" width="200" height="200"><path d="M150.49401 1023.559869a42.648328 42.648328 0 0 1-26.868447-75.914023l75.061057-60.560626a85.296656 85.296656 0 0 1 97.664671-6.823732A426.483279 426.483279 0 1 0 85.668551 501.117853a414.541747 414.541747 0 0 0 65.678425 238.830636 42.648328 42.648328 0 0 1-72.075674 45.633711A498.558953 498.558953 0 0 1 0.371895 498.558953a511.779935 511.779935 0 1 1 253.331068 455.484142l-76.340507 60.560625a42.648328 42.648328 0 0 1-26.868446 8.956149zM512.15183 725.021574a42.648328 42.648328 0 1 0-42.648328-42.648328 42.648328 42.648328 0 0 0 42.648328 42.648328z m42.648328-170.593311a80.178856 80.178856 0 0 1 34.118662-69.943258A127.944984 127.944984 0 0 0 640.096814 383.834951a117.709385 117.709385 0 0 0-127.944984-127.944984 117.709385 117.709385 0 0 0-127.944984 127.944984 42.648328 42.648328 0 1 0 85.296656 0c0-32.839212 9.809115-42.648328 42.648328-42.648328s42.648328 9.809115 42.648328 42.648328c0 15.353398-5.117799 20.897681-23.883064 38.383495A163.343096 163.343096 0 0 0 469.503502 554.428263a42.648328 42.648328 0 0 0 85.296656 0z" fill="#3E2AD1" p-id="29311"></path></svg>