<?xml version="1.0" standalone="no"?><!DOCTYPE svg PUBLIC "-//W3C//DTD SVG 1.1//EN" "http://www.w3.org/Graphics/SVG/1.1/DTD/svg11.dtd"><svg t="1711732516839" class="icon" viewBox="0 0 1024 1024" version="1.1" xmlns="http://www.w3.org/2000/svg" p-id="7552" xmlns:xlink="http://www.w3.org/1999/xlink" width="200" height="200"><path d="M836 126.1H716.9C708.5 89.4 675.6 62 636.4 62H387.9c-39.2 0-72.1 27.4-80.5 64.1h-119c-49.3 0-89.4 40.1-89.4 89.4v644.7c0 49.3 40.1 89.4 89.4 89.4H836c49.3 0 89.3-40.1 89.3-89.4V215.5c0-49.3-40.1-89.4-89.3-89.4z m-460.7 18.5c0-7 5.7-12.6 12.6-12.6h248.5c7 0 12.6 5.7 12.6 12.6v44.5c0 7-5.7 12.6-12.6 12.6H387.9c-7 0-12.6-5.7-12.6-12.6v-44.5z m480 715.6c0 10.7-8.7 19.4-19.3 19.4H188.4c-10.7 0-19.4-8.7-19.4-19.4V215.5c0-10.7 8.7-19.4 19.4-19.4h117.3c3.6 42.3 39.1 75.6 82.3 75.6h248.5c43.2 0 78.7-33.3 82.3-75.6H836c10.7 0 19.3 8.7 19.3 19.4v644.7z" p-id="7553"></path><path d="M600.1 477.5l-87.9-138.1-87.9 138.1-158.5 41L370 644.8l-10 163.4 152.3-60 152.3 60-10-163.4 104.2-126.3-158.7-41z m-12.2 225.3L512.2 673l-75.7 29.8 5-81.2-51.8-62.8 78.8-20.4 43.7-68.6 43.7 68.6 78.8 20.4-51.8 62.8 5 81.2z" p-id="7554"></path></svg>