<?xml version="1.0" standalone="no"?><!DOCTYPE svg PUBLIC "-//W3C//DTD SVG 1.1//EN" "http://www.w3.org/Graphics/SVG/1.1/DTD/svg11.dtd"><svg t="1711735517909" class="icon" viewBox="0 0 1024 1024" version="1.1" xmlns="http://www.w3.org/2000/svg" p-id="19483" xmlns:xlink="http://www.w3.org/1999/xlink" width="200" height="200"><path d="M16.00087 81.600725h800.000193v447.999613H16.00087z" fill="#FDBF5E" p-id="19484"></path><path d="M815.999001 545.599146H16.00087c-9.600935 0-16.00087-6.399936-16.00087-16.00087V81.600725c0-9.600935 6.399936-16.00087 16.00087-16.00087h800.000193c9.600935 0 16.00087 6.399936 16.000871 16.00087v447.999613c-0.002062 9.598872-8.002498 15.998808-16.002933 15.998808zM31.999678 513.599468h768.000515V97.599533H31.999678v415.999935z" fill="#193651" p-id="19485"></path><path d="M344.000145 16.00087c40.000113 0 71.999791 48.000548 71.999791 88.000661v425.60087c0-40.000113-31.999678-88.000661-71.999791-88.000661H110.399404V16.00087h233.600741z" fill="#FFFFFF" p-id="19486"></path><path d="M415.999936 545.599146c-9.600935 0-16.00087-6.399936-16.000871-16.00087 0-31.999678-27.200242-71.999791-56.000982-71.999791H110.399404c-9.600935 0-16.00087-6.399936-16.00087-16.00087V16.00087C94.400596 6.399936 100.800532 0 110.399404 0h235.199178c48.000548 0 86.400161 56.000983 86.400161 103.999468v425.60087c0.002062 9.598872-6.397873 15.998808-15.998807 15.998808zM126.400274 425.60087h219.200371c20.800306 0 41.600612 11.199372 56.000982 27.200242V103.999468c0-31.999678-27.200242-71.999791-56.000982-71.99979H126.400274v393.601192z" fill="#193651" p-id="19487"></path><path d="M489.600226 16.00087c-40.000113 0-73.60029 48.000548-73.60029 88.000661v425.60087c0-40.000113 31.999678-88.000661 71.99979-88.000661h235.199178V16.00087h-233.598678z" fill="#FFFFFF" p-id="19488"></path><path d="M415.999936 545.599146c-9.600935 0-16.00087-6.399936-16.000871-16.00087V103.999468C399.999065 56.000983 438.400741 0 487.999726 0h235.199178c9.600935 0 16.00087 6.399936 16.00087 16.00087V441.60174c0 9.600935-6.399936 16.00087-16.00087 16.00087h-233.598678c-30.399178 0-56.000983 40.000113-56.000983 71.999791-1.598437 9.59681-7.998373 15.996745-17.599307 15.996745z m73.60029-513.599468c-30.399178 0-57.59942 40.000113-57.59942 71.99979v348.799581c14.400371-16.00087 35.200677-27.200242 56.000983-27.200241h219.20037V31.999678H489.600226z" fill="#193651" p-id="19489"></path><path d="M479.999291 80.000226h179.200258v97.599532h-179.200258zM479.999291 356.800016h179.200258v20.800306h-179.200258zM479.999291 307.198969h179.200258v20.800306h-179.200258zM479.999291 259.200483h179.200258v20.800307h-179.200258zM479.999291 209.599436h179.200258v20.800306h-179.200258zM174.400822 300.799033h179.200258v20.800306H174.400822zM174.400822 246.400612h179.200258v20.800306H174.400822zM174.400822 190.399629h179.200258V211.199936H174.400822zM174.400822 135.999146h179.200258v20.800306H174.400822zM174.400822 80.000226h179.200258v20.800306H174.400822z" fill="#E1E6E9" p-id="19490"></path><path d="M16.00087 648.000177h992.000322v359.998953H16.00087z" fill="#FFFFFF" p-id="19491"></path><path d="M1007.99913 1024H16.00087c-9.600935 0-16.00087-6.399936-16.00087-16.00087V648.000177c0-9.600935 6.399936-16.00087 16.00087-16.00087h992.000322c9.600935 0 16.00087 6.399936 16.00087 16.00087v359.998953c-0.002062 9.600935-6.401998 16.00087-16.002932 16.00087zM31.999678 992.000322H992.000322V664.001047H31.999678v327.999275z" fill="#193651" p-id="19492"></path><path d="M80.000226 711.999533h52.799983v28.800741h-52.799983zM171.199823 711.999533h52.799984v28.800741h-52.799984zM260.79892 711.999533h52.799984v28.800741h-52.799984zM352.00058 711.999533h52.799984v28.800741h-52.799984zM441.599678 711.999533h52.799984v28.800741h-52.799984zM531.200838 711.999533h52.799984v28.800741h-52.799984zM622.400435 711.999533h52.799984v28.800741h-52.799984zM711.999533 711.999533h52.799984v28.800741h-52.799984zM801.600693 711.999533h52.799984v28.800741h-52.799984zM892.80029 711.999533h52.799984v28.800741h-52.799984z" fill="#F16051" p-id="19493"></path><path d="M80.000226 783.999323h52.799983v59.19992h-52.799983zM171.199823 783.999323h52.799984v59.19992h-52.799984zM260.79892 783.999323h52.799984v59.19992h-52.799984zM352.00058 783.999323h52.799984v59.19992h-52.799984zM441.599678 783.999323h52.799984v59.19992h-52.799984zM531.200838 783.999323h52.799984v59.19992h-52.799984zM622.400435 783.999323h52.799984v59.19992h-52.799984zM711.999533 783.999323h52.799984v59.19992h-52.799984zM801.600693 783.999323h52.799984v59.19992h-52.799984zM892.80029 783.999323h52.799984v59.19992h-52.799984zM80.000226 884.799855h52.799983v59.199919h-52.799983zM171.199823 884.799855h52.799984v59.199919h-52.799984zM260.79892 884.799855h52.799984v59.199919h-52.799984zM711.999533 884.799855h52.799984v59.199919h-52.799984zM801.600693 884.799855h52.799984v59.199919h-52.799984zM892.80029 884.799855h52.799984v59.199919h-52.799984zM352.00058 884.799855H675.200419v59.199919H352.00058z" fill="#E1E6E9" p-id="19494"></path><path d="M169.599323 352.00058h31.999678v31.999678H169.599323zM244.800113 352.00058h31.999678v31.999678h-31.999678zM320.000902 352.00058h31.999678v31.999678h-31.999678zM960.000645 663.998985c-9.600935 0-16.00087-6.399936-16.000871-16.00087v-422.399871c0-17.599307-14.400371-31.999678-31.999677-31.999678h-95.999034c-9.600935 0-16.00087-6.399936-16.00087-16.00087s6.399936-16.00087 16.00087-16.00087h95.999034c35.200677 0 63.999355 28.800741 63.999355 63.999355v422.399871c0 9.602997-6.399936 16.002933-15.998807 16.002933z" fill="#193651" p-id="19495"></path></svg>