<?xml version="1.0" standalone="no"?><!DOCTYPE svg PUBLIC "-//W3C//DTD SVG 1.1//EN" "http://www.w3.org/Graphics/SVG/1.1/DTD/svg11.dtd"><svg t="1711735512236" class="icon" viewBox="0 0 1024 1024" version="1.1" xmlns="http://www.w3.org/2000/svg" p-id="19336" xmlns:xlink="http://www.w3.org/1999/xlink" width="200" height="200"><path d="M853.333333 785.066667H170.666667c-64.034133 0-100.386133-34.048-102.4-95.880534V256c0-66.030933 36.369067-102.4 102.4-102.4h682.666666c66.030933 0 102.4 36.369067 102.4 102.4v432.64c-1.9968 62.378667-38.365867 96.426667-102.4 96.426667z m-324.266666-34.133334h324.266666c45.824 0 66.884267-19.387733 68.283734-62.856533L921.6 256c0-47.223467-21.0432-68.266667-68.266667-68.266667H529.066667v563.2zM170.666667 187.733333c-47.223467 0-68.266667 21.0432-68.266667 68.266667v432.64C103.799467 731.5456 124.842667 750.933333 170.666667 750.933333h324.266666V187.733333H170.666667z m682.666666 512H597.333333a17.066667 17.066667 0 1 1 0-34.133333h256a17.066667 17.066667 0 1 1 0 34.133333z m-426.666666 0H170.666667a17.066667 17.066667 0 1 1 0-34.133333h256a17.066667 17.066667 0 1 1 0 34.133333z m426.666666-85.333333H597.333333a17.066667 17.066667 0 1 1 0-34.133333h256a17.066667 17.066667 0 1 1 0 34.133333z m-426.666666 0H170.666667a17.066667 17.066667 0 1 1 0-34.133333h256a17.066667 17.066667 0 1 1 0 34.133333z m426.666666-85.333333H597.333333a17.066667 17.066667 0 1 1 0-34.133334h256a17.066667 17.066667 0 1 1 0 34.133334z m-426.666666 0H170.666667a17.066667 17.066667 0 1 1 0-34.133334h256a17.066667 17.066667 0 0 1 0 34.133334z m426.666666-85.333334H597.333333a17.066667 17.066667 0 1 1 0-34.133333h256a17.066667 17.066667 0 1 1 0 34.133333z m-426.666666 0H170.666667a17.066667 17.066667 0 0 1 0-34.133333h256a17.066667 17.066667 0 0 1 0 34.133333z m426.666666-85.333333H597.333333a17.066667 17.066667 0 1 1 0-34.133333h256a17.066667 17.066667 0 1 1 0 34.133333z m-426.666666 0H170.666667a17.066667 17.066667 0 0 1 0-34.133333h256a17.066667 17.066667 0 0 1 0 34.133333z m426.666666-85.333333H597.333333a17.066667 17.066667 0 1 1 0-34.133334h256a17.066667 17.066667 0 1 1 0 34.133334z m-426.666666 0H170.666667a17.066667 17.066667 0 0 1 0-34.133334h256a17.066667 17.066667 0 0 1 0 34.133334zM938.666667 887.466667H85.333333a34.133333 34.133333 0 0 1 0-68.266667h853.333334a34.133333 34.133333 0 0 1 0 68.266667z" p-id="19337"></path></svg>