<?xml version="1.0" standalone="no"?><!DOCTYPE svg PUBLIC "-//W3C//DTD SVG 1.1//EN" "http://www.w3.org/Graphics/SVG/1.1/DTD/svg11.dtd"><svg t="1711732257853" class="icon" viewBox="0 0 1024 1024" version="1.1" xmlns="http://www.w3.org/2000/svg" p-id="4237" xmlns:xlink="http://www.w3.org/1999/xlink" width="200" height="200"><path d="M311.232 953.088h-0.032a22.432 22.432 0 0 1-15.904-6.592l-217.792-217.792a22.432 22.432 0 0 1 0-31.872L733.056 41.28a76.704 76.704 0 0 1 53.76-22.624c18.56 0 35.84 7.04 48.672 19.872l150.016 150.016c13.536 13.536 20.576 31.84 19.808 51.52a76.16 76.16 0 0 1-22.592 50.912L327.168 946.528a22.304 22.304 0 0 1-15.904 6.592h-0.032z m-185.888-240.32l185.888 185.888L950.848 259.04a31.2 31.2 0 0 0 9.408-20.768 23.488 23.488 0 0 0-6.624-17.856L803.616 70.4a23.424 23.424 0 0 0-16.768-6.656 31.232 31.232 0 0 0-21.856 9.44L125.376 712.8z" p-id="4238"></path><path d="M56.224 990.368a21.12 21.12 0 0 1-3.392-42.016l244.256-40.064a21.12 21.12 0 0 1 6.848 41.728L59.68 990.08a19.36 19.36 0 0 1-3.456 0.288z" p-id="4239"></path><path d="M50.688 995.84a22.56 22.56 0 0 1-3.648-44.8l260.544-42.752a22.528 22.528 0 1 1 7.296 44.48L54.336 995.52a22.016 22.016 0 0 1-3.68 0.288z" p-id="4240"></path><path d="M56.256 990.368a21.12 21.12 0 0 1-20.896-24.576l40.064-244.256a21.12 21.12 0 0 1 41.728 6.848l-40.064 244.256a21.12 21.12 0 0 1-20.832 17.728z" p-id="4241"></path><path d="M50.72 995.84a22.528 22.528 0 0 1-22.272-26.176l42.752-260.544a22.528 22.528 0 1 1 44.48 7.296L72.928 976.96a22.592 22.592 0 0 1-22.208 18.912z m826.656-608.896h-0.032a22.432 22.432 0 0 1-15.904-6.592L643.648 162.56a22.592 22.592 0 0 1 31.904-31.904l217.792 217.792a22.528 22.528 0 0 1-15.904 38.464h-0.032z m-190.08 547.936h-0.032a22.592 22.592 0 0 1-15.904-38.496l119.776-119.776a22.592 22.592 0 0 1 31.904 31.872l-119.776 119.776a22.304 22.304 0 0 1-15.904 6.592h-0.032z m-81.056-81.056h-0.032a22.592 22.592 0 0 1-15.904-38.496l119.776-119.776a22.592 22.592 0 0 1 31.904 31.904l-119.776 119.776a22.304 22.304 0 0 1-15.904 6.592h-0.032z" p-id="4242"></path><path d="M796.16 1023.904a70.016 70.016 0 0 1-49.824-20.64l-253.92-253.92a22.592 22.592 0 0 1 0-31.904l225.024-225.024a22.432 22.432 0 0 1 31.872 0l253.92 253.92c13.312 13.312 20.64 31.008 20.64 49.824s-7.328 36.512-20.64 49.824l-157.28 157.28a70.016 70.016 0 0 1-49.824 20.64z m-255.904-290.496l237.984 237.984c4.8 4.8 11.168 7.424 17.92 7.424s13.152-2.624 17.92-7.424l157.28-157.28c4.8-4.8 7.424-11.168 7.424-17.92s-2.624-13.152-7.424-17.92l-237.984-237.984-193.152 193.152zM111.68 359.264h-0.032a22.528 22.528 0 0 1-15.904-38.464l119.776-119.776a22.592 22.592 0 0 1 31.904 31.904l-119.776 119.776a22.304 22.304 0 0 1-15.904 6.592h-0.032z m81.056 81.056h-0.032a22.528 22.528 0 0 1-15.904-38.464l119.776-119.776a22.528 22.528 0 0 1 31.872 31.872l-119.776 119.776a22.304 22.304 0 0 1-15.904 6.592h-0.032z" p-id="4243"></path><path d="M290.592 538.176a22.464 22.464 0 0 1-15.936-6.592L20.736 277.664C7.424 264.352 0.096 246.656 0.096 227.84s7.328-36.512 20.64-49.824L178.016 20.736A70.016 70.016 0 0 1 227.84 0.096c18.816 0 36.512 7.328 49.824 20.64l253.92 253.92a22.592 22.592 0 0 1 0 31.904L306.56 531.584a22.4 22.4 0 0 1-15.936 6.592zM227.808 45.184h-0.064a25.12 25.12 0 0 0-17.856 7.424L52.608 209.888c-4.8 4.8-7.424 11.168-7.424 17.92s2.624 13.152 7.424 17.92l237.984 237.984 193.152-193.152L245.76 52.576a25.184 25.184 0 0 0-17.92-7.424z" p-id="4244"></path></svg>