<?xml version="1.0" standalone="no"?><!DOCTYPE svg PUBLIC "-//W3C//DTD SVG 1.1//EN" "http://www.w3.org/Graphics/SVG/1.1/DTD/svg11.dtd"><svg t="1711735539585" class="icon" viewBox="0 0 1024 1024" version="1.1" xmlns="http://www.w3.org/2000/svg" p-id="20799" xmlns:xlink="http://www.w3.org/1999/xlink" width="200" height="200"><path d="M511.998969 511.998969m-511.998969 0a511.998969 511.998969 0 1 0 1023.997938 0 511.998969 511.998969 0 1 0-1023.997938 0Z" fill="#2EA2DB" p-id="20800"></path><path d="M88.000661 166.400387h579.199323v774.400451H88.000661z" fill="#E1E6E9" p-id="20801"></path><path d="M667.199984 956.799646H88.000661c-9.600935 0-16.00087-6.399936-16.00087-16.000871V166.400387c0-9.600935 6.399936-16.00087 16.00087-16.00087h579.199323c9.600935 0 16.00087 6.399936 16.00087 16.00087v774.400451c0 4.799436-1.6005 8.000435-4.799436 11.199371s-6.401998 4.799436-11.201434 4.799437zM103.999468 924.799968h547.199646V182.399194H103.999468v742.400774z" fill="#193651" p-id="20802"></path><path d="M142.399082 220.80087h468.799919V886.400354H142.399082z" fill="#FFFFFF" p-id="20803"></path><path d="M353.599017 827.200435h422.399871V92.800097H198.400064v579.199323z" fill="#FFFFFF" p-id="20804"></path><path d="M775.998888 843.199243h-422.399871c-4.799436 0-8.000435-1.6005-11.199371-4.799436l-155.198953-155.198953c-3.200999-3.200999-4.799436-6.399936-4.799436-11.199372V94.400596c0-9.600935 6.399936-16.00087 16.00087-16.00087h579.199323c9.600935 0 16.00087 6.399936 16.00087 16.00087v732.799839c-1.602562 7.998373-8.002498 15.998808-17.603432 15.998808z m-415.999935-31.999678h399.999065V110.399404H214.400935v555.20008l145.598018 145.600081z" fill="#193651" p-id="20805"></path><path d="M353.599017 772.799952l-100.798469-100.800532V148.799017h468.799919v624.000935z" fill="#E1E6E9" p-id="20806"></path><path d="M353.599017 671.99942H198.400064l155.198953 155.201015z" fill="#FFFFFF" p-id="20807"></path><path d="M353.599017 843.199243c-4.799436 0-8.000435-1.6005-11.199371-4.799436l-155.198953-155.198953c-4.799436-4.799436-6.399936-11.199372-3.200999-17.599307 3.200999-6.399936 8.000435-9.600935 14.40037-9.600935h155.198953c9.600935 0 16.00087 6.399936 16.00087 16.00087v155.201016c0 6.399936-3.200999 12.799871-9.600934 14.40037-3.198937-0.004125-4.799436 1.596375-6.399936 1.596375z m-116.799339-155.198953l100.800531 100.800532v-100.800532h-100.800531zM648.000177 236.799678H318.400403c-9.600935 0-16.00087-6.399936-16.00087-16.00087s6.399936-16.00087 16.00087-16.00087h329.599774c9.600935 0 16.00087 6.399936 16.00087 16.00087s-8.000435 16.00087-16.00087 16.00087zM648.000177 331.200274H318.400403c-9.600935 0-16.00087-6.399936-16.00087-16.00087 0-9.600935 6.399936-16.00087 16.00087-16.00087h329.599774c9.600935 0 16.00087 6.399936 16.00087 16.00087s-8.000435 16.00087-16.00087 16.00087zM491.200725 464.000483h-172.800322c-9.600935 0-16.00087-6.399936-16.00087-16.00087s6.399936-16.00087 16.00087-16.00087h172.800322c9.600935 0 16.00087 6.399936 16.00087 16.00087s-8.002498 16.00087-16.00087 16.00087zM491.200725 601.600129h-172.800322c-9.600935 0-16.00087-6.399936-16.00087-16.00087s6.399936-16.00087 16.00087-16.00087h172.800322c9.600935 0 16.00087 6.399936 16.00087 16.00087-0.002062 8.000435-8.002498 16.00087-16.00087 16.00087z" fill="#193651" p-id="20808"></path><path d="M609.600564 447.999613m-38.399613 0a38.399613 38.399613 0 1 0 76.799226 0 38.399613 38.399613 0 1 0-76.799226 0Z" fill="#FFFFFF" p-id="20809"></path><path d="M609.600564 500.799597c-30.399178 0-54.400483-23.999243-54.400483-54.400483s23.999243-54.400483 54.400483-54.400484 54.400483 23.999243 54.400483 54.400484-24.001305 54.400483-54.400483 54.400483z m0-75.198727c-12.799871 0-22.400806 9.600935-22.400806 22.400806s9.600935 22.400806 22.400806 22.400805 22.400806-9.600935 22.400806-22.400805-9.600935-22.400806-22.400806-22.400806z" fill="#193651" p-id="20810"></path><path d="M609.600564 585.599259m-38.399613 0a38.399613 38.399613 0 1 0 76.799226 0 38.399613 38.399613 0 1 0-76.799226 0Z" fill="#FFFFFF" p-id="20811"></path><path d="M609.600564 639.999742c-30.399178 0-54.400483-23.999243-54.400483-54.400483s23.999243-54.400483 54.400483-54.400484 54.400483 23.999243 54.400483 54.400484-24.001305 54.400483-54.400483 54.400483z m0-76.799226c-12.799871 0-22.400806 9.600935-22.400806 22.400805s9.600935 22.400806 22.400806 22.400806 22.400806-9.600935 22.400806-22.400806-9.600935-22.400806-22.400806-22.400805z" fill="#193651" p-id="20812"></path><path d="M912.000097 92.800097c-30.399178 0-56.000983 25.599742-56.000983 56.000983v84.799661h111.999903V148.799017c0-30.399178-25.599742-55.99892-55.99892-55.99892z" fill="#4FBF9F" p-id="20813"></path><path d="M967.999017 251.200048H855.999114c-9.600935 0-16.00087-6.399936-16.00087-16.00087V150.399517c0-40.000113 31.999678-71.999791 71.99979-71.999791s71.999791 31.999678 71.999791 71.999791v84.799661c0.002062 8.000435-7.998373 16.00087-15.998808 16.00087z m-95.999033-31.999677h80.000225V150.399517c0-22.400806-17.599307-40.000113-40.000112-40.000113-22.400806 0-40.000113 17.599307-40.000113 40.000113v68.800854z" fill="#193651" p-id="20814"></path><path d="M855.999114 235.199178v479.999291c0 70.399291 19.199807 139.200145 56.000983 200.000564 36.799114-60.800419 56.000983-129.59921 56.000983-200.000564V235.199178H855.999114z" fill="#FDBF5E" p-id="20815"></path><path d="M912.000097 931.199903c-4.799436 0-11.199372-3.200999-14.400371-8.000435-38.399613-62.400918-59.199919-134.400709-59.199919-208.000999V235.199178c0-9.600935 6.399936-16.00087 16.00087-16.00087h111.999903c9.600935 0 16.00087 6.399936 16.00087 16.00087v479.999291c0 73.60029-20.800306 145.600081-59.199919 208.000999-1.602562 4.799436-6.401998 8.000435-11.201434 8.000435z m-40.000113-679.999855v464.000484c0 57.59942 14.400371 115.200902 40.000113 166.400386 25.599742-51.199484 40.000113-108.798904 40.000112-166.400386v-464.000484h-80.000225z" fill="#193651" p-id="20816"></path><path d="M912.000097 960.000645c-9.600935 0-16.00087-6.399936-16.00087-16.000871v-28.800741c0-9.600935 6.399936-16.00087 16.00087-16.00087s16.00087 6.399936 16.00087 16.00087v28.800741c-0.002062 8.000435-8.000435 16.00087-16.00087 16.000871z" fill="#193651" p-id="20817"></path><path d="M484.80079 694.400226h31.999677v27.200241h-31.999677zM558.399017 694.400226h31.999678v27.200241h-31.999678zM631.999307 694.400226h31.999678v27.200241h-31.999678z" fill="#193651" p-id="20818"></path></svg>